%TF.GenerationSoftware,KiCad,Pcbnew,10.0.0*%
%TF.CreationDate,2026-09-10T08:44:43+02:00*%
%TF.ProjectId,Self_Watering_POT,53656c66-5f57-4617-9465-72696e675f50,rev?*%
%TF.SameCoordinates,Original*%
%TF.FileFunction,Legend,Top*%
%TF.FilePolarity,Positive*%
%FSLAX46Y46*%
G04 Gerber Fmt 4.6, Leading zero omitted, Abs format (unit mm)*
G04 Created by KiCad (PCBNEW 10.0.0) date 2026-09-10 08:44:43*
%MOMM*%
%LPD*%
G01*
G04 APERTURE LIST*
%ADD10C,0.100000*%
%ADD11C,0.200000*%
%ADD12C,0.150000*%
%ADD13C,0.120000*%
%ADD14C,0.000000*%
G04 APERTURE END LIST*
D10*
X160700000Y-71800000D02*
X162800000Y-74300000D01*
X162800000Y-79100000D02*
X177400000Y-79100000D01*
X177400000Y-82400000D01*
X162800000Y-82400000D01*
X162800000Y-79100000D01*
X162800000Y-74300000D02*
X163650000Y-74300000D01*
X152375312Y-53234990D02*
X152299122Y-53196895D01*
X152299122Y-53196895D02*
X152184836Y-53196895D01*
X152184836Y-53196895D02*
X152070550Y-53234990D01*
X152070550Y-53234990D02*
X151994360Y-53311180D01*
X151994360Y-53311180D02*
X151956265Y-53387371D01*
X151956265Y-53387371D02*
X151918169Y-53539752D01*
X151918169Y-53539752D02*
X151918169Y-53654038D01*
X151918169Y-53654038D02*
X151956265Y-53806419D01*
X151956265Y-53806419D02*
X151994360Y-53882609D01*
X151994360Y-53882609D02*
X152070550Y-53958800D01*
X152070550Y-53958800D02*
X152184836Y-53996895D01*
X152184836Y-53996895D02*
X152261027Y-53996895D01*
X152261027Y-53996895D02*
X152375312Y-53958800D01*
X152375312Y-53958800D02*
X152413408Y-53920704D01*
X152413408Y-53920704D02*
X152413408Y-53654038D01*
X152413408Y-53654038D02*
X152261027Y-53654038D01*
X152756265Y-53996895D02*
X152756265Y-53196895D01*
X152756265Y-53196895D02*
X153213408Y-53996895D01*
X153213408Y-53996895D02*
X153213408Y-53196895D01*
X153594360Y-53996895D02*
X153594360Y-53196895D01*
X153594360Y-53196895D02*
X153784836Y-53196895D01*
X153784836Y-53196895D02*
X153899122Y-53234990D01*
X153899122Y-53234990D02*
X153975312Y-53311180D01*
X153975312Y-53311180D02*
X154013407Y-53387371D01*
X154013407Y-53387371D02*
X154051503Y-53539752D01*
X154051503Y-53539752D02*
X154051503Y-53654038D01*
X154051503Y-53654038D02*
X154013407Y-53806419D01*
X154013407Y-53806419D02*
X153975312Y-53882609D01*
X153975312Y-53882609D02*
X153899122Y-53958800D01*
X153899122Y-53958800D02*
X153784836Y-53996895D01*
X153784836Y-53996895D02*
X153594360Y-53996895D01*
X155068169Y-78020845D02*
X155182455Y-78058940D01*
X155182455Y-78058940D02*
X155372931Y-78058940D01*
X155372931Y-78058940D02*
X155449122Y-78020845D01*
X155449122Y-78020845D02*
X155487217Y-77982749D01*
X155487217Y-77982749D02*
X155525312Y-77906559D01*
X155525312Y-77906559D02*
X155525312Y-77830368D01*
X155525312Y-77830368D02*
X155487217Y-77754178D01*
X155487217Y-77754178D02*
X155449122Y-77716083D01*
X155449122Y-77716083D02*
X155372931Y-77677987D01*
X155372931Y-77677987D02*
X155220550Y-77639892D01*
X155220550Y-77639892D02*
X155144360Y-77601797D01*
X155144360Y-77601797D02*
X155106265Y-77563702D01*
X155106265Y-77563702D02*
X155068169Y-77487511D01*
X155068169Y-77487511D02*
X155068169Y-77411321D01*
X155068169Y-77411321D02*
X155106265Y-77335130D01*
X155106265Y-77335130D02*
X155144360Y-77297035D01*
X155144360Y-77297035D02*
X155220550Y-77258940D01*
X155220550Y-77258940D02*
X155411027Y-77258940D01*
X155411027Y-77258940D02*
X155525312Y-77297035D01*
X155791979Y-77258940D02*
X155982455Y-78058940D01*
X155982455Y-78058940D02*
X156134836Y-77487511D01*
X156134836Y-77487511D02*
X156287217Y-78058940D01*
X156287217Y-78058940D02*
X156477694Y-77258940D01*
X157239599Y-77982749D02*
X157201503Y-78020845D01*
X157201503Y-78020845D02*
X157087218Y-78058940D01*
X157087218Y-78058940D02*
X157011027Y-78058940D01*
X157011027Y-78058940D02*
X156896741Y-78020845D01*
X156896741Y-78020845D02*
X156820551Y-77944654D01*
X156820551Y-77944654D02*
X156782456Y-77868464D01*
X156782456Y-77868464D02*
X156744360Y-77716083D01*
X156744360Y-77716083D02*
X156744360Y-77601797D01*
X156744360Y-77601797D02*
X156782456Y-77449416D01*
X156782456Y-77449416D02*
X156820551Y-77373225D01*
X156820551Y-77373225D02*
X156896741Y-77297035D01*
X156896741Y-77297035D02*
X157011027Y-77258940D01*
X157011027Y-77258940D02*
X157087218Y-77258940D01*
X157087218Y-77258940D02*
X157201503Y-77297035D01*
X157201503Y-77297035D02*
X157239599Y-77335130D01*
X157963408Y-78058940D02*
X157582456Y-78058940D01*
X157582456Y-78058940D02*
X157582456Y-77258940D01*
X158230075Y-78058940D02*
X158230075Y-77258940D01*
X158687218Y-78058940D02*
X158344360Y-77601797D01*
X158687218Y-77258940D02*
X158230075Y-77716083D01*
X155268169Y-80708800D02*
X155382455Y-80746895D01*
X155382455Y-80746895D02*
X155572931Y-80746895D01*
X155572931Y-80746895D02*
X155649122Y-80708800D01*
X155649122Y-80708800D02*
X155687217Y-80670704D01*
X155687217Y-80670704D02*
X155725312Y-80594514D01*
X155725312Y-80594514D02*
X155725312Y-80518323D01*
X155725312Y-80518323D02*
X155687217Y-80442133D01*
X155687217Y-80442133D02*
X155649122Y-80404038D01*
X155649122Y-80404038D02*
X155572931Y-80365942D01*
X155572931Y-80365942D02*
X155420550Y-80327847D01*
X155420550Y-80327847D02*
X155344360Y-80289752D01*
X155344360Y-80289752D02*
X155306265Y-80251657D01*
X155306265Y-80251657D02*
X155268169Y-80175466D01*
X155268169Y-80175466D02*
X155268169Y-80099276D01*
X155268169Y-80099276D02*
X155306265Y-80023085D01*
X155306265Y-80023085D02*
X155344360Y-79984990D01*
X155344360Y-79984990D02*
X155420550Y-79946895D01*
X155420550Y-79946895D02*
X155611027Y-79946895D01*
X155611027Y-79946895D02*
X155725312Y-79984990D01*
X155991979Y-79946895D02*
X156182455Y-80746895D01*
X156182455Y-80746895D02*
X156334836Y-80175466D01*
X156334836Y-80175466D02*
X156487217Y-80746895D01*
X156487217Y-80746895D02*
X156677694Y-79946895D01*
X156982456Y-80746895D02*
X156982456Y-79946895D01*
X156982456Y-79946895D02*
X157172932Y-79946895D01*
X157172932Y-79946895D02*
X157287218Y-79984990D01*
X157287218Y-79984990D02*
X157363408Y-80061180D01*
X157363408Y-80061180D02*
X157401503Y-80137371D01*
X157401503Y-80137371D02*
X157439599Y-80289752D01*
X157439599Y-80289752D02*
X157439599Y-80404038D01*
X157439599Y-80404038D02*
X157401503Y-80556419D01*
X157401503Y-80556419D02*
X157363408Y-80632609D01*
X157363408Y-80632609D02*
X157287218Y-80708800D01*
X157287218Y-80708800D02*
X157172932Y-80746895D01*
X157172932Y-80746895D02*
X156982456Y-80746895D01*
X157782456Y-80746895D02*
X157782456Y-79946895D01*
X158315789Y-79946895D02*
X158468170Y-79946895D01*
X158468170Y-79946895D02*
X158544360Y-79984990D01*
X158544360Y-79984990D02*
X158620551Y-80061180D01*
X158620551Y-80061180D02*
X158658646Y-80213561D01*
X158658646Y-80213561D02*
X158658646Y-80480228D01*
X158658646Y-80480228D02*
X158620551Y-80632609D01*
X158620551Y-80632609D02*
X158544360Y-80708800D01*
X158544360Y-80708800D02*
X158468170Y-80746895D01*
X158468170Y-80746895D02*
X158315789Y-80746895D01*
X158315789Y-80746895D02*
X158239598Y-80708800D01*
X158239598Y-80708800D02*
X158163408Y-80632609D01*
X158163408Y-80632609D02*
X158125312Y-80480228D01*
X158125312Y-80480228D02*
X158125312Y-80213561D01*
X158125312Y-80213561D02*
X158163408Y-80061180D01*
X158163408Y-80061180D02*
X158239598Y-79984990D01*
X158239598Y-79984990D02*
X158315789Y-79946895D01*
X155725312Y-82384990D02*
X155649122Y-82346895D01*
X155649122Y-82346895D02*
X155534836Y-82346895D01*
X155534836Y-82346895D02*
X155420550Y-82384990D01*
X155420550Y-82384990D02*
X155344360Y-82461180D01*
X155344360Y-82461180D02*
X155306265Y-82537371D01*
X155306265Y-82537371D02*
X155268169Y-82689752D01*
X155268169Y-82689752D02*
X155268169Y-82804038D01*
X155268169Y-82804038D02*
X155306265Y-82956419D01*
X155306265Y-82956419D02*
X155344360Y-83032609D01*
X155344360Y-83032609D02*
X155420550Y-83108800D01*
X155420550Y-83108800D02*
X155534836Y-83146895D01*
X155534836Y-83146895D02*
X155611027Y-83146895D01*
X155611027Y-83146895D02*
X155725312Y-83108800D01*
X155725312Y-83108800D02*
X155763408Y-83070704D01*
X155763408Y-83070704D02*
X155763408Y-82804038D01*
X155763408Y-82804038D02*
X155611027Y-82804038D01*
X156106265Y-83146895D02*
X156106265Y-82346895D01*
X156106265Y-82346895D02*
X156563408Y-83146895D01*
X156563408Y-83146895D02*
X156563408Y-82346895D01*
X156944360Y-83146895D02*
X156944360Y-82346895D01*
X156944360Y-82346895D02*
X157134836Y-82346895D01*
X157134836Y-82346895D02*
X157249122Y-82384990D01*
X157249122Y-82384990D02*
X157325312Y-82461180D01*
X157325312Y-82461180D02*
X157363407Y-82537371D01*
X157363407Y-82537371D02*
X157401503Y-82689752D01*
X157401503Y-82689752D02*
X157401503Y-82804038D01*
X157401503Y-82804038D02*
X157363407Y-82956419D01*
X157363407Y-82956419D02*
X157325312Y-83032609D01*
X157325312Y-83032609D02*
X157249122Y-83108800D01*
X157249122Y-83108800D02*
X157134836Y-83146895D01*
X157134836Y-83146895D02*
X156944360Y-83146895D01*
X155230074Y-84896895D02*
X155725312Y-84896895D01*
X155725312Y-84896895D02*
X155458646Y-85201657D01*
X155458646Y-85201657D02*
X155572931Y-85201657D01*
X155572931Y-85201657D02*
X155649122Y-85239752D01*
X155649122Y-85239752D02*
X155687217Y-85277847D01*
X155687217Y-85277847D02*
X155725312Y-85354038D01*
X155725312Y-85354038D02*
X155725312Y-85544514D01*
X155725312Y-85544514D02*
X155687217Y-85620704D01*
X155687217Y-85620704D02*
X155649122Y-85658800D01*
X155649122Y-85658800D02*
X155572931Y-85696895D01*
X155572931Y-85696895D02*
X155344360Y-85696895D01*
X155344360Y-85696895D02*
X155268169Y-85658800D01*
X155268169Y-85658800D02*
X155230074Y-85620704D01*
X156068170Y-85620704D02*
X156106265Y-85658800D01*
X156106265Y-85658800D02*
X156068170Y-85696895D01*
X156068170Y-85696895D02*
X156030074Y-85658800D01*
X156030074Y-85658800D02*
X156068170Y-85620704D01*
X156068170Y-85620704D02*
X156068170Y-85696895D01*
X156372931Y-84896895D02*
X156868169Y-84896895D01*
X156868169Y-84896895D02*
X156601503Y-85201657D01*
X156601503Y-85201657D02*
X156715788Y-85201657D01*
X156715788Y-85201657D02*
X156791979Y-85239752D01*
X156791979Y-85239752D02*
X156830074Y-85277847D01*
X156830074Y-85277847D02*
X156868169Y-85354038D01*
X156868169Y-85354038D02*
X156868169Y-85544514D01*
X156868169Y-85544514D02*
X156830074Y-85620704D01*
X156830074Y-85620704D02*
X156791979Y-85658800D01*
X156791979Y-85658800D02*
X156715788Y-85696895D01*
X156715788Y-85696895D02*
X156487217Y-85696895D01*
X156487217Y-85696895D02*
X156411026Y-85658800D01*
X156411026Y-85658800D02*
X156372931Y-85620704D01*
X157096741Y-84896895D02*
X157363408Y-85696895D01*
X157363408Y-85696895D02*
X157630074Y-84896895D01*
X157956265Y-28796895D02*
X157956265Y-27996895D01*
X157956265Y-27996895D02*
X158146741Y-27996895D01*
X158146741Y-27996895D02*
X158261027Y-28034990D01*
X158261027Y-28034990D02*
X158337217Y-28111180D01*
X158337217Y-28111180D02*
X158375312Y-28187371D01*
X158375312Y-28187371D02*
X158413408Y-28339752D01*
X158413408Y-28339752D02*
X158413408Y-28454038D01*
X158413408Y-28454038D02*
X158375312Y-28606419D01*
X158375312Y-28606419D02*
X158337217Y-28682609D01*
X158337217Y-28682609D02*
X158261027Y-28758800D01*
X158261027Y-28758800D02*
X158146741Y-28796895D01*
X158146741Y-28796895D02*
X157956265Y-28796895D01*
X159213408Y-28720704D02*
X159175312Y-28758800D01*
X159175312Y-28758800D02*
X159061027Y-28796895D01*
X159061027Y-28796895D02*
X158984836Y-28796895D01*
X158984836Y-28796895D02*
X158870550Y-28758800D01*
X158870550Y-28758800D02*
X158794360Y-28682609D01*
X158794360Y-28682609D02*
X158756265Y-28606419D01*
X158756265Y-28606419D02*
X158718169Y-28454038D01*
X158718169Y-28454038D02*
X158718169Y-28339752D01*
X158718169Y-28339752D02*
X158756265Y-28187371D01*
X158756265Y-28187371D02*
X158794360Y-28111180D01*
X158794360Y-28111180D02*
X158870550Y-28034990D01*
X158870550Y-28034990D02*
X158984836Y-27996895D01*
X158984836Y-27996895D02*
X159061027Y-27996895D01*
X159061027Y-27996895D02*
X159175312Y-28034990D01*
X159175312Y-28034990D02*
X159213408Y-28073085D01*
X159556265Y-28492133D02*
X160165789Y-28492133D01*
X160546741Y-28796895D02*
X160546741Y-27996895D01*
X160927693Y-28796895D02*
X160927693Y-27996895D01*
X160927693Y-27996895D02*
X161384836Y-28796895D01*
X161384836Y-28796895D02*
X161384836Y-27996895D01*
X168180074Y-27996895D02*
X168370550Y-28796895D01*
X168370550Y-28796895D02*
X168522931Y-28225466D01*
X168522931Y-28225466D02*
X168675312Y-28796895D01*
X168675312Y-28796895D02*
X168865789Y-27996895D01*
X169132455Y-28568323D02*
X169513408Y-28568323D01*
X169056265Y-28796895D02*
X169322932Y-27996895D01*
X169322932Y-27996895D02*
X169589598Y-28796895D01*
X169741979Y-27996895D02*
X170199122Y-27996895D01*
X169970550Y-28796895D02*
X169970550Y-27996895D01*
X170465789Y-28377847D02*
X170732455Y-28377847D01*
X170846741Y-28796895D02*
X170465789Y-28796895D01*
X170465789Y-28796895D02*
X170465789Y-27996895D01*
X170465789Y-27996895D02*
X170846741Y-27996895D01*
X171646742Y-28796895D02*
X171380075Y-28415942D01*
X171189599Y-28796895D02*
X171189599Y-27996895D01*
X171189599Y-27996895D02*
X171494361Y-27996895D01*
X171494361Y-27996895D02*
X171570551Y-28034990D01*
X171570551Y-28034990D02*
X171608646Y-28073085D01*
X171608646Y-28073085D02*
X171646742Y-28149276D01*
X171646742Y-28149276D02*
X171646742Y-28263561D01*
X171646742Y-28263561D02*
X171608646Y-28339752D01*
X171608646Y-28339752D02*
X171570551Y-28377847D01*
X171570551Y-28377847D02*
X171494361Y-28415942D01*
X171494361Y-28415942D02*
X171189599Y-28415942D01*
X172599123Y-28796895D02*
X172599123Y-27996895D01*
X172599123Y-27996895D02*
X172903885Y-27996895D01*
X172903885Y-27996895D02*
X172980075Y-28034990D01*
X172980075Y-28034990D02*
X173018170Y-28073085D01*
X173018170Y-28073085D02*
X173056266Y-28149276D01*
X173056266Y-28149276D02*
X173056266Y-28263561D01*
X173056266Y-28263561D02*
X173018170Y-28339752D01*
X173018170Y-28339752D02*
X172980075Y-28377847D01*
X172980075Y-28377847D02*
X172903885Y-28415942D01*
X172903885Y-28415942D02*
X172599123Y-28415942D01*
X173399123Y-27996895D02*
X173399123Y-28644514D01*
X173399123Y-28644514D02*
X173437218Y-28720704D01*
X173437218Y-28720704D02*
X173475313Y-28758800D01*
X173475313Y-28758800D02*
X173551504Y-28796895D01*
X173551504Y-28796895D02*
X173703885Y-28796895D01*
X173703885Y-28796895D02*
X173780075Y-28758800D01*
X173780075Y-28758800D02*
X173818170Y-28720704D01*
X173818170Y-28720704D02*
X173856266Y-28644514D01*
X173856266Y-28644514D02*
X173856266Y-27996895D01*
X174237218Y-28796895D02*
X174237218Y-27996895D01*
X174237218Y-27996895D02*
X174503884Y-28568323D01*
X174503884Y-28568323D02*
X174770551Y-27996895D01*
X174770551Y-27996895D02*
X174770551Y-28796895D01*
X175151504Y-28796895D02*
X175151504Y-27996895D01*
X175151504Y-27996895D02*
X175456266Y-27996895D01*
X175456266Y-27996895D02*
X175532456Y-28034990D01*
X175532456Y-28034990D02*
X175570551Y-28073085D01*
X175570551Y-28073085D02*
X175608647Y-28149276D01*
X175608647Y-28149276D02*
X175608647Y-28263561D01*
X175608647Y-28263561D02*
X175570551Y-28339752D01*
X175570551Y-28339752D02*
X175532456Y-28377847D01*
X175532456Y-28377847D02*
X175456266Y-28415942D01*
X175456266Y-28415942D02*
X175151504Y-28415942D01*
X180480074Y-27896895D02*
X180670550Y-28696895D01*
X180670550Y-28696895D02*
X180822931Y-28125466D01*
X180822931Y-28125466D02*
X180975312Y-28696895D01*
X180975312Y-28696895D02*
X181165789Y-27896895D01*
X181432455Y-28468323D02*
X181813408Y-28468323D01*
X181356265Y-28696895D02*
X181622932Y-27896895D01*
X181622932Y-27896895D02*
X181889598Y-28696895D01*
X182041979Y-27896895D02*
X182499122Y-27896895D01*
X182270550Y-28696895D02*
X182270550Y-27896895D01*
X182765789Y-28277847D02*
X183032455Y-28277847D01*
X183146741Y-28696895D02*
X182765789Y-28696895D01*
X182765789Y-28696895D02*
X182765789Y-27896895D01*
X182765789Y-27896895D02*
X183146741Y-27896895D01*
X183946742Y-28696895D02*
X183680075Y-28315942D01*
X183489599Y-28696895D02*
X183489599Y-27896895D01*
X183489599Y-27896895D02*
X183794361Y-27896895D01*
X183794361Y-27896895D02*
X183870551Y-27934990D01*
X183870551Y-27934990D02*
X183908646Y-27973085D01*
X183908646Y-27973085D02*
X183946742Y-28049276D01*
X183946742Y-28049276D02*
X183946742Y-28163561D01*
X183946742Y-28163561D02*
X183908646Y-28239752D01*
X183908646Y-28239752D02*
X183870551Y-28277847D01*
X183870551Y-28277847D02*
X183794361Y-28315942D01*
X183794361Y-28315942D02*
X183489599Y-28315942D01*
X185280075Y-28696895D02*
X184899123Y-28696895D01*
X184899123Y-28696895D02*
X184899123Y-27896895D01*
X185432456Y-27896895D02*
X185699123Y-28696895D01*
X185699123Y-28696895D02*
X185965789Y-27896895D01*
X186613408Y-28696895D02*
X186232456Y-28696895D01*
X186232456Y-28696895D02*
X186232456Y-27896895D01*
X187451503Y-28658800D02*
X187565789Y-28696895D01*
X187565789Y-28696895D02*
X187756265Y-28696895D01*
X187756265Y-28696895D02*
X187832456Y-28658800D01*
X187832456Y-28658800D02*
X187870551Y-28620704D01*
X187870551Y-28620704D02*
X187908646Y-28544514D01*
X187908646Y-28544514D02*
X187908646Y-28468323D01*
X187908646Y-28468323D02*
X187870551Y-28392133D01*
X187870551Y-28392133D02*
X187832456Y-28354038D01*
X187832456Y-28354038D02*
X187756265Y-28315942D01*
X187756265Y-28315942D02*
X187603884Y-28277847D01*
X187603884Y-28277847D02*
X187527694Y-28239752D01*
X187527694Y-28239752D02*
X187489599Y-28201657D01*
X187489599Y-28201657D02*
X187451503Y-28125466D01*
X187451503Y-28125466D02*
X187451503Y-28049276D01*
X187451503Y-28049276D02*
X187489599Y-27973085D01*
X187489599Y-27973085D02*
X187527694Y-27934990D01*
X187527694Y-27934990D02*
X187603884Y-27896895D01*
X187603884Y-27896895D02*
X187794361Y-27896895D01*
X187794361Y-27896895D02*
X187908646Y-27934990D01*
X188251504Y-28277847D02*
X188518170Y-28277847D01*
X188632456Y-28696895D02*
X188251504Y-28696895D01*
X188251504Y-28696895D02*
X188251504Y-27896895D01*
X188251504Y-27896895D02*
X188632456Y-27896895D01*
X188975314Y-28696895D02*
X188975314Y-27896895D01*
X188975314Y-27896895D02*
X189432457Y-28696895D01*
X189432457Y-28696895D02*
X189432457Y-27896895D01*
X189775313Y-28658800D02*
X189889599Y-28696895D01*
X189889599Y-28696895D02*
X190080075Y-28696895D01*
X190080075Y-28696895D02*
X190156266Y-28658800D01*
X190156266Y-28658800D02*
X190194361Y-28620704D01*
X190194361Y-28620704D02*
X190232456Y-28544514D01*
X190232456Y-28544514D02*
X190232456Y-28468323D01*
X190232456Y-28468323D02*
X190194361Y-28392133D01*
X190194361Y-28392133D02*
X190156266Y-28354038D01*
X190156266Y-28354038D02*
X190080075Y-28315942D01*
X190080075Y-28315942D02*
X189927694Y-28277847D01*
X189927694Y-28277847D02*
X189851504Y-28239752D01*
X189851504Y-28239752D02*
X189813409Y-28201657D01*
X189813409Y-28201657D02*
X189775313Y-28125466D01*
X189775313Y-28125466D02*
X189775313Y-28049276D01*
X189775313Y-28049276D02*
X189813409Y-27973085D01*
X189813409Y-27973085D02*
X189851504Y-27934990D01*
X189851504Y-27934990D02*
X189927694Y-27896895D01*
X189927694Y-27896895D02*
X190118171Y-27896895D01*
X190118171Y-27896895D02*
X190232456Y-27934990D01*
X190727695Y-27896895D02*
X190880076Y-27896895D01*
X190880076Y-27896895D02*
X190956266Y-27934990D01*
X190956266Y-27934990D02*
X191032457Y-28011180D01*
X191032457Y-28011180D02*
X191070552Y-28163561D01*
X191070552Y-28163561D02*
X191070552Y-28430228D01*
X191070552Y-28430228D02*
X191032457Y-28582609D01*
X191032457Y-28582609D02*
X190956266Y-28658800D01*
X190956266Y-28658800D02*
X190880076Y-28696895D01*
X190880076Y-28696895D02*
X190727695Y-28696895D01*
X190727695Y-28696895D02*
X190651504Y-28658800D01*
X190651504Y-28658800D02*
X190575314Y-28582609D01*
X190575314Y-28582609D02*
X190537218Y-28430228D01*
X190537218Y-28430228D02*
X190537218Y-28163561D01*
X190537218Y-28163561D02*
X190575314Y-28011180D01*
X190575314Y-28011180D02*
X190651504Y-27934990D01*
X190651504Y-27934990D02*
X190727695Y-27896895D01*
X191870552Y-28696895D02*
X191603885Y-28315942D01*
X191413409Y-28696895D02*
X191413409Y-27896895D01*
X191413409Y-27896895D02*
X191718171Y-27896895D01*
X191718171Y-27896895D02*
X191794361Y-27934990D01*
X191794361Y-27934990D02*
X191832456Y-27973085D01*
X191832456Y-27973085D02*
X191870552Y-28049276D01*
X191870552Y-28049276D02*
X191870552Y-28163561D01*
X191870552Y-28163561D02*
X191832456Y-28239752D01*
X191832456Y-28239752D02*
X191794361Y-28277847D01*
X191794361Y-28277847D02*
X191718171Y-28315942D01*
X191718171Y-28315942D02*
X191413409Y-28315942D01*
X188648169Y-61548323D02*
X189029122Y-61548323D01*
X188571979Y-61776895D02*
X188838646Y-60976895D01*
X188838646Y-60976895D02*
X189105312Y-61776895D01*
X189524360Y-60976895D02*
X189676741Y-60976895D01*
X189676741Y-60976895D02*
X189752931Y-61014990D01*
X189752931Y-61014990D02*
X189829122Y-61091180D01*
X189829122Y-61091180D02*
X189867217Y-61243561D01*
X189867217Y-61243561D02*
X189867217Y-61510228D01*
X189867217Y-61510228D02*
X189829122Y-61662609D01*
X189829122Y-61662609D02*
X189752931Y-61738800D01*
X189752931Y-61738800D02*
X189676741Y-61776895D01*
X189676741Y-61776895D02*
X189524360Y-61776895D01*
X189524360Y-61776895D02*
X189448169Y-61738800D01*
X189448169Y-61738800D02*
X189371979Y-61662609D01*
X189371979Y-61662609D02*
X189333883Y-61510228D01*
X189333883Y-61510228D02*
X189333883Y-61243561D01*
X189333883Y-61243561D02*
X189371979Y-61091180D01*
X189371979Y-61091180D02*
X189448169Y-61014990D01*
X189448169Y-61014990D02*
X189524360Y-60976895D01*
X190210074Y-60976895D02*
X190210074Y-61624514D01*
X190210074Y-61624514D02*
X190248169Y-61700704D01*
X190248169Y-61700704D02*
X190286264Y-61738800D01*
X190286264Y-61738800D02*
X190362455Y-61776895D01*
X190362455Y-61776895D02*
X190514836Y-61776895D01*
X190514836Y-61776895D02*
X190591026Y-61738800D01*
X190591026Y-61738800D02*
X190629121Y-61700704D01*
X190629121Y-61700704D02*
X190667217Y-61624514D01*
X190667217Y-61624514D02*
X190667217Y-60976895D01*
X190933883Y-60976895D02*
X191391026Y-60976895D01*
X191162454Y-61776895D02*
X191162454Y-60976895D01*
X188950074Y-58446895D02*
X189445312Y-58446895D01*
X189445312Y-58446895D02*
X189178646Y-58751657D01*
X189178646Y-58751657D02*
X189292931Y-58751657D01*
X189292931Y-58751657D02*
X189369122Y-58789752D01*
X189369122Y-58789752D02*
X189407217Y-58827847D01*
X189407217Y-58827847D02*
X189445312Y-58904038D01*
X189445312Y-58904038D02*
X189445312Y-59094514D01*
X189445312Y-59094514D02*
X189407217Y-59170704D01*
X189407217Y-59170704D02*
X189369122Y-59208800D01*
X189369122Y-59208800D02*
X189292931Y-59246895D01*
X189292931Y-59246895D02*
X189064360Y-59246895D01*
X189064360Y-59246895D02*
X188988169Y-59208800D01*
X188988169Y-59208800D02*
X188950074Y-59170704D01*
X189788170Y-59170704D02*
X189826265Y-59208800D01*
X189826265Y-59208800D02*
X189788170Y-59246895D01*
X189788170Y-59246895D02*
X189750074Y-59208800D01*
X189750074Y-59208800D02*
X189788170Y-59170704D01*
X189788170Y-59170704D02*
X189788170Y-59246895D01*
X190092931Y-58446895D02*
X190588169Y-58446895D01*
X190588169Y-58446895D02*
X190321503Y-58751657D01*
X190321503Y-58751657D02*
X190435788Y-58751657D01*
X190435788Y-58751657D02*
X190511979Y-58789752D01*
X190511979Y-58789752D02*
X190550074Y-58827847D01*
X190550074Y-58827847D02*
X190588169Y-58904038D01*
X190588169Y-58904038D02*
X190588169Y-59094514D01*
X190588169Y-59094514D02*
X190550074Y-59170704D01*
X190550074Y-59170704D02*
X190511979Y-59208800D01*
X190511979Y-59208800D02*
X190435788Y-59246895D01*
X190435788Y-59246895D02*
X190207217Y-59246895D01*
X190207217Y-59246895D02*
X190131026Y-59208800D01*
X190131026Y-59208800D02*
X190092931Y-59170704D01*
X190816741Y-58446895D02*
X191083408Y-59246895D01*
X191083408Y-59246895D02*
X191350074Y-58446895D01*
X189645312Y-55574990D02*
X189569122Y-55536895D01*
X189569122Y-55536895D02*
X189454836Y-55536895D01*
X189454836Y-55536895D02*
X189340550Y-55574990D01*
X189340550Y-55574990D02*
X189264360Y-55651180D01*
X189264360Y-55651180D02*
X189226265Y-55727371D01*
X189226265Y-55727371D02*
X189188169Y-55879752D01*
X189188169Y-55879752D02*
X189188169Y-55994038D01*
X189188169Y-55994038D02*
X189226265Y-56146419D01*
X189226265Y-56146419D02*
X189264360Y-56222609D01*
X189264360Y-56222609D02*
X189340550Y-56298800D01*
X189340550Y-56298800D02*
X189454836Y-56336895D01*
X189454836Y-56336895D02*
X189531027Y-56336895D01*
X189531027Y-56336895D02*
X189645312Y-56298800D01*
X189645312Y-56298800D02*
X189683408Y-56260704D01*
X189683408Y-56260704D02*
X189683408Y-55994038D01*
X189683408Y-55994038D02*
X189531027Y-55994038D01*
X190026265Y-56336895D02*
X190026265Y-55536895D01*
X190026265Y-55536895D02*
X190483408Y-56336895D01*
X190483408Y-56336895D02*
X190483408Y-55536895D01*
X190864360Y-56336895D02*
X190864360Y-55536895D01*
X190864360Y-55536895D02*
X191054836Y-55536895D01*
X191054836Y-55536895D02*
X191169122Y-55574990D01*
X191169122Y-55574990D02*
X191245312Y-55651180D01*
X191245312Y-55651180D02*
X191283407Y-55727371D01*
X191283407Y-55727371D02*
X191321503Y-55879752D01*
X191321503Y-55879752D02*
X191321503Y-55994038D01*
X191321503Y-55994038D02*
X191283407Y-56146419D01*
X191283407Y-56146419D02*
X191245312Y-56222609D01*
X191245312Y-56222609D02*
X191169122Y-56298800D01*
X191169122Y-56298800D02*
X191054836Y-56336895D01*
X191054836Y-56336895D02*
X190864360Y-56336895D01*
X150352381Y-101164895D02*
X150352381Y-100364895D01*
X150352381Y-100364895D02*
X150619047Y-100936323D01*
X150619047Y-100936323D02*
X150885714Y-100364895D01*
X150885714Y-100364895D02*
X150885714Y-101164895D01*
X151228571Y-100441085D02*
X151266667Y-100402990D01*
X151266667Y-100402990D02*
X151342857Y-100364895D01*
X151342857Y-100364895D02*
X151533333Y-100364895D01*
X151533333Y-100364895D02*
X151609524Y-100402990D01*
X151609524Y-100402990D02*
X151647619Y-100441085D01*
X151647619Y-100441085D02*
X151685714Y-100517276D01*
X151685714Y-100517276D02*
X151685714Y-100593466D01*
X151685714Y-100593466D02*
X151647619Y-100707752D01*
X151647619Y-100707752D02*
X151190476Y-101164895D01*
X151190476Y-101164895D02*
X151685714Y-101164895D01*
X194352381Y-33564895D02*
X194352381Y-32764895D01*
X194352381Y-32764895D02*
X194619047Y-33336323D01*
X194619047Y-33336323D02*
X194885714Y-32764895D01*
X194885714Y-32764895D02*
X194885714Y-33564895D01*
X195228571Y-32841085D02*
X195266667Y-32802990D01*
X195266667Y-32802990D02*
X195342857Y-32764895D01*
X195342857Y-32764895D02*
X195533333Y-32764895D01*
X195533333Y-32764895D02*
X195609524Y-32802990D01*
X195609524Y-32802990D02*
X195647619Y-32841085D01*
X195647619Y-32841085D02*
X195685714Y-32917276D01*
X195685714Y-32917276D02*
X195685714Y-32993466D01*
X195685714Y-32993466D02*
X195647619Y-33107752D01*
X195647619Y-33107752D02*
X195190476Y-33564895D01*
X195190476Y-33564895D02*
X195685714Y-33564895D01*
X194352381Y-100964895D02*
X194352381Y-100164895D01*
X194352381Y-100164895D02*
X194619047Y-100736323D01*
X194619047Y-100736323D02*
X194885714Y-100164895D01*
X194885714Y-100164895D02*
X194885714Y-100964895D01*
X195228571Y-100241085D02*
X195266667Y-100202990D01*
X195266667Y-100202990D02*
X195342857Y-100164895D01*
X195342857Y-100164895D02*
X195533333Y-100164895D01*
X195533333Y-100164895D02*
X195609524Y-100202990D01*
X195609524Y-100202990D02*
X195647619Y-100241085D01*
X195647619Y-100241085D02*
X195685714Y-100317276D01*
X195685714Y-100317276D02*
X195685714Y-100393466D01*
X195685714Y-100393466D02*
X195647619Y-100507752D01*
X195647619Y-100507752D02*
X195190476Y-100964895D01*
X195190476Y-100964895D02*
X195685714Y-100964895D01*
X157652380Y-105964895D02*
X157752380Y-105164895D01*
X157704761Y-105545847D02*
X158161904Y-105545847D01*
X158109523Y-105964895D02*
X158209523Y-105164895D01*
X158899999Y-105431561D02*
X158833332Y-105964895D01*
X158557141Y-105431561D02*
X158504761Y-105850609D01*
X158504761Y-105850609D02*
X158533332Y-105926800D01*
X158533332Y-105926800D02*
X158604761Y-105964895D01*
X158604761Y-105964895D02*
X158719046Y-105964895D01*
X158719046Y-105964895D02*
X158799999Y-105926800D01*
X158799999Y-105926800D02*
X158842856Y-105888704D01*
X159214285Y-105964895D02*
X159280951Y-105431561D01*
X159271428Y-105507752D02*
X159314285Y-105469657D01*
X159314285Y-105469657D02*
X159395237Y-105431561D01*
X159395237Y-105431561D02*
X159509523Y-105431561D01*
X159509523Y-105431561D02*
X159580951Y-105469657D01*
X159580951Y-105469657D02*
X159609523Y-105545847D01*
X159609523Y-105545847D02*
X159557142Y-105964895D01*
X159609523Y-105545847D02*
X159657142Y-105469657D01*
X159657142Y-105469657D02*
X159738094Y-105431561D01*
X159738094Y-105431561D02*
X159852380Y-105431561D01*
X159852380Y-105431561D02*
X159923809Y-105469657D01*
X159923809Y-105469657D02*
X159952380Y-105545847D01*
X159952380Y-105545847D02*
X159899999Y-105964895D01*
X160928571Y-105660133D02*
X161538095Y-105660133D01*
X162299999Y-105964895D02*
X161842857Y-105964895D01*
X162071428Y-105964895D02*
X162171428Y-105164895D01*
X162171428Y-105164895D02*
X162080952Y-105279180D01*
X162080952Y-105279180D02*
X161995238Y-105355371D01*
X161995238Y-105355371D02*
X161914285Y-105393466D01*
X162895238Y-105164895D02*
X162971428Y-105164895D01*
X162971428Y-105164895D02*
X163042857Y-105202990D01*
X163042857Y-105202990D02*
X163076190Y-105241085D01*
X163076190Y-105241085D02*
X163104762Y-105317276D01*
X163104762Y-105317276D02*
X163123809Y-105469657D01*
X163123809Y-105469657D02*
X163100000Y-105660133D01*
X163100000Y-105660133D02*
X163042857Y-105812514D01*
X163042857Y-105812514D02*
X162995238Y-105888704D01*
X162995238Y-105888704D02*
X162952381Y-105926800D01*
X162952381Y-105926800D02*
X162871428Y-105964895D01*
X162871428Y-105964895D02*
X162795238Y-105964895D01*
X162795238Y-105964895D02*
X162723809Y-105926800D01*
X162723809Y-105926800D02*
X162690476Y-105888704D01*
X162690476Y-105888704D02*
X162661904Y-105812514D01*
X162661904Y-105812514D02*
X162642857Y-105660133D01*
X162642857Y-105660133D02*
X162666666Y-105469657D01*
X162666666Y-105469657D02*
X162723809Y-105317276D01*
X162723809Y-105317276D02*
X162771428Y-105241085D01*
X162771428Y-105241085D02*
X162814285Y-105202990D01*
X162814285Y-105202990D02*
X162895238Y-105164895D01*
X163366667Y-105964895D02*
X164076190Y-105164895D01*
X163580952Y-105164895D02*
X163652381Y-105202990D01*
X163652381Y-105202990D02*
X163680952Y-105279180D01*
X163680952Y-105279180D02*
X163633333Y-105355371D01*
X163633333Y-105355371D02*
X163552381Y-105393466D01*
X163552381Y-105393466D02*
X163480952Y-105355371D01*
X163480952Y-105355371D02*
X163452381Y-105279180D01*
X163452381Y-105279180D02*
X163500000Y-105202990D01*
X163500000Y-105202990D02*
X163580952Y-105164895D01*
X163942857Y-105926800D02*
X163990476Y-105850609D01*
X163990476Y-105850609D02*
X163961905Y-105774419D01*
X163961905Y-105774419D02*
X163890476Y-105736323D01*
X163890476Y-105736323D02*
X163809524Y-105774419D01*
X163809524Y-105774419D02*
X163761905Y-105850609D01*
X163761905Y-105850609D02*
X163790476Y-105926800D01*
X163790476Y-105926800D02*
X163861905Y-105964895D01*
X163861905Y-105964895D02*
X163942857Y-105926800D01*
X170352380Y-105964895D02*
X170452380Y-105164895D01*
X170404761Y-105545847D02*
X170861904Y-105545847D01*
X170809523Y-105964895D02*
X170909523Y-105164895D01*
X171599999Y-105431561D02*
X171533332Y-105964895D01*
X171257141Y-105431561D02*
X171204761Y-105850609D01*
X171204761Y-105850609D02*
X171233332Y-105926800D01*
X171233332Y-105926800D02*
X171304761Y-105964895D01*
X171304761Y-105964895D02*
X171419046Y-105964895D01*
X171419046Y-105964895D02*
X171499999Y-105926800D01*
X171499999Y-105926800D02*
X171542856Y-105888704D01*
X171914285Y-105964895D02*
X171980951Y-105431561D01*
X171971428Y-105507752D02*
X172014285Y-105469657D01*
X172014285Y-105469657D02*
X172095237Y-105431561D01*
X172095237Y-105431561D02*
X172209523Y-105431561D01*
X172209523Y-105431561D02*
X172280951Y-105469657D01*
X172280951Y-105469657D02*
X172309523Y-105545847D01*
X172309523Y-105545847D02*
X172257142Y-105964895D01*
X172309523Y-105545847D02*
X172357142Y-105469657D01*
X172357142Y-105469657D02*
X172438094Y-105431561D01*
X172438094Y-105431561D02*
X172552380Y-105431561D01*
X172552380Y-105431561D02*
X172623809Y-105469657D01*
X172623809Y-105469657D02*
X172652380Y-105545847D01*
X172652380Y-105545847D02*
X172599999Y-105964895D01*
X173628571Y-105660133D02*
X174238095Y-105660133D01*
X173895238Y-105964895D02*
X173971428Y-105355371D01*
X174999999Y-105964895D02*
X174542857Y-105964895D01*
X174771428Y-105964895D02*
X174871428Y-105164895D01*
X174871428Y-105164895D02*
X174780952Y-105279180D01*
X174780952Y-105279180D02*
X174695238Y-105355371D01*
X174695238Y-105355371D02*
X174614285Y-105393466D01*
X175595238Y-105164895D02*
X175671428Y-105164895D01*
X175671428Y-105164895D02*
X175742857Y-105202990D01*
X175742857Y-105202990D02*
X175776190Y-105241085D01*
X175776190Y-105241085D02*
X175804762Y-105317276D01*
X175804762Y-105317276D02*
X175823809Y-105469657D01*
X175823809Y-105469657D02*
X175800000Y-105660133D01*
X175800000Y-105660133D02*
X175742857Y-105812514D01*
X175742857Y-105812514D02*
X175695238Y-105888704D01*
X175695238Y-105888704D02*
X175652381Y-105926800D01*
X175652381Y-105926800D02*
X175571428Y-105964895D01*
X175571428Y-105964895D02*
X175495238Y-105964895D01*
X175495238Y-105964895D02*
X175423809Y-105926800D01*
X175423809Y-105926800D02*
X175390476Y-105888704D01*
X175390476Y-105888704D02*
X175361904Y-105812514D01*
X175361904Y-105812514D02*
X175342857Y-105660133D01*
X175342857Y-105660133D02*
X175366666Y-105469657D01*
X175366666Y-105469657D02*
X175423809Y-105317276D01*
X175423809Y-105317276D02*
X175471428Y-105241085D01*
X175471428Y-105241085D02*
X175514285Y-105202990D01*
X175514285Y-105202990D02*
X175595238Y-105164895D01*
X176066667Y-105964895D02*
X176776190Y-105164895D01*
X176280952Y-105164895D02*
X176352381Y-105202990D01*
X176352381Y-105202990D02*
X176380952Y-105279180D01*
X176380952Y-105279180D02*
X176333333Y-105355371D01*
X176333333Y-105355371D02*
X176252381Y-105393466D01*
X176252381Y-105393466D02*
X176180952Y-105355371D01*
X176180952Y-105355371D02*
X176152381Y-105279180D01*
X176152381Y-105279180D02*
X176200000Y-105202990D01*
X176200000Y-105202990D02*
X176280952Y-105164895D01*
X176642857Y-105926800D02*
X176690476Y-105850609D01*
X176690476Y-105850609D02*
X176661905Y-105774419D01*
X176661905Y-105774419D02*
X176590476Y-105736323D01*
X176590476Y-105736323D02*
X176509524Y-105774419D01*
X176509524Y-105774419D02*
X176461905Y-105850609D01*
X176461905Y-105850609D02*
X176490476Y-105926800D01*
X176490476Y-105926800D02*
X176561905Y-105964895D01*
X176561905Y-105964895D02*
X176642857Y-105926800D01*
X181414284Y-105964895D02*
X181514284Y-105164895D01*
X181514284Y-105164895D02*
X181709522Y-105736323D01*
X181709522Y-105736323D02*
X182047617Y-105164895D01*
X182047617Y-105164895D02*
X181947617Y-105964895D01*
X182671427Y-105964895D02*
X182723808Y-105545847D01*
X182723808Y-105545847D02*
X182695236Y-105469657D01*
X182695236Y-105469657D02*
X182623808Y-105431561D01*
X182623808Y-105431561D02*
X182471427Y-105431561D01*
X182471427Y-105431561D02*
X182390475Y-105469657D01*
X182676189Y-105926800D02*
X182595236Y-105964895D01*
X182595236Y-105964895D02*
X182404760Y-105964895D01*
X182404760Y-105964895D02*
X182333332Y-105926800D01*
X182333332Y-105926800D02*
X182304760Y-105850609D01*
X182304760Y-105850609D02*
X182314284Y-105774419D01*
X182314284Y-105774419D02*
X182361903Y-105698228D01*
X182361903Y-105698228D02*
X182442856Y-105660133D01*
X182442856Y-105660133D02*
X182633332Y-105660133D01*
X182633332Y-105660133D02*
X182714284Y-105622038D01*
X183119046Y-105431561D02*
X183052380Y-105964895D01*
X183109523Y-105507752D02*
X183152380Y-105469657D01*
X183152380Y-105469657D02*
X183233332Y-105431561D01*
X183233332Y-105431561D02*
X183347618Y-105431561D01*
X183347618Y-105431561D02*
X183419046Y-105469657D01*
X183419046Y-105469657D02*
X183447618Y-105545847D01*
X183447618Y-105545847D02*
X183395237Y-105964895D01*
X184185714Y-105431561D02*
X184119047Y-105964895D01*
X183842856Y-105431561D02*
X183790476Y-105850609D01*
X183790476Y-105850609D02*
X183819047Y-105926800D01*
X183819047Y-105926800D02*
X183890476Y-105964895D01*
X183890476Y-105964895D02*
X184004761Y-105964895D01*
X184004761Y-105964895D02*
X184085714Y-105926800D01*
X184085714Y-105926800D02*
X184128571Y-105888704D01*
X184842857Y-105964895D02*
X184895238Y-105545847D01*
X184895238Y-105545847D02*
X184866666Y-105469657D01*
X184866666Y-105469657D02*
X184795238Y-105431561D01*
X184795238Y-105431561D02*
X184642857Y-105431561D01*
X184642857Y-105431561D02*
X184561905Y-105469657D01*
X184847619Y-105926800D02*
X184766666Y-105964895D01*
X184766666Y-105964895D02*
X184576190Y-105964895D01*
X184576190Y-105964895D02*
X184504762Y-105926800D01*
X184504762Y-105926800D02*
X184476190Y-105850609D01*
X184476190Y-105850609D02*
X184485714Y-105774419D01*
X184485714Y-105774419D02*
X184533333Y-105698228D01*
X184533333Y-105698228D02*
X184614286Y-105660133D01*
X184614286Y-105660133D02*
X184804762Y-105660133D01*
X184804762Y-105660133D02*
X184885714Y-105622038D01*
X185338096Y-105964895D02*
X185266667Y-105926800D01*
X185266667Y-105926800D02*
X185238096Y-105850609D01*
X185238096Y-105850609D02*
X185323810Y-105164895D01*
X186276191Y-105164895D02*
X186366668Y-105964895D01*
X186366668Y-105964895D02*
X186590477Y-105393466D01*
X186590477Y-105393466D02*
X186671429Y-105964895D01*
X186671429Y-105964895D02*
X186961906Y-105164895D01*
X187509525Y-105964895D02*
X187561906Y-105545847D01*
X187561906Y-105545847D02*
X187533334Y-105469657D01*
X187533334Y-105469657D02*
X187461906Y-105431561D01*
X187461906Y-105431561D02*
X187309525Y-105431561D01*
X187309525Y-105431561D02*
X187228573Y-105469657D01*
X187514287Y-105926800D02*
X187433334Y-105964895D01*
X187433334Y-105964895D02*
X187242858Y-105964895D01*
X187242858Y-105964895D02*
X187171430Y-105926800D01*
X187171430Y-105926800D02*
X187142858Y-105850609D01*
X187142858Y-105850609D02*
X187152382Y-105774419D01*
X187152382Y-105774419D02*
X187200001Y-105698228D01*
X187200001Y-105698228D02*
X187280954Y-105660133D01*
X187280954Y-105660133D02*
X187471430Y-105660133D01*
X187471430Y-105660133D02*
X187552382Y-105622038D01*
X187842859Y-105431561D02*
X188147621Y-105431561D01*
X187990478Y-105164895D02*
X187904764Y-105850609D01*
X187904764Y-105850609D02*
X187933335Y-105926800D01*
X187933335Y-105926800D02*
X188004764Y-105964895D01*
X188004764Y-105964895D02*
X188080954Y-105964895D01*
X188657145Y-105926800D02*
X188576192Y-105964895D01*
X188576192Y-105964895D02*
X188423811Y-105964895D01*
X188423811Y-105964895D02*
X188352383Y-105926800D01*
X188352383Y-105926800D02*
X188323811Y-105850609D01*
X188323811Y-105850609D02*
X188361907Y-105545847D01*
X188361907Y-105545847D02*
X188409526Y-105469657D01*
X188409526Y-105469657D02*
X188490478Y-105431561D01*
X188490478Y-105431561D02*
X188642859Y-105431561D01*
X188642859Y-105431561D02*
X188714287Y-105469657D01*
X188714287Y-105469657D02*
X188742859Y-105545847D01*
X188742859Y-105545847D02*
X188733335Y-105622038D01*
X188733335Y-105622038D02*
X188342859Y-105698228D01*
X189033335Y-105964895D02*
X189100001Y-105431561D01*
X189080954Y-105583942D02*
X189128573Y-105507752D01*
X189128573Y-105507752D02*
X189171430Y-105469657D01*
X189171430Y-105469657D02*
X189252382Y-105431561D01*
X189252382Y-105431561D02*
X189328573Y-105431561D01*
X189528573Y-105964895D02*
X189595239Y-105431561D01*
X189628573Y-105164895D02*
X189585716Y-105202990D01*
X189585716Y-105202990D02*
X189619049Y-105241085D01*
X189619049Y-105241085D02*
X189661906Y-105202990D01*
X189661906Y-105202990D02*
X189628573Y-105164895D01*
X189628573Y-105164895D02*
X189619049Y-105241085D01*
X189976191Y-105431561D02*
X189909525Y-105964895D01*
X189966668Y-105507752D02*
X190009525Y-105469657D01*
X190009525Y-105469657D02*
X190090477Y-105431561D01*
X190090477Y-105431561D02*
X190204763Y-105431561D01*
X190204763Y-105431561D02*
X190276191Y-105469657D01*
X190276191Y-105469657D02*
X190304763Y-105545847D01*
X190304763Y-105545847D02*
X190252382Y-105964895D01*
X191042859Y-105431561D02*
X190961906Y-106079180D01*
X190961906Y-106079180D02*
X190914287Y-106155371D01*
X190914287Y-106155371D02*
X190871430Y-106193466D01*
X190871430Y-106193466D02*
X190790478Y-106231561D01*
X190790478Y-106231561D02*
X190676192Y-106231561D01*
X190676192Y-106231561D02*
X190604763Y-106193466D01*
X190980954Y-105926800D02*
X190900001Y-105964895D01*
X190900001Y-105964895D02*
X190747621Y-105964895D01*
X190747621Y-105964895D02*
X190676192Y-105926800D01*
X190676192Y-105926800D02*
X190642859Y-105888704D01*
X190642859Y-105888704D02*
X190614287Y-105812514D01*
X190614287Y-105812514D02*
X190642859Y-105583942D01*
X190642859Y-105583942D02*
X190690478Y-105507752D01*
X190690478Y-105507752D02*
X190733335Y-105469657D01*
X190733335Y-105469657D02*
X190814287Y-105431561D01*
X190814287Y-105431561D02*
X190966668Y-105431561D01*
X190966668Y-105431561D02*
X191038097Y-105469657D01*
X192858800Y-74381830D02*
X192896895Y-74267544D01*
X192896895Y-74267544D02*
X192896895Y-74077068D01*
X192896895Y-74077068D02*
X192858800Y-74000877D01*
X192858800Y-74000877D02*
X192820704Y-73962782D01*
X192820704Y-73962782D02*
X192744514Y-73924687D01*
X192744514Y-73924687D02*
X192668323Y-73924687D01*
X192668323Y-73924687D02*
X192592133Y-73962782D01*
X192592133Y-73962782D02*
X192554038Y-74000877D01*
X192554038Y-74000877D02*
X192515942Y-74077068D01*
X192515942Y-74077068D02*
X192477847Y-74229449D01*
X192477847Y-74229449D02*
X192439752Y-74305639D01*
X192439752Y-74305639D02*
X192401657Y-74343734D01*
X192401657Y-74343734D02*
X192325466Y-74381830D01*
X192325466Y-74381830D02*
X192249276Y-74381830D01*
X192249276Y-74381830D02*
X192173085Y-74343734D01*
X192173085Y-74343734D02*
X192134990Y-74305639D01*
X192134990Y-74305639D02*
X192096895Y-74229449D01*
X192096895Y-74229449D02*
X192096895Y-74038972D01*
X192096895Y-74038972D02*
X192134990Y-73924687D01*
X192820704Y-73124686D02*
X192858800Y-73162782D01*
X192858800Y-73162782D02*
X192896895Y-73277067D01*
X192896895Y-73277067D02*
X192896895Y-73353258D01*
X192896895Y-73353258D02*
X192858800Y-73467544D01*
X192858800Y-73467544D02*
X192782609Y-73543734D01*
X192782609Y-73543734D02*
X192706419Y-73581829D01*
X192706419Y-73581829D02*
X192554038Y-73619925D01*
X192554038Y-73619925D02*
X192439752Y-73619925D01*
X192439752Y-73619925D02*
X192287371Y-73581829D01*
X192287371Y-73581829D02*
X192211180Y-73543734D01*
X192211180Y-73543734D02*
X192134990Y-73467544D01*
X192134990Y-73467544D02*
X192096895Y-73353258D01*
X192096895Y-73353258D02*
X192096895Y-73277067D01*
X192096895Y-73277067D02*
X192134990Y-73162782D01*
X192134990Y-73162782D02*
X192173085Y-73124686D01*
X192896895Y-72400877D02*
X192896895Y-72781829D01*
X192896895Y-72781829D02*
X192096895Y-72781829D01*
X195458800Y-74481830D02*
X195496895Y-74367544D01*
X195496895Y-74367544D02*
X195496895Y-74177068D01*
X195496895Y-74177068D02*
X195458800Y-74100877D01*
X195458800Y-74100877D02*
X195420704Y-74062782D01*
X195420704Y-74062782D02*
X195344514Y-74024687D01*
X195344514Y-74024687D02*
X195268323Y-74024687D01*
X195268323Y-74024687D02*
X195192133Y-74062782D01*
X195192133Y-74062782D02*
X195154038Y-74100877D01*
X195154038Y-74100877D02*
X195115942Y-74177068D01*
X195115942Y-74177068D02*
X195077847Y-74329449D01*
X195077847Y-74329449D02*
X195039752Y-74405639D01*
X195039752Y-74405639D02*
X195001657Y-74443734D01*
X195001657Y-74443734D02*
X194925466Y-74481830D01*
X194925466Y-74481830D02*
X194849276Y-74481830D01*
X194849276Y-74481830D02*
X194773085Y-74443734D01*
X194773085Y-74443734D02*
X194734990Y-74405639D01*
X194734990Y-74405639D02*
X194696895Y-74329449D01*
X194696895Y-74329449D02*
X194696895Y-74138972D01*
X194696895Y-74138972D02*
X194734990Y-74024687D01*
X195496895Y-73681829D02*
X194696895Y-73681829D01*
X194696895Y-73681829D02*
X194696895Y-73491353D01*
X194696895Y-73491353D02*
X194734990Y-73377067D01*
X194734990Y-73377067D02*
X194811180Y-73300877D01*
X194811180Y-73300877D02*
X194887371Y-73262782D01*
X194887371Y-73262782D02*
X195039752Y-73224686D01*
X195039752Y-73224686D02*
X195154038Y-73224686D01*
X195154038Y-73224686D02*
X195306419Y-73262782D01*
X195306419Y-73262782D02*
X195382609Y-73300877D01*
X195382609Y-73300877D02*
X195458800Y-73377067D01*
X195458800Y-73377067D02*
X195496895Y-73491353D01*
X195496895Y-73491353D02*
X195496895Y-73681829D01*
X195268323Y-72919925D02*
X195268323Y-72538972D01*
X195496895Y-72996115D02*
X194696895Y-72729448D01*
X194696895Y-72729448D02*
X195496895Y-72462782D01*
X186934990Y-74394360D02*
X186896895Y-74470550D01*
X186896895Y-74470550D02*
X186896895Y-74584836D01*
X186896895Y-74584836D02*
X186934990Y-74699122D01*
X186934990Y-74699122D02*
X187011180Y-74775312D01*
X187011180Y-74775312D02*
X187087371Y-74813407D01*
X187087371Y-74813407D02*
X187239752Y-74851503D01*
X187239752Y-74851503D02*
X187354038Y-74851503D01*
X187354038Y-74851503D02*
X187506419Y-74813407D01*
X187506419Y-74813407D02*
X187582609Y-74775312D01*
X187582609Y-74775312D02*
X187658800Y-74699122D01*
X187658800Y-74699122D02*
X187696895Y-74584836D01*
X187696895Y-74584836D02*
X187696895Y-74508645D01*
X187696895Y-74508645D02*
X187658800Y-74394360D01*
X187658800Y-74394360D02*
X187620704Y-74356264D01*
X187620704Y-74356264D02*
X187354038Y-74356264D01*
X187354038Y-74356264D02*
X187354038Y-74508645D01*
X187696895Y-74013407D02*
X186896895Y-74013407D01*
X186896895Y-74013407D02*
X187696895Y-73556264D01*
X187696895Y-73556264D02*
X186896895Y-73556264D01*
X187696895Y-73175312D02*
X186896895Y-73175312D01*
X186896895Y-73175312D02*
X186896895Y-72984836D01*
X186896895Y-72984836D02*
X186934990Y-72870550D01*
X186934990Y-72870550D02*
X187011180Y-72794360D01*
X187011180Y-72794360D02*
X187087371Y-72756265D01*
X187087371Y-72756265D02*
X187239752Y-72718169D01*
X187239752Y-72718169D02*
X187354038Y-72718169D01*
X187354038Y-72718169D02*
X187506419Y-72756265D01*
X187506419Y-72756265D02*
X187582609Y-72794360D01*
X187582609Y-72794360D02*
X187658800Y-72870550D01*
X187658800Y-72870550D02*
X187696895Y-72984836D01*
X187696895Y-72984836D02*
X187696895Y-73175312D01*
X189476895Y-74871979D02*
X189476895Y-74376741D01*
X189476895Y-74376741D02*
X189781657Y-74643407D01*
X189781657Y-74643407D02*
X189781657Y-74529122D01*
X189781657Y-74529122D02*
X189819752Y-74452931D01*
X189819752Y-74452931D02*
X189857847Y-74414836D01*
X189857847Y-74414836D02*
X189934038Y-74376741D01*
X189934038Y-74376741D02*
X190124514Y-74376741D01*
X190124514Y-74376741D02*
X190200704Y-74414836D01*
X190200704Y-74414836D02*
X190238800Y-74452931D01*
X190238800Y-74452931D02*
X190276895Y-74529122D01*
X190276895Y-74529122D02*
X190276895Y-74757693D01*
X190276895Y-74757693D02*
X190238800Y-74833884D01*
X190238800Y-74833884D02*
X190200704Y-74871979D01*
X190200704Y-74033883D02*
X190238800Y-73995788D01*
X190238800Y-73995788D02*
X190276895Y-74033883D01*
X190276895Y-74033883D02*
X190238800Y-74071979D01*
X190238800Y-74071979D02*
X190200704Y-74033883D01*
X190200704Y-74033883D02*
X190276895Y-74033883D01*
X189476895Y-73729122D02*
X189476895Y-73233884D01*
X189476895Y-73233884D02*
X189781657Y-73500550D01*
X189781657Y-73500550D02*
X189781657Y-73386265D01*
X189781657Y-73386265D02*
X189819752Y-73310074D01*
X189819752Y-73310074D02*
X189857847Y-73271979D01*
X189857847Y-73271979D02*
X189934038Y-73233884D01*
X189934038Y-73233884D02*
X190124514Y-73233884D01*
X190124514Y-73233884D02*
X190200704Y-73271979D01*
X190200704Y-73271979D02*
X190238800Y-73310074D01*
X190238800Y-73310074D02*
X190276895Y-73386265D01*
X190276895Y-73386265D02*
X190276895Y-73614836D01*
X190276895Y-73614836D02*
X190238800Y-73691027D01*
X190238800Y-73691027D02*
X190200704Y-73729122D01*
X189476895Y-73005312D02*
X190276895Y-72738645D01*
X190276895Y-72738645D02*
X189476895Y-72471979D01*
D11*
X163504760Y-81021600D02*
X163614284Y-81059695D01*
X163614284Y-81059695D02*
X163804760Y-81059695D01*
X163804760Y-81059695D02*
X163885713Y-81021600D01*
X163885713Y-81021600D02*
X163928570Y-80983504D01*
X163928570Y-80983504D02*
X163976189Y-80907314D01*
X163976189Y-80907314D02*
X163985713Y-80831123D01*
X163985713Y-80831123D02*
X163957141Y-80754933D01*
X163957141Y-80754933D02*
X163923808Y-80716838D01*
X163923808Y-80716838D02*
X163852380Y-80678742D01*
X163852380Y-80678742D02*
X163704760Y-80640647D01*
X163704760Y-80640647D02*
X163633332Y-80602552D01*
X163633332Y-80602552D02*
X163599999Y-80564457D01*
X163599999Y-80564457D02*
X163571427Y-80488266D01*
X163571427Y-80488266D02*
X163580951Y-80412076D01*
X163580951Y-80412076D02*
X163628570Y-80335885D01*
X163628570Y-80335885D02*
X163671427Y-80297790D01*
X163671427Y-80297790D02*
X163752380Y-80259695D01*
X163752380Y-80259695D02*
X163942856Y-80259695D01*
X163942856Y-80259695D02*
X164052380Y-80297790D01*
X164609523Y-81021600D02*
X164528570Y-81059695D01*
X164528570Y-81059695D02*
X164376189Y-81059695D01*
X164376189Y-81059695D02*
X164304761Y-81021600D01*
X164304761Y-81021600D02*
X164276189Y-80945409D01*
X164276189Y-80945409D02*
X164314285Y-80640647D01*
X164314285Y-80640647D02*
X164361904Y-80564457D01*
X164361904Y-80564457D02*
X164442856Y-80526361D01*
X164442856Y-80526361D02*
X164595237Y-80526361D01*
X164595237Y-80526361D02*
X164666665Y-80564457D01*
X164666665Y-80564457D02*
X164695237Y-80640647D01*
X164695237Y-80640647D02*
X164685713Y-80716838D01*
X164685713Y-80716838D02*
X164295237Y-80793028D01*
X165099999Y-81059695D02*
X165028570Y-81021600D01*
X165028570Y-81021600D02*
X164999999Y-80945409D01*
X164999999Y-80945409D02*
X165085713Y-80259695D01*
X165357142Y-80526361D02*
X165661904Y-80526361D01*
X165404761Y-81059695D02*
X165490475Y-80373980D01*
X165490475Y-80373980D02*
X165538094Y-80297790D01*
X165538094Y-80297790D02*
X165619047Y-80259695D01*
X165619047Y-80259695D02*
X165695237Y-80259695D01*
X166495237Y-80259695D02*
X166585714Y-81059695D01*
X166585714Y-81059695D02*
X166809523Y-80488266D01*
X166809523Y-80488266D02*
X166890475Y-81059695D01*
X166890475Y-81059695D02*
X167180952Y-80259695D01*
X167728571Y-81059695D02*
X167780952Y-80640647D01*
X167780952Y-80640647D02*
X167752380Y-80564457D01*
X167752380Y-80564457D02*
X167680952Y-80526361D01*
X167680952Y-80526361D02*
X167528571Y-80526361D01*
X167528571Y-80526361D02*
X167447619Y-80564457D01*
X167733333Y-81021600D02*
X167652380Y-81059695D01*
X167652380Y-81059695D02*
X167461904Y-81059695D01*
X167461904Y-81059695D02*
X167390476Y-81021600D01*
X167390476Y-81021600D02*
X167361904Y-80945409D01*
X167361904Y-80945409D02*
X167371428Y-80869219D01*
X167371428Y-80869219D02*
X167419047Y-80793028D01*
X167419047Y-80793028D02*
X167500000Y-80754933D01*
X167500000Y-80754933D02*
X167690476Y-80754933D01*
X167690476Y-80754933D02*
X167771428Y-80716838D01*
X168061905Y-80526361D02*
X168366667Y-80526361D01*
X168209524Y-80259695D02*
X168123810Y-80945409D01*
X168123810Y-80945409D02*
X168152381Y-81021600D01*
X168152381Y-81021600D02*
X168223810Y-81059695D01*
X168223810Y-81059695D02*
X168300000Y-81059695D01*
X168876191Y-81021600D02*
X168795238Y-81059695D01*
X168795238Y-81059695D02*
X168642857Y-81059695D01*
X168642857Y-81059695D02*
X168571429Y-81021600D01*
X168571429Y-81021600D02*
X168542857Y-80945409D01*
X168542857Y-80945409D02*
X168580953Y-80640647D01*
X168580953Y-80640647D02*
X168628572Y-80564457D01*
X168628572Y-80564457D02*
X168709524Y-80526361D01*
X168709524Y-80526361D02*
X168861905Y-80526361D01*
X168861905Y-80526361D02*
X168933333Y-80564457D01*
X168933333Y-80564457D02*
X168961905Y-80640647D01*
X168961905Y-80640647D02*
X168952381Y-80716838D01*
X168952381Y-80716838D02*
X168561905Y-80793028D01*
X169252381Y-81059695D02*
X169319047Y-80526361D01*
X169300000Y-80678742D02*
X169347619Y-80602552D01*
X169347619Y-80602552D02*
X169390476Y-80564457D01*
X169390476Y-80564457D02*
X169471428Y-80526361D01*
X169471428Y-80526361D02*
X169547619Y-80526361D01*
X169747619Y-81059695D02*
X169814285Y-80526361D01*
X169847619Y-80259695D02*
X169804762Y-80297790D01*
X169804762Y-80297790D02*
X169838095Y-80335885D01*
X169838095Y-80335885D02*
X169880952Y-80297790D01*
X169880952Y-80297790D02*
X169847619Y-80259695D01*
X169847619Y-80259695D02*
X169838095Y-80335885D01*
X170195237Y-80526361D02*
X170128571Y-81059695D01*
X170185714Y-80602552D02*
X170228571Y-80564457D01*
X170228571Y-80564457D02*
X170309523Y-80526361D01*
X170309523Y-80526361D02*
X170423809Y-80526361D01*
X170423809Y-80526361D02*
X170495237Y-80564457D01*
X170495237Y-80564457D02*
X170523809Y-80640647D01*
X170523809Y-80640647D02*
X170471428Y-81059695D01*
X171261905Y-80526361D02*
X171180952Y-81173980D01*
X171180952Y-81173980D02*
X171133333Y-81250171D01*
X171133333Y-81250171D02*
X171090476Y-81288266D01*
X171090476Y-81288266D02*
X171009524Y-81326361D01*
X171009524Y-81326361D02*
X170895238Y-81326361D01*
X170895238Y-81326361D02*
X170823809Y-81288266D01*
X171200000Y-81021600D02*
X171119047Y-81059695D01*
X171119047Y-81059695D02*
X170966667Y-81059695D01*
X170966667Y-81059695D02*
X170895238Y-81021600D01*
X170895238Y-81021600D02*
X170861905Y-80983504D01*
X170861905Y-80983504D02*
X170833333Y-80907314D01*
X170833333Y-80907314D02*
X170861905Y-80678742D01*
X170861905Y-80678742D02*
X170909524Y-80602552D01*
X170909524Y-80602552D02*
X170952381Y-80564457D01*
X170952381Y-80564457D02*
X171033333Y-80526361D01*
X171033333Y-80526361D02*
X171185714Y-80526361D01*
X171185714Y-80526361D02*
X171257143Y-80564457D01*
X172185715Y-81059695D02*
X172285715Y-80259695D01*
X172285715Y-80259695D02*
X172590477Y-80259695D01*
X172590477Y-80259695D02*
X172661905Y-80297790D01*
X172661905Y-80297790D02*
X172695239Y-80335885D01*
X172695239Y-80335885D02*
X172723810Y-80412076D01*
X172723810Y-80412076D02*
X172709524Y-80526361D01*
X172709524Y-80526361D02*
X172661905Y-80602552D01*
X172661905Y-80602552D02*
X172619048Y-80640647D01*
X172619048Y-80640647D02*
X172538096Y-80678742D01*
X172538096Y-80678742D02*
X172233334Y-80678742D01*
X173238096Y-80259695D02*
X173390477Y-80259695D01*
X173390477Y-80259695D02*
X173461905Y-80297790D01*
X173461905Y-80297790D02*
X173528572Y-80373980D01*
X173528572Y-80373980D02*
X173547620Y-80526361D01*
X173547620Y-80526361D02*
X173514286Y-80793028D01*
X173514286Y-80793028D02*
X173457143Y-80945409D01*
X173457143Y-80945409D02*
X173371429Y-81021600D01*
X173371429Y-81021600D02*
X173290477Y-81059695D01*
X173290477Y-81059695D02*
X173138096Y-81059695D01*
X173138096Y-81059695D02*
X173066667Y-81021600D01*
X173066667Y-81021600D02*
X173000001Y-80945409D01*
X173000001Y-80945409D02*
X172980953Y-80793028D01*
X172980953Y-80793028D02*
X173014286Y-80526361D01*
X173014286Y-80526361D02*
X173071429Y-80373980D01*
X173071429Y-80373980D02*
X173157143Y-80297790D01*
X173157143Y-80297790D02*
X173238096Y-80259695D01*
X173809524Y-80259695D02*
X174266667Y-80259695D01*
X173938096Y-81059695D02*
X174038096Y-80259695D01*
D10*
X153104761Y-34364895D02*
X152723809Y-34364895D01*
X152723809Y-34364895D02*
X152723809Y-33564895D01*
X153371428Y-33945847D02*
X153638094Y-33945847D01*
X153752380Y-34364895D02*
X153371428Y-34364895D01*
X153371428Y-34364895D02*
X153371428Y-33564895D01*
X153371428Y-33564895D02*
X153752380Y-33564895D01*
X154095238Y-34364895D02*
X154095238Y-33564895D01*
X154095238Y-33564895D02*
X154285714Y-33564895D01*
X154285714Y-33564895D02*
X154400000Y-33602990D01*
X154400000Y-33602990D02*
X154476190Y-33679180D01*
X154476190Y-33679180D02*
X154514285Y-33755371D01*
X154514285Y-33755371D02*
X154552381Y-33907752D01*
X154552381Y-33907752D02*
X154552381Y-34022038D01*
X154552381Y-34022038D02*
X154514285Y-34174419D01*
X154514285Y-34174419D02*
X154476190Y-34250609D01*
X154476190Y-34250609D02*
X154400000Y-34326800D01*
X154400000Y-34326800D02*
X154285714Y-34364895D01*
X154285714Y-34364895D02*
X154095238Y-34364895D01*
X155314285Y-34364895D02*
X154857142Y-34364895D01*
X155085714Y-34364895D02*
X155085714Y-33564895D01*
X155085714Y-33564895D02*
X155009523Y-33679180D01*
X155009523Y-33679180D02*
X154933333Y-33755371D01*
X154933333Y-33755371D02*
X154857142Y-33793466D01*
X179285714Y-94214895D02*
X179019047Y-93833942D01*
X178828571Y-94214895D02*
X178828571Y-93414895D01*
X178828571Y-93414895D02*
X179133333Y-93414895D01*
X179133333Y-93414895D02*
X179209523Y-93452990D01*
X179209523Y-93452990D02*
X179247618Y-93491085D01*
X179247618Y-93491085D02*
X179285714Y-93567276D01*
X179285714Y-93567276D02*
X179285714Y-93681561D01*
X179285714Y-93681561D02*
X179247618Y-93757752D01*
X179247618Y-93757752D02*
X179209523Y-93795847D01*
X179209523Y-93795847D02*
X179133333Y-93833942D01*
X179133333Y-93833942D02*
X178828571Y-93833942D01*
X180047618Y-94214895D02*
X179590475Y-94214895D01*
X179819047Y-94214895D02*
X179819047Y-93414895D01*
X179819047Y-93414895D02*
X179742856Y-93529180D01*
X179742856Y-93529180D02*
X179666666Y-93605371D01*
X179666666Y-93605371D02*
X179590475Y-93643466D01*
X180771428Y-93414895D02*
X180390476Y-93414895D01*
X180390476Y-93414895D02*
X180352380Y-93795847D01*
X180352380Y-93795847D02*
X180390476Y-93757752D01*
X180390476Y-93757752D02*
X180466666Y-93719657D01*
X180466666Y-93719657D02*
X180657142Y-93719657D01*
X180657142Y-93719657D02*
X180733333Y-93757752D01*
X180733333Y-93757752D02*
X180771428Y-93795847D01*
X180771428Y-93795847D02*
X180809523Y-93872038D01*
X180809523Y-93872038D02*
X180809523Y-94062514D01*
X180809523Y-94062514D02*
X180771428Y-94138704D01*
X180771428Y-94138704D02*
X180733333Y-94176800D01*
X180733333Y-94176800D02*
X180657142Y-94214895D01*
X180657142Y-94214895D02*
X180466666Y-94214895D01*
X180466666Y-94214895D02*
X180390476Y-94176800D01*
X180390476Y-94176800D02*
X180352380Y-94138704D01*
X149942857Y-95695847D02*
X149676191Y-95695847D01*
X149676191Y-96114895D02*
X149676191Y-95314895D01*
X149676191Y-95314895D02*
X150057143Y-95314895D01*
X150361905Y-96114895D02*
X150361905Y-95314895D01*
X150742857Y-96114895D02*
X150742857Y-95314895D01*
X150742857Y-95314895D02*
X150933333Y-95314895D01*
X150933333Y-95314895D02*
X151047619Y-95352990D01*
X151047619Y-95352990D02*
X151123809Y-95429180D01*
X151123809Y-95429180D02*
X151161904Y-95505371D01*
X151161904Y-95505371D02*
X151200000Y-95657752D01*
X151200000Y-95657752D02*
X151200000Y-95772038D01*
X151200000Y-95772038D02*
X151161904Y-95924419D01*
X151161904Y-95924419D02*
X151123809Y-96000609D01*
X151123809Y-96000609D02*
X151047619Y-96076800D01*
X151047619Y-96076800D02*
X150933333Y-96114895D01*
X150933333Y-96114895D02*
X150742857Y-96114895D01*
X151961904Y-96114895D02*
X151504761Y-96114895D01*
X151733333Y-96114895D02*
X151733333Y-95314895D01*
X151733333Y-95314895D02*
X151657142Y-95429180D01*
X151657142Y-95429180D02*
X151580952Y-95505371D01*
X151580952Y-95505371D02*
X151504761Y-95543466D01*
X184785714Y-68214895D02*
X184519047Y-67833942D01*
X184328571Y-68214895D02*
X184328571Y-67414895D01*
X184328571Y-67414895D02*
X184633333Y-67414895D01*
X184633333Y-67414895D02*
X184709523Y-67452990D01*
X184709523Y-67452990D02*
X184747618Y-67491085D01*
X184747618Y-67491085D02*
X184785714Y-67567276D01*
X184785714Y-67567276D02*
X184785714Y-67681561D01*
X184785714Y-67681561D02*
X184747618Y-67757752D01*
X184747618Y-67757752D02*
X184709523Y-67795847D01*
X184709523Y-67795847D02*
X184633333Y-67833942D01*
X184633333Y-67833942D02*
X184328571Y-67833942D01*
X185547618Y-68214895D02*
X185090475Y-68214895D01*
X185319047Y-68214895D02*
X185319047Y-67414895D01*
X185319047Y-67414895D02*
X185242856Y-67529180D01*
X185242856Y-67529180D02*
X185166666Y-67605371D01*
X185166666Y-67605371D02*
X185090475Y-67643466D01*
X186042857Y-67414895D02*
X186119047Y-67414895D01*
X186119047Y-67414895D02*
X186195238Y-67452990D01*
X186195238Y-67452990D02*
X186233333Y-67491085D01*
X186233333Y-67491085D02*
X186271428Y-67567276D01*
X186271428Y-67567276D02*
X186309523Y-67719657D01*
X186309523Y-67719657D02*
X186309523Y-67910133D01*
X186309523Y-67910133D02*
X186271428Y-68062514D01*
X186271428Y-68062514D02*
X186233333Y-68138704D01*
X186233333Y-68138704D02*
X186195238Y-68176800D01*
X186195238Y-68176800D02*
X186119047Y-68214895D01*
X186119047Y-68214895D02*
X186042857Y-68214895D01*
X186042857Y-68214895D02*
X185966666Y-68176800D01*
X185966666Y-68176800D02*
X185928571Y-68138704D01*
X185928571Y-68138704D02*
X185890476Y-68062514D01*
X185890476Y-68062514D02*
X185852380Y-67910133D01*
X185852380Y-67910133D02*
X185852380Y-67719657D01*
X185852380Y-67719657D02*
X185890476Y-67567276D01*
X185890476Y-67567276D02*
X185928571Y-67491085D01*
X185928571Y-67491085D02*
X185966666Y-67452990D01*
X185966666Y-67452990D02*
X186042857Y-67414895D01*
X172885714Y-76314895D02*
X172619047Y-75933942D01*
X172428571Y-76314895D02*
X172428571Y-75514895D01*
X172428571Y-75514895D02*
X172733333Y-75514895D01*
X172733333Y-75514895D02*
X172809523Y-75552990D01*
X172809523Y-75552990D02*
X172847618Y-75591085D01*
X172847618Y-75591085D02*
X172885714Y-75667276D01*
X172885714Y-75667276D02*
X172885714Y-75781561D01*
X172885714Y-75781561D02*
X172847618Y-75857752D01*
X172847618Y-75857752D02*
X172809523Y-75895847D01*
X172809523Y-75895847D02*
X172733333Y-75933942D01*
X172733333Y-75933942D02*
X172428571Y-75933942D01*
X173647618Y-76314895D02*
X173190475Y-76314895D01*
X173419047Y-76314895D02*
X173419047Y-75514895D01*
X173419047Y-75514895D02*
X173342856Y-75629180D01*
X173342856Y-75629180D02*
X173266666Y-75705371D01*
X173266666Y-75705371D02*
X173190475Y-75743466D01*
X174409523Y-76314895D02*
X173952380Y-76314895D01*
X174180952Y-76314895D02*
X174180952Y-75514895D01*
X174180952Y-75514895D02*
X174104761Y-75629180D01*
X174104761Y-75629180D02*
X174028571Y-75705371D01*
X174028571Y-75705371D02*
X173952380Y-75743466D01*
X168309524Y-52564895D02*
X168309524Y-51764895D01*
X168309524Y-51764895D02*
X168500000Y-51764895D01*
X168500000Y-51764895D02*
X168614286Y-51802990D01*
X168614286Y-51802990D02*
X168690476Y-51879180D01*
X168690476Y-51879180D02*
X168728571Y-51955371D01*
X168728571Y-51955371D02*
X168766667Y-52107752D01*
X168766667Y-52107752D02*
X168766667Y-52222038D01*
X168766667Y-52222038D02*
X168728571Y-52374419D01*
X168728571Y-52374419D02*
X168690476Y-52450609D01*
X168690476Y-52450609D02*
X168614286Y-52526800D01*
X168614286Y-52526800D02*
X168500000Y-52564895D01*
X168500000Y-52564895D02*
X168309524Y-52564895D01*
X169033333Y-51764895D02*
X169528571Y-51764895D01*
X169528571Y-51764895D02*
X169261905Y-52069657D01*
X169261905Y-52069657D02*
X169376190Y-52069657D01*
X169376190Y-52069657D02*
X169452381Y-52107752D01*
X169452381Y-52107752D02*
X169490476Y-52145847D01*
X169490476Y-52145847D02*
X169528571Y-52222038D01*
X169528571Y-52222038D02*
X169528571Y-52412514D01*
X169528571Y-52412514D02*
X169490476Y-52488704D01*
X169490476Y-52488704D02*
X169452381Y-52526800D01*
X169452381Y-52526800D02*
X169376190Y-52564895D01*
X169376190Y-52564895D02*
X169147619Y-52564895D01*
X169147619Y-52564895D02*
X169071428Y-52526800D01*
X169071428Y-52526800D02*
X169033333Y-52488704D01*
X158209524Y-52864895D02*
X158209524Y-52064895D01*
X158209524Y-52064895D02*
X158400000Y-52064895D01*
X158400000Y-52064895D02*
X158514286Y-52102990D01*
X158514286Y-52102990D02*
X158590476Y-52179180D01*
X158590476Y-52179180D02*
X158628571Y-52255371D01*
X158628571Y-52255371D02*
X158666667Y-52407752D01*
X158666667Y-52407752D02*
X158666667Y-52522038D01*
X158666667Y-52522038D02*
X158628571Y-52674419D01*
X158628571Y-52674419D02*
X158590476Y-52750609D01*
X158590476Y-52750609D02*
X158514286Y-52826800D01*
X158514286Y-52826800D02*
X158400000Y-52864895D01*
X158400000Y-52864895D02*
X158209524Y-52864895D01*
X158971428Y-52141085D02*
X159009524Y-52102990D01*
X159009524Y-52102990D02*
X159085714Y-52064895D01*
X159085714Y-52064895D02*
X159276190Y-52064895D01*
X159276190Y-52064895D02*
X159352381Y-52102990D01*
X159352381Y-52102990D02*
X159390476Y-52141085D01*
X159390476Y-52141085D02*
X159428571Y-52217276D01*
X159428571Y-52217276D02*
X159428571Y-52293466D01*
X159428571Y-52293466D02*
X159390476Y-52407752D01*
X159390476Y-52407752D02*
X158933333Y-52864895D01*
X158933333Y-52864895D02*
X159428571Y-52864895D01*
X182216667Y-42488704D02*
X182178571Y-42526800D01*
X182178571Y-42526800D02*
X182064286Y-42564895D01*
X182064286Y-42564895D02*
X181988095Y-42564895D01*
X181988095Y-42564895D02*
X181873809Y-42526800D01*
X181873809Y-42526800D02*
X181797619Y-42450609D01*
X181797619Y-42450609D02*
X181759524Y-42374419D01*
X181759524Y-42374419D02*
X181721428Y-42222038D01*
X181721428Y-42222038D02*
X181721428Y-42107752D01*
X181721428Y-42107752D02*
X181759524Y-41955371D01*
X181759524Y-41955371D02*
X181797619Y-41879180D01*
X181797619Y-41879180D02*
X181873809Y-41802990D01*
X181873809Y-41802990D02*
X181988095Y-41764895D01*
X181988095Y-41764895D02*
X182064286Y-41764895D01*
X182064286Y-41764895D02*
X182178571Y-41802990D01*
X182178571Y-41802990D02*
X182216667Y-41841085D01*
X182978571Y-42564895D02*
X182521428Y-42564895D01*
X182750000Y-42564895D02*
X182750000Y-41764895D01*
X182750000Y-41764895D02*
X182673809Y-41879180D01*
X182673809Y-41879180D02*
X182597619Y-41955371D01*
X182597619Y-41955371D02*
X182521428Y-41993466D01*
X181609524Y-89364895D02*
X181609524Y-88564895D01*
X181609524Y-88564895D02*
X181800000Y-88564895D01*
X181800000Y-88564895D02*
X181914286Y-88602990D01*
X181914286Y-88602990D02*
X181990476Y-88679180D01*
X181990476Y-88679180D02*
X182028571Y-88755371D01*
X182028571Y-88755371D02*
X182066667Y-88907752D01*
X182066667Y-88907752D02*
X182066667Y-89022038D01*
X182066667Y-89022038D02*
X182028571Y-89174419D01*
X182028571Y-89174419D02*
X181990476Y-89250609D01*
X181990476Y-89250609D02*
X181914286Y-89326800D01*
X181914286Y-89326800D02*
X181800000Y-89364895D01*
X181800000Y-89364895D02*
X181609524Y-89364895D01*
X182752381Y-88564895D02*
X182600000Y-88564895D01*
X182600000Y-88564895D02*
X182523809Y-88602990D01*
X182523809Y-88602990D02*
X182485714Y-88641085D01*
X182485714Y-88641085D02*
X182409524Y-88755371D01*
X182409524Y-88755371D02*
X182371428Y-88907752D01*
X182371428Y-88907752D02*
X182371428Y-89212514D01*
X182371428Y-89212514D02*
X182409524Y-89288704D01*
X182409524Y-89288704D02*
X182447619Y-89326800D01*
X182447619Y-89326800D02*
X182523809Y-89364895D01*
X182523809Y-89364895D02*
X182676190Y-89364895D01*
X182676190Y-89364895D02*
X182752381Y-89326800D01*
X182752381Y-89326800D02*
X182790476Y-89288704D01*
X182790476Y-89288704D02*
X182828571Y-89212514D01*
X182828571Y-89212514D02*
X182828571Y-89022038D01*
X182828571Y-89022038D02*
X182790476Y-88945847D01*
X182790476Y-88945847D02*
X182752381Y-88907752D01*
X182752381Y-88907752D02*
X182676190Y-88869657D01*
X182676190Y-88869657D02*
X182523809Y-88869657D01*
X182523809Y-88869657D02*
X182447619Y-88907752D01*
X182447619Y-88907752D02*
X182409524Y-88945847D01*
X182409524Y-88945847D02*
X182371428Y-89022038D01*
X160209524Y-89364895D02*
X160209524Y-88564895D01*
X160209524Y-88564895D02*
X160400000Y-88564895D01*
X160400000Y-88564895D02*
X160514286Y-88602990D01*
X160514286Y-88602990D02*
X160590476Y-88679180D01*
X160590476Y-88679180D02*
X160628571Y-88755371D01*
X160628571Y-88755371D02*
X160666667Y-88907752D01*
X160666667Y-88907752D02*
X160666667Y-89022038D01*
X160666667Y-89022038D02*
X160628571Y-89174419D01*
X160628571Y-89174419D02*
X160590476Y-89250609D01*
X160590476Y-89250609D02*
X160514286Y-89326800D01*
X160514286Y-89326800D02*
X160400000Y-89364895D01*
X160400000Y-89364895D02*
X160209524Y-89364895D01*
X161047619Y-89364895D02*
X161200000Y-89364895D01*
X161200000Y-89364895D02*
X161276190Y-89326800D01*
X161276190Y-89326800D02*
X161314286Y-89288704D01*
X161314286Y-89288704D02*
X161390476Y-89174419D01*
X161390476Y-89174419D02*
X161428571Y-89022038D01*
X161428571Y-89022038D02*
X161428571Y-88717276D01*
X161428571Y-88717276D02*
X161390476Y-88641085D01*
X161390476Y-88641085D02*
X161352381Y-88602990D01*
X161352381Y-88602990D02*
X161276190Y-88564895D01*
X161276190Y-88564895D02*
X161123809Y-88564895D01*
X161123809Y-88564895D02*
X161047619Y-88602990D01*
X161047619Y-88602990D02*
X161009524Y-88641085D01*
X161009524Y-88641085D02*
X160971428Y-88717276D01*
X160971428Y-88717276D02*
X160971428Y-88907752D01*
X160971428Y-88907752D02*
X161009524Y-88983942D01*
X161009524Y-88983942D02*
X161047619Y-89022038D01*
X161047619Y-89022038D02*
X161123809Y-89060133D01*
X161123809Y-89060133D02*
X161276190Y-89060133D01*
X161276190Y-89060133D02*
X161352381Y-89022038D01*
X161352381Y-89022038D02*
X161390476Y-88983942D01*
X161390476Y-88983942D02*
X161428571Y-88907752D01*
X175085714Y-74788704D02*
X175047618Y-74826800D01*
X175047618Y-74826800D02*
X174933333Y-74864895D01*
X174933333Y-74864895D02*
X174857142Y-74864895D01*
X174857142Y-74864895D02*
X174742856Y-74826800D01*
X174742856Y-74826800D02*
X174666666Y-74750609D01*
X174666666Y-74750609D02*
X174628571Y-74674419D01*
X174628571Y-74674419D02*
X174590475Y-74522038D01*
X174590475Y-74522038D02*
X174590475Y-74407752D01*
X174590475Y-74407752D02*
X174628571Y-74255371D01*
X174628571Y-74255371D02*
X174666666Y-74179180D01*
X174666666Y-74179180D02*
X174742856Y-74102990D01*
X174742856Y-74102990D02*
X174857142Y-74064895D01*
X174857142Y-74064895D02*
X174933333Y-74064895D01*
X174933333Y-74064895D02*
X175047618Y-74102990D01*
X175047618Y-74102990D02*
X175085714Y-74141085D01*
X175847618Y-74864895D02*
X175390475Y-74864895D01*
X175619047Y-74864895D02*
X175619047Y-74064895D01*
X175619047Y-74064895D02*
X175542856Y-74179180D01*
X175542856Y-74179180D02*
X175466666Y-74255371D01*
X175466666Y-74255371D02*
X175390475Y-74293466D01*
X176342857Y-74064895D02*
X176419047Y-74064895D01*
X176419047Y-74064895D02*
X176495238Y-74102990D01*
X176495238Y-74102990D02*
X176533333Y-74141085D01*
X176533333Y-74141085D02*
X176571428Y-74217276D01*
X176571428Y-74217276D02*
X176609523Y-74369657D01*
X176609523Y-74369657D02*
X176609523Y-74560133D01*
X176609523Y-74560133D02*
X176571428Y-74712514D01*
X176571428Y-74712514D02*
X176533333Y-74788704D01*
X176533333Y-74788704D02*
X176495238Y-74826800D01*
X176495238Y-74826800D02*
X176419047Y-74864895D01*
X176419047Y-74864895D02*
X176342857Y-74864895D01*
X176342857Y-74864895D02*
X176266666Y-74826800D01*
X176266666Y-74826800D02*
X176228571Y-74788704D01*
X176228571Y-74788704D02*
X176190476Y-74712514D01*
X176190476Y-74712514D02*
X176152380Y-74560133D01*
X176152380Y-74560133D02*
X176152380Y-74369657D01*
X176152380Y-74369657D02*
X176190476Y-74217276D01*
X176190476Y-74217276D02*
X176228571Y-74141085D01*
X176228571Y-74141085D02*
X176266666Y-74102990D01*
X176266666Y-74102990D02*
X176342857Y-74064895D01*
X170116667Y-54838704D02*
X170078571Y-54876800D01*
X170078571Y-54876800D02*
X169964286Y-54914895D01*
X169964286Y-54914895D02*
X169888095Y-54914895D01*
X169888095Y-54914895D02*
X169773809Y-54876800D01*
X169773809Y-54876800D02*
X169697619Y-54800609D01*
X169697619Y-54800609D02*
X169659524Y-54724419D01*
X169659524Y-54724419D02*
X169621428Y-54572038D01*
X169621428Y-54572038D02*
X169621428Y-54457752D01*
X169621428Y-54457752D02*
X169659524Y-54305371D01*
X169659524Y-54305371D02*
X169697619Y-54229180D01*
X169697619Y-54229180D02*
X169773809Y-54152990D01*
X169773809Y-54152990D02*
X169888095Y-54114895D01*
X169888095Y-54114895D02*
X169964286Y-54114895D01*
X169964286Y-54114895D02*
X170078571Y-54152990D01*
X170078571Y-54152990D02*
X170116667Y-54191085D01*
X170802381Y-54114895D02*
X170650000Y-54114895D01*
X170650000Y-54114895D02*
X170573809Y-54152990D01*
X170573809Y-54152990D02*
X170535714Y-54191085D01*
X170535714Y-54191085D02*
X170459524Y-54305371D01*
X170459524Y-54305371D02*
X170421428Y-54457752D01*
X170421428Y-54457752D02*
X170421428Y-54762514D01*
X170421428Y-54762514D02*
X170459524Y-54838704D01*
X170459524Y-54838704D02*
X170497619Y-54876800D01*
X170497619Y-54876800D02*
X170573809Y-54914895D01*
X170573809Y-54914895D02*
X170726190Y-54914895D01*
X170726190Y-54914895D02*
X170802381Y-54876800D01*
X170802381Y-54876800D02*
X170840476Y-54838704D01*
X170840476Y-54838704D02*
X170878571Y-54762514D01*
X170878571Y-54762514D02*
X170878571Y-54572038D01*
X170878571Y-54572038D02*
X170840476Y-54495847D01*
X170840476Y-54495847D02*
X170802381Y-54457752D01*
X170802381Y-54457752D02*
X170726190Y-54419657D01*
X170726190Y-54419657D02*
X170573809Y-54419657D01*
X170573809Y-54419657D02*
X170497619Y-54457752D01*
X170497619Y-54457752D02*
X170459524Y-54495847D01*
X170459524Y-54495847D02*
X170421428Y-54572038D01*
X172828571Y-89314895D02*
X172828571Y-88514895D01*
X172828571Y-88514895D02*
X173019047Y-88514895D01*
X173019047Y-88514895D02*
X173133333Y-88552990D01*
X173133333Y-88552990D02*
X173209523Y-88629180D01*
X173209523Y-88629180D02*
X173247618Y-88705371D01*
X173247618Y-88705371D02*
X173285714Y-88857752D01*
X173285714Y-88857752D02*
X173285714Y-88972038D01*
X173285714Y-88972038D02*
X173247618Y-89124419D01*
X173247618Y-89124419D02*
X173209523Y-89200609D01*
X173209523Y-89200609D02*
X173133333Y-89276800D01*
X173133333Y-89276800D02*
X173019047Y-89314895D01*
X173019047Y-89314895D02*
X172828571Y-89314895D01*
X174047618Y-89314895D02*
X173590475Y-89314895D01*
X173819047Y-89314895D02*
X173819047Y-88514895D01*
X173819047Y-88514895D02*
X173742856Y-88629180D01*
X173742856Y-88629180D02*
X173666666Y-88705371D01*
X173666666Y-88705371D02*
X173590475Y-88743466D01*
X174809523Y-89314895D02*
X174352380Y-89314895D01*
X174580952Y-89314895D02*
X174580952Y-88514895D01*
X174580952Y-88514895D02*
X174504761Y-88629180D01*
X174504761Y-88629180D02*
X174428571Y-88705371D01*
X174428571Y-88705371D02*
X174352380Y-88743466D01*
X166785714Y-90664895D02*
X166519047Y-90283942D01*
X166328571Y-90664895D02*
X166328571Y-89864895D01*
X166328571Y-89864895D02*
X166633333Y-89864895D01*
X166633333Y-89864895D02*
X166709523Y-89902990D01*
X166709523Y-89902990D02*
X166747618Y-89941085D01*
X166747618Y-89941085D02*
X166785714Y-90017276D01*
X166785714Y-90017276D02*
X166785714Y-90131561D01*
X166785714Y-90131561D02*
X166747618Y-90207752D01*
X166747618Y-90207752D02*
X166709523Y-90245847D01*
X166709523Y-90245847D02*
X166633333Y-90283942D01*
X166633333Y-90283942D02*
X166328571Y-90283942D01*
X167547618Y-90664895D02*
X167090475Y-90664895D01*
X167319047Y-90664895D02*
X167319047Y-89864895D01*
X167319047Y-89864895D02*
X167242856Y-89979180D01*
X167242856Y-89979180D02*
X167166666Y-90055371D01*
X167166666Y-90055371D02*
X167090475Y-90093466D01*
X167814285Y-89864895D02*
X168347619Y-89864895D01*
X168347619Y-89864895D02*
X168004761Y-90664895D01*
X152233333Y-47545847D02*
X151966667Y-47545847D01*
X151966667Y-47964895D02*
X151966667Y-47164895D01*
X151966667Y-47164895D02*
X152347619Y-47164895D01*
X153071428Y-47964895D02*
X152614285Y-47964895D01*
X152842857Y-47964895D02*
X152842857Y-47164895D01*
X152842857Y-47164895D02*
X152766666Y-47279180D01*
X152766666Y-47279180D02*
X152690476Y-47355371D01*
X152690476Y-47355371D02*
X152614285Y-47393466D01*
X150685713Y-75426800D02*
X150799999Y-75464895D01*
X150799999Y-75464895D02*
X150990475Y-75464895D01*
X150990475Y-75464895D02*
X151066666Y-75426800D01*
X151066666Y-75426800D02*
X151104761Y-75388704D01*
X151104761Y-75388704D02*
X151142856Y-75312514D01*
X151142856Y-75312514D02*
X151142856Y-75236323D01*
X151142856Y-75236323D02*
X151104761Y-75160133D01*
X151104761Y-75160133D02*
X151066666Y-75122038D01*
X151066666Y-75122038D02*
X150990475Y-75083942D01*
X150990475Y-75083942D02*
X150838094Y-75045847D01*
X150838094Y-75045847D02*
X150761904Y-75007752D01*
X150761904Y-75007752D02*
X150723809Y-74969657D01*
X150723809Y-74969657D02*
X150685713Y-74893466D01*
X150685713Y-74893466D02*
X150685713Y-74817276D01*
X150685713Y-74817276D02*
X150723809Y-74741085D01*
X150723809Y-74741085D02*
X150761904Y-74702990D01*
X150761904Y-74702990D02*
X150838094Y-74664895D01*
X150838094Y-74664895D02*
X151028571Y-74664895D01*
X151028571Y-74664895D02*
X151142856Y-74702990D01*
X151371428Y-74664895D02*
X151828571Y-74664895D01*
X151599999Y-75464895D02*
X151599999Y-74664895D01*
X152476190Y-75464895D02*
X152095238Y-75464895D01*
X152095238Y-75464895D02*
X152095238Y-74664895D01*
X152742857Y-75464895D02*
X152742857Y-74931561D01*
X152742857Y-74664895D02*
X152704761Y-74702990D01*
X152704761Y-74702990D02*
X152742857Y-74741085D01*
X152742857Y-74741085D02*
X152780952Y-74702990D01*
X152780952Y-74702990D02*
X152742857Y-74664895D01*
X152742857Y-74664895D02*
X152742857Y-74741085D01*
X153123809Y-74931561D02*
X153123809Y-75464895D01*
X153123809Y-75007752D02*
X153161904Y-74969657D01*
X153161904Y-74969657D02*
X153238094Y-74931561D01*
X153238094Y-74931561D02*
X153352380Y-74931561D01*
X153352380Y-74931561D02*
X153428571Y-74969657D01*
X153428571Y-74969657D02*
X153466666Y-75045847D01*
X153466666Y-75045847D02*
X153466666Y-75464895D01*
X153847619Y-75464895D02*
X153847619Y-74664895D01*
X153923809Y-75160133D02*
X154152381Y-75464895D01*
X154152381Y-74931561D02*
X153847619Y-75236323D01*
X154914285Y-75464895D02*
X154457142Y-75464895D01*
X154685714Y-75464895D02*
X154685714Y-74664895D01*
X154685714Y-74664895D02*
X154609523Y-74779180D01*
X154609523Y-74779180D02*
X154533333Y-74855371D01*
X154533333Y-74855371D02*
X154457142Y-74893466D01*
X193066667Y-52214895D02*
X192800000Y-51833942D01*
X192609524Y-52214895D02*
X192609524Y-51414895D01*
X192609524Y-51414895D02*
X192914286Y-51414895D01*
X192914286Y-51414895D02*
X192990476Y-51452990D01*
X192990476Y-51452990D02*
X193028571Y-51491085D01*
X193028571Y-51491085D02*
X193066667Y-51567276D01*
X193066667Y-51567276D02*
X193066667Y-51681561D01*
X193066667Y-51681561D02*
X193028571Y-51757752D01*
X193028571Y-51757752D02*
X192990476Y-51795847D01*
X192990476Y-51795847D02*
X192914286Y-51833942D01*
X192914286Y-51833942D02*
X192609524Y-51833942D01*
X193447619Y-52214895D02*
X193600000Y-52214895D01*
X193600000Y-52214895D02*
X193676190Y-52176800D01*
X193676190Y-52176800D02*
X193714286Y-52138704D01*
X193714286Y-52138704D02*
X193790476Y-52024419D01*
X193790476Y-52024419D02*
X193828571Y-51872038D01*
X193828571Y-51872038D02*
X193828571Y-51567276D01*
X193828571Y-51567276D02*
X193790476Y-51491085D01*
X193790476Y-51491085D02*
X193752381Y-51452990D01*
X193752381Y-51452990D02*
X193676190Y-51414895D01*
X193676190Y-51414895D02*
X193523809Y-51414895D01*
X193523809Y-51414895D02*
X193447619Y-51452990D01*
X193447619Y-51452990D02*
X193409524Y-51491085D01*
X193409524Y-51491085D02*
X193371428Y-51567276D01*
X193371428Y-51567276D02*
X193371428Y-51757752D01*
X193371428Y-51757752D02*
X193409524Y-51833942D01*
X193409524Y-51833942D02*
X193447619Y-51872038D01*
X193447619Y-51872038D02*
X193523809Y-51910133D01*
X193523809Y-51910133D02*
X193676190Y-51910133D01*
X193676190Y-51910133D02*
X193752381Y-51872038D01*
X193752381Y-51872038D02*
X193790476Y-51833942D01*
X193790476Y-51833942D02*
X193828571Y-51757752D01*
X184979167Y-66063704D02*
X184941071Y-66101800D01*
X184941071Y-66101800D02*
X184826786Y-66139895D01*
X184826786Y-66139895D02*
X184750595Y-66139895D01*
X184750595Y-66139895D02*
X184636309Y-66101800D01*
X184636309Y-66101800D02*
X184560119Y-66025609D01*
X184560119Y-66025609D02*
X184522024Y-65949419D01*
X184522024Y-65949419D02*
X184483928Y-65797038D01*
X184483928Y-65797038D02*
X184483928Y-65682752D01*
X184483928Y-65682752D02*
X184522024Y-65530371D01*
X184522024Y-65530371D02*
X184560119Y-65454180D01*
X184560119Y-65454180D02*
X184636309Y-65377990D01*
X184636309Y-65377990D02*
X184750595Y-65339895D01*
X184750595Y-65339895D02*
X184826786Y-65339895D01*
X184826786Y-65339895D02*
X184941071Y-65377990D01*
X184941071Y-65377990D02*
X184979167Y-65416085D01*
X185664881Y-65606561D02*
X185664881Y-66139895D01*
X185474405Y-65301800D02*
X185283928Y-65873228D01*
X185283928Y-65873228D02*
X185779167Y-65873228D01*
X185998214Y-63913704D02*
X185960118Y-63951800D01*
X185960118Y-63951800D02*
X185845833Y-63989895D01*
X185845833Y-63989895D02*
X185769642Y-63989895D01*
X185769642Y-63989895D02*
X185655356Y-63951800D01*
X185655356Y-63951800D02*
X185579166Y-63875609D01*
X185579166Y-63875609D02*
X185541071Y-63799419D01*
X185541071Y-63799419D02*
X185502975Y-63647038D01*
X185502975Y-63647038D02*
X185502975Y-63532752D01*
X185502975Y-63532752D02*
X185541071Y-63380371D01*
X185541071Y-63380371D02*
X185579166Y-63304180D01*
X185579166Y-63304180D02*
X185655356Y-63227990D01*
X185655356Y-63227990D02*
X185769642Y-63189895D01*
X185769642Y-63189895D02*
X185845833Y-63189895D01*
X185845833Y-63189895D02*
X185960118Y-63227990D01*
X185960118Y-63227990D02*
X185998214Y-63266085D01*
X186760118Y-63989895D02*
X186302975Y-63989895D01*
X186531547Y-63989895D02*
X186531547Y-63189895D01*
X186531547Y-63189895D02*
X186455356Y-63304180D01*
X186455356Y-63304180D02*
X186379166Y-63380371D01*
X186379166Y-63380371D02*
X186302975Y-63418466D01*
X187064880Y-63266085D02*
X187102976Y-63227990D01*
X187102976Y-63227990D02*
X187179166Y-63189895D01*
X187179166Y-63189895D02*
X187369642Y-63189895D01*
X187369642Y-63189895D02*
X187445833Y-63227990D01*
X187445833Y-63227990D02*
X187483928Y-63266085D01*
X187483928Y-63266085D02*
X187522023Y-63342276D01*
X187522023Y-63342276D02*
X187522023Y-63418466D01*
X187522023Y-63418466D02*
X187483928Y-63532752D01*
X187483928Y-63532752D02*
X187026785Y-63989895D01*
X187026785Y-63989895D02*
X187522023Y-63989895D01*
X180517857Y-70445847D02*
X180251191Y-70445847D01*
X180251191Y-70864895D02*
X180251191Y-70064895D01*
X180251191Y-70064895D02*
X180632143Y-70064895D01*
X180936905Y-70864895D02*
X180936905Y-70064895D01*
X181317857Y-70864895D02*
X181317857Y-70064895D01*
X181317857Y-70064895D02*
X181508333Y-70064895D01*
X181508333Y-70064895D02*
X181622619Y-70102990D01*
X181622619Y-70102990D02*
X181698809Y-70179180D01*
X181698809Y-70179180D02*
X181736904Y-70255371D01*
X181736904Y-70255371D02*
X181775000Y-70407752D01*
X181775000Y-70407752D02*
X181775000Y-70522038D01*
X181775000Y-70522038D02*
X181736904Y-70674419D01*
X181736904Y-70674419D02*
X181698809Y-70750609D01*
X181698809Y-70750609D02*
X181622619Y-70826800D01*
X181622619Y-70826800D02*
X181508333Y-70864895D01*
X181508333Y-70864895D02*
X181317857Y-70864895D01*
X182498809Y-70064895D02*
X182117857Y-70064895D01*
X182117857Y-70064895D02*
X182079761Y-70445847D01*
X182079761Y-70445847D02*
X182117857Y-70407752D01*
X182117857Y-70407752D02*
X182194047Y-70369657D01*
X182194047Y-70369657D02*
X182384523Y-70369657D01*
X182384523Y-70369657D02*
X182460714Y-70407752D01*
X182460714Y-70407752D02*
X182498809Y-70445847D01*
X182498809Y-70445847D02*
X182536904Y-70522038D01*
X182536904Y-70522038D02*
X182536904Y-70712514D01*
X182536904Y-70712514D02*
X182498809Y-70788704D01*
X182498809Y-70788704D02*
X182460714Y-70826800D01*
X182460714Y-70826800D02*
X182384523Y-70864895D01*
X182384523Y-70864895D02*
X182194047Y-70864895D01*
X182194047Y-70864895D02*
X182117857Y-70826800D01*
X182117857Y-70826800D02*
X182079761Y-70788704D01*
X197114895Y-36033332D02*
X196733942Y-36299999D01*
X197114895Y-36490475D02*
X196314895Y-36490475D01*
X196314895Y-36490475D02*
X196314895Y-36185713D01*
X196314895Y-36185713D02*
X196352990Y-36109523D01*
X196352990Y-36109523D02*
X196391085Y-36071428D01*
X196391085Y-36071428D02*
X196467276Y-36033332D01*
X196467276Y-36033332D02*
X196581561Y-36033332D01*
X196581561Y-36033332D02*
X196657752Y-36071428D01*
X196657752Y-36071428D02*
X196695847Y-36109523D01*
X196695847Y-36109523D02*
X196733942Y-36185713D01*
X196733942Y-36185713D02*
X196733942Y-36490475D01*
X196314895Y-35347618D02*
X196314895Y-35499999D01*
X196314895Y-35499999D02*
X196352990Y-35576190D01*
X196352990Y-35576190D02*
X196391085Y-35614285D01*
X196391085Y-35614285D02*
X196505371Y-35690475D01*
X196505371Y-35690475D02*
X196657752Y-35728571D01*
X196657752Y-35728571D02*
X196962514Y-35728571D01*
X196962514Y-35728571D02*
X197038704Y-35690475D01*
X197038704Y-35690475D02*
X197076800Y-35652380D01*
X197076800Y-35652380D02*
X197114895Y-35576190D01*
X197114895Y-35576190D02*
X197114895Y-35423809D01*
X197114895Y-35423809D02*
X197076800Y-35347618D01*
X197076800Y-35347618D02*
X197038704Y-35309523D01*
X197038704Y-35309523D02*
X196962514Y-35271428D01*
X196962514Y-35271428D02*
X196772038Y-35271428D01*
X196772038Y-35271428D02*
X196695847Y-35309523D01*
X196695847Y-35309523D02*
X196657752Y-35347618D01*
X196657752Y-35347618D02*
X196619657Y-35423809D01*
X196619657Y-35423809D02*
X196619657Y-35576190D01*
X196619657Y-35576190D02*
X196657752Y-35652380D01*
X196657752Y-35652380D02*
X196695847Y-35690475D01*
X196695847Y-35690475D02*
X196772038Y-35728571D01*
X188985714Y-86988704D02*
X188947618Y-87026800D01*
X188947618Y-87026800D02*
X188833333Y-87064895D01*
X188833333Y-87064895D02*
X188757142Y-87064895D01*
X188757142Y-87064895D02*
X188642856Y-87026800D01*
X188642856Y-87026800D02*
X188566666Y-86950609D01*
X188566666Y-86950609D02*
X188528571Y-86874419D01*
X188528571Y-86874419D02*
X188490475Y-86722038D01*
X188490475Y-86722038D02*
X188490475Y-86607752D01*
X188490475Y-86607752D02*
X188528571Y-86455371D01*
X188528571Y-86455371D02*
X188566666Y-86379180D01*
X188566666Y-86379180D02*
X188642856Y-86302990D01*
X188642856Y-86302990D02*
X188757142Y-86264895D01*
X188757142Y-86264895D02*
X188833333Y-86264895D01*
X188833333Y-86264895D02*
X188947618Y-86302990D01*
X188947618Y-86302990D02*
X188985714Y-86341085D01*
X189747618Y-87064895D02*
X189290475Y-87064895D01*
X189519047Y-87064895D02*
X189519047Y-86264895D01*
X189519047Y-86264895D02*
X189442856Y-86379180D01*
X189442856Y-86379180D02*
X189366666Y-86455371D01*
X189366666Y-86455371D02*
X189290475Y-86493466D01*
X190433333Y-86531561D02*
X190433333Y-87064895D01*
X190242857Y-86226800D02*
X190052380Y-86798228D01*
X190052380Y-86798228D02*
X190547619Y-86798228D01*
X168590476Y-48864895D02*
X168590476Y-49512514D01*
X168590476Y-49512514D02*
X168628571Y-49588704D01*
X168628571Y-49588704D02*
X168666666Y-49626800D01*
X168666666Y-49626800D02*
X168742857Y-49664895D01*
X168742857Y-49664895D02*
X168895238Y-49664895D01*
X168895238Y-49664895D02*
X168971428Y-49626800D01*
X168971428Y-49626800D02*
X169009523Y-49588704D01*
X169009523Y-49588704D02*
X169047619Y-49512514D01*
X169047619Y-49512514D02*
X169047619Y-48864895D01*
X169847618Y-49664895D02*
X169390475Y-49664895D01*
X169619047Y-49664895D02*
X169619047Y-48864895D01*
X169619047Y-48864895D02*
X169542856Y-48979180D01*
X169542856Y-48979180D02*
X169466666Y-49055371D01*
X169466666Y-49055371D02*
X169390475Y-49093466D01*
X185359524Y-89314895D02*
X185359524Y-88514895D01*
X185359524Y-88514895D02*
X185550000Y-88514895D01*
X185550000Y-88514895D02*
X185664286Y-88552990D01*
X185664286Y-88552990D02*
X185740476Y-88629180D01*
X185740476Y-88629180D02*
X185778571Y-88705371D01*
X185778571Y-88705371D02*
X185816667Y-88857752D01*
X185816667Y-88857752D02*
X185816667Y-88972038D01*
X185816667Y-88972038D02*
X185778571Y-89124419D01*
X185778571Y-89124419D02*
X185740476Y-89200609D01*
X185740476Y-89200609D02*
X185664286Y-89276800D01*
X185664286Y-89276800D02*
X185550000Y-89314895D01*
X185550000Y-89314895D02*
X185359524Y-89314895D01*
X186083333Y-88514895D02*
X186616667Y-88514895D01*
X186616667Y-88514895D02*
X186273809Y-89314895D01*
X184898214Y-60613704D02*
X184860118Y-60651800D01*
X184860118Y-60651800D02*
X184745833Y-60689895D01*
X184745833Y-60689895D02*
X184669642Y-60689895D01*
X184669642Y-60689895D02*
X184555356Y-60651800D01*
X184555356Y-60651800D02*
X184479166Y-60575609D01*
X184479166Y-60575609D02*
X184441071Y-60499419D01*
X184441071Y-60499419D02*
X184402975Y-60347038D01*
X184402975Y-60347038D02*
X184402975Y-60232752D01*
X184402975Y-60232752D02*
X184441071Y-60080371D01*
X184441071Y-60080371D02*
X184479166Y-60004180D01*
X184479166Y-60004180D02*
X184555356Y-59927990D01*
X184555356Y-59927990D02*
X184669642Y-59889895D01*
X184669642Y-59889895D02*
X184745833Y-59889895D01*
X184745833Y-59889895D02*
X184860118Y-59927990D01*
X184860118Y-59927990D02*
X184898214Y-59966085D01*
X185660118Y-60689895D02*
X185202975Y-60689895D01*
X185431547Y-60689895D02*
X185431547Y-59889895D01*
X185431547Y-59889895D02*
X185355356Y-60004180D01*
X185355356Y-60004180D02*
X185279166Y-60080371D01*
X185279166Y-60080371D02*
X185202975Y-60118466D01*
X185926785Y-59889895D02*
X186422023Y-59889895D01*
X186422023Y-59889895D02*
X186155357Y-60194657D01*
X186155357Y-60194657D02*
X186269642Y-60194657D01*
X186269642Y-60194657D02*
X186345833Y-60232752D01*
X186345833Y-60232752D02*
X186383928Y-60270847D01*
X186383928Y-60270847D02*
X186422023Y-60347038D01*
X186422023Y-60347038D02*
X186422023Y-60537514D01*
X186422023Y-60537514D02*
X186383928Y-60613704D01*
X186383928Y-60613704D02*
X186345833Y-60651800D01*
X186345833Y-60651800D02*
X186269642Y-60689895D01*
X186269642Y-60689895D02*
X186041071Y-60689895D01*
X186041071Y-60689895D02*
X185964880Y-60651800D01*
X185964880Y-60651800D02*
X185926785Y-60613704D01*
X197214895Y-38233332D02*
X196833942Y-38499999D01*
X197214895Y-38690475D02*
X196414895Y-38690475D01*
X196414895Y-38690475D02*
X196414895Y-38385713D01*
X196414895Y-38385713D02*
X196452990Y-38309523D01*
X196452990Y-38309523D02*
X196491085Y-38271428D01*
X196491085Y-38271428D02*
X196567276Y-38233332D01*
X196567276Y-38233332D02*
X196681561Y-38233332D01*
X196681561Y-38233332D02*
X196757752Y-38271428D01*
X196757752Y-38271428D02*
X196795847Y-38309523D01*
X196795847Y-38309523D02*
X196833942Y-38385713D01*
X196833942Y-38385713D02*
X196833942Y-38690475D01*
X196757752Y-37776190D02*
X196719657Y-37852380D01*
X196719657Y-37852380D02*
X196681561Y-37890475D01*
X196681561Y-37890475D02*
X196605371Y-37928571D01*
X196605371Y-37928571D02*
X196567276Y-37928571D01*
X196567276Y-37928571D02*
X196491085Y-37890475D01*
X196491085Y-37890475D02*
X196452990Y-37852380D01*
X196452990Y-37852380D02*
X196414895Y-37776190D01*
X196414895Y-37776190D02*
X196414895Y-37623809D01*
X196414895Y-37623809D02*
X196452990Y-37547618D01*
X196452990Y-37547618D02*
X196491085Y-37509523D01*
X196491085Y-37509523D02*
X196567276Y-37471428D01*
X196567276Y-37471428D02*
X196605371Y-37471428D01*
X196605371Y-37471428D02*
X196681561Y-37509523D01*
X196681561Y-37509523D02*
X196719657Y-37547618D01*
X196719657Y-37547618D02*
X196757752Y-37623809D01*
X196757752Y-37623809D02*
X196757752Y-37776190D01*
X196757752Y-37776190D02*
X196795847Y-37852380D01*
X196795847Y-37852380D02*
X196833942Y-37890475D01*
X196833942Y-37890475D02*
X196910133Y-37928571D01*
X196910133Y-37928571D02*
X197062514Y-37928571D01*
X197062514Y-37928571D02*
X197138704Y-37890475D01*
X197138704Y-37890475D02*
X197176800Y-37852380D01*
X197176800Y-37852380D02*
X197214895Y-37776190D01*
X197214895Y-37776190D02*
X197214895Y-37623809D01*
X197214895Y-37623809D02*
X197176800Y-37547618D01*
X197176800Y-37547618D02*
X197138704Y-37509523D01*
X197138704Y-37509523D02*
X197062514Y-37471428D01*
X197062514Y-37471428D02*
X196910133Y-37471428D01*
X196910133Y-37471428D02*
X196833942Y-37509523D01*
X196833942Y-37509523D02*
X196795847Y-37547618D01*
X196795847Y-37547618D02*
X196757752Y-37623809D01*
X180966667Y-47588704D02*
X180928571Y-47626800D01*
X180928571Y-47626800D02*
X180814286Y-47664895D01*
X180814286Y-47664895D02*
X180738095Y-47664895D01*
X180738095Y-47664895D02*
X180623809Y-47626800D01*
X180623809Y-47626800D02*
X180547619Y-47550609D01*
X180547619Y-47550609D02*
X180509524Y-47474419D01*
X180509524Y-47474419D02*
X180471428Y-47322038D01*
X180471428Y-47322038D02*
X180471428Y-47207752D01*
X180471428Y-47207752D02*
X180509524Y-47055371D01*
X180509524Y-47055371D02*
X180547619Y-46979180D01*
X180547619Y-46979180D02*
X180623809Y-46902990D01*
X180623809Y-46902990D02*
X180738095Y-46864895D01*
X180738095Y-46864895D02*
X180814286Y-46864895D01*
X180814286Y-46864895D02*
X180928571Y-46902990D01*
X180928571Y-46902990D02*
X180966667Y-46941085D01*
X181690476Y-46864895D02*
X181309524Y-46864895D01*
X181309524Y-46864895D02*
X181271428Y-47245847D01*
X181271428Y-47245847D02*
X181309524Y-47207752D01*
X181309524Y-47207752D02*
X181385714Y-47169657D01*
X181385714Y-47169657D02*
X181576190Y-47169657D01*
X181576190Y-47169657D02*
X181652381Y-47207752D01*
X181652381Y-47207752D02*
X181690476Y-47245847D01*
X181690476Y-47245847D02*
X181728571Y-47322038D01*
X181728571Y-47322038D02*
X181728571Y-47512514D01*
X181728571Y-47512514D02*
X181690476Y-47588704D01*
X181690476Y-47588704D02*
X181652381Y-47626800D01*
X181652381Y-47626800D02*
X181576190Y-47664895D01*
X181576190Y-47664895D02*
X181385714Y-47664895D01*
X181385714Y-47664895D02*
X181309524Y-47626800D01*
X181309524Y-47626800D02*
X181271428Y-47588704D01*
X192035714Y-90414895D02*
X191769047Y-90033942D01*
X191578571Y-90414895D02*
X191578571Y-89614895D01*
X191578571Y-89614895D02*
X191883333Y-89614895D01*
X191883333Y-89614895D02*
X191959523Y-89652990D01*
X191959523Y-89652990D02*
X191997618Y-89691085D01*
X191997618Y-89691085D02*
X192035714Y-89767276D01*
X192035714Y-89767276D02*
X192035714Y-89881561D01*
X192035714Y-89881561D02*
X191997618Y-89957752D01*
X191997618Y-89957752D02*
X191959523Y-89995847D01*
X191959523Y-89995847D02*
X191883333Y-90033942D01*
X191883333Y-90033942D02*
X191578571Y-90033942D01*
X192797618Y-90414895D02*
X192340475Y-90414895D01*
X192569047Y-90414895D02*
X192569047Y-89614895D01*
X192569047Y-89614895D02*
X192492856Y-89729180D01*
X192492856Y-89729180D02*
X192416666Y-89805371D01*
X192416666Y-89805371D02*
X192340475Y-89843466D01*
X193483333Y-89614895D02*
X193330952Y-89614895D01*
X193330952Y-89614895D02*
X193254761Y-89652990D01*
X193254761Y-89652990D02*
X193216666Y-89691085D01*
X193216666Y-89691085D02*
X193140476Y-89805371D01*
X193140476Y-89805371D02*
X193102380Y-89957752D01*
X193102380Y-89957752D02*
X193102380Y-90262514D01*
X193102380Y-90262514D02*
X193140476Y-90338704D01*
X193140476Y-90338704D02*
X193178571Y-90376800D01*
X193178571Y-90376800D02*
X193254761Y-90414895D01*
X193254761Y-90414895D02*
X193407142Y-90414895D01*
X193407142Y-90414895D02*
X193483333Y-90376800D01*
X193483333Y-90376800D02*
X193521428Y-90338704D01*
X193521428Y-90338704D02*
X193559523Y-90262514D01*
X193559523Y-90262514D02*
X193559523Y-90072038D01*
X193559523Y-90072038D02*
X193521428Y-89995847D01*
X193521428Y-89995847D02*
X193483333Y-89957752D01*
X193483333Y-89957752D02*
X193407142Y-89919657D01*
X193407142Y-89919657D02*
X193254761Y-89919657D01*
X193254761Y-89919657D02*
X193178571Y-89957752D01*
X193178571Y-89957752D02*
X193140476Y-89995847D01*
X193140476Y-89995847D02*
X193102380Y-90072038D01*
X164463704Y-66783332D02*
X164501800Y-66821428D01*
X164501800Y-66821428D02*
X164539895Y-66935713D01*
X164539895Y-66935713D02*
X164539895Y-67011904D01*
X164539895Y-67011904D02*
X164501800Y-67126190D01*
X164501800Y-67126190D02*
X164425609Y-67202380D01*
X164425609Y-67202380D02*
X164349419Y-67240475D01*
X164349419Y-67240475D02*
X164197038Y-67278571D01*
X164197038Y-67278571D02*
X164082752Y-67278571D01*
X164082752Y-67278571D02*
X163930371Y-67240475D01*
X163930371Y-67240475D02*
X163854180Y-67202380D01*
X163854180Y-67202380D02*
X163777990Y-67126190D01*
X163777990Y-67126190D02*
X163739895Y-67011904D01*
X163739895Y-67011904D02*
X163739895Y-66935713D01*
X163739895Y-66935713D02*
X163777990Y-66821428D01*
X163777990Y-66821428D02*
X163816085Y-66783332D01*
X164082752Y-66326190D02*
X164044657Y-66402380D01*
X164044657Y-66402380D02*
X164006561Y-66440475D01*
X164006561Y-66440475D02*
X163930371Y-66478571D01*
X163930371Y-66478571D02*
X163892276Y-66478571D01*
X163892276Y-66478571D02*
X163816085Y-66440475D01*
X163816085Y-66440475D02*
X163777990Y-66402380D01*
X163777990Y-66402380D02*
X163739895Y-66326190D01*
X163739895Y-66326190D02*
X163739895Y-66173809D01*
X163739895Y-66173809D02*
X163777990Y-66097618D01*
X163777990Y-66097618D02*
X163816085Y-66059523D01*
X163816085Y-66059523D02*
X163892276Y-66021428D01*
X163892276Y-66021428D02*
X163930371Y-66021428D01*
X163930371Y-66021428D02*
X164006561Y-66059523D01*
X164006561Y-66059523D02*
X164044657Y-66097618D01*
X164044657Y-66097618D02*
X164082752Y-66173809D01*
X164082752Y-66173809D02*
X164082752Y-66326190D01*
X164082752Y-66326190D02*
X164120847Y-66402380D01*
X164120847Y-66402380D02*
X164158942Y-66440475D01*
X164158942Y-66440475D02*
X164235133Y-66478571D01*
X164235133Y-66478571D02*
X164387514Y-66478571D01*
X164387514Y-66478571D02*
X164463704Y-66440475D01*
X164463704Y-66440475D02*
X164501800Y-66402380D01*
X164501800Y-66402380D02*
X164539895Y-66326190D01*
X164539895Y-66326190D02*
X164539895Y-66173809D01*
X164539895Y-66173809D02*
X164501800Y-66097618D01*
X164501800Y-66097618D02*
X164463704Y-66059523D01*
X164463704Y-66059523D02*
X164387514Y-66021428D01*
X164387514Y-66021428D02*
X164235133Y-66021428D01*
X164235133Y-66021428D02*
X164158942Y-66059523D01*
X164158942Y-66059523D02*
X164120847Y-66097618D01*
X164120847Y-66097618D02*
X164082752Y-66173809D01*
X152435714Y-44314895D02*
X152169047Y-43933942D01*
X151978571Y-44314895D02*
X151978571Y-43514895D01*
X151978571Y-43514895D02*
X152283333Y-43514895D01*
X152283333Y-43514895D02*
X152359523Y-43552990D01*
X152359523Y-43552990D02*
X152397618Y-43591085D01*
X152397618Y-43591085D02*
X152435714Y-43667276D01*
X152435714Y-43667276D02*
X152435714Y-43781561D01*
X152435714Y-43781561D02*
X152397618Y-43857752D01*
X152397618Y-43857752D02*
X152359523Y-43895847D01*
X152359523Y-43895847D02*
X152283333Y-43933942D01*
X152283333Y-43933942D02*
X151978571Y-43933942D01*
X153197618Y-44314895D02*
X152740475Y-44314895D01*
X152969047Y-44314895D02*
X152969047Y-43514895D01*
X152969047Y-43514895D02*
X152892856Y-43629180D01*
X152892856Y-43629180D02*
X152816666Y-43705371D01*
X152816666Y-43705371D02*
X152740475Y-43743466D01*
X153502380Y-43591085D02*
X153540476Y-43552990D01*
X153540476Y-43552990D02*
X153616666Y-43514895D01*
X153616666Y-43514895D02*
X153807142Y-43514895D01*
X153807142Y-43514895D02*
X153883333Y-43552990D01*
X153883333Y-43552990D02*
X153921428Y-43591085D01*
X153921428Y-43591085D02*
X153959523Y-43667276D01*
X153959523Y-43667276D02*
X153959523Y-43743466D01*
X153959523Y-43743466D02*
X153921428Y-43857752D01*
X153921428Y-43857752D02*
X153464285Y-44314895D01*
X153464285Y-44314895D02*
X153959523Y-44314895D01*
X168326800Y-101866667D02*
X168364895Y-101752381D01*
X168364895Y-101752381D02*
X168364895Y-101561905D01*
X168364895Y-101561905D02*
X168326800Y-101485714D01*
X168326800Y-101485714D02*
X168288704Y-101447619D01*
X168288704Y-101447619D02*
X168212514Y-101409524D01*
X168212514Y-101409524D02*
X168136323Y-101409524D01*
X168136323Y-101409524D02*
X168060133Y-101447619D01*
X168060133Y-101447619D02*
X168022038Y-101485714D01*
X168022038Y-101485714D02*
X167983942Y-101561905D01*
X167983942Y-101561905D02*
X167945847Y-101714286D01*
X167945847Y-101714286D02*
X167907752Y-101790476D01*
X167907752Y-101790476D02*
X167869657Y-101828571D01*
X167869657Y-101828571D02*
X167793466Y-101866667D01*
X167793466Y-101866667D02*
X167717276Y-101866667D01*
X167717276Y-101866667D02*
X167641085Y-101828571D01*
X167641085Y-101828571D02*
X167602990Y-101790476D01*
X167602990Y-101790476D02*
X167564895Y-101714286D01*
X167564895Y-101714286D02*
X167564895Y-101523809D01*
X167564895Y-101523809D02*
X167602990Y-101409524D01*
X167564895Y-101142857D02*
X168364895Y-100952381D01*
X168364895Y-100952381D02*
X167793466Y-100800000D01*
X167793466Y-100800000D02*
X168364895Y-100647619D01*
X168364895Y-100647619D02*
X167564895Y-100457143D01*
X167641085Y-100190476D02*
X167602990Y-100152380D01*
X167602990Y-100152380D02*
X167564895Y-100076190D01*
X167564895Y-100076190D02*
X167564895Y-99885714D01*
X167564895Y-99885714D02*
X167602990Y-99809523D01*
X167602990Y-99809523D02*
X167641085Y-99771428D01*
X167641085Y-99771428D02*
X167717276Y-99733333D01*
X167717276Y-99733333D02*
X167793466Y-99733333D01*
X167793466Y-99733333D02*
X167907752Y-99771428D01*
X167907752Y-99771428D02*
X168364895Y-100228571D01*
X168364895Y-100228571D02*
X168364895Y-99733333D01*
X167966667Y-54888704D02*
X167928571Y-54926800D01*
X167928571Y-54926800D02*
X167814286Y-54964895D01*
X167814286Y-54964895D02*
X167738095Y-54964895D01*
X167738095Y-54964895D02*
X167623809Y-54926800D01*
X167623809Y-54926800D02*
X167547619Y-54850609D01*
X167547619Y-54850609D02*
X167509524Y-54774419D01*
X167509524Y-54774419D02*
X167471428Y-54622038D01*
X167471428Y-54622038D02*
X167471428Y-54507752D01*
X167471428Y-54507752D02*
X167509524Y-54355371D01*
X167509524Y-54355371D02*
X167547619Y-54279180D01*
X167547619Y-54279180D02*
X167623809Y-54202990D01*
X167623809Y-54202990D02*
X167738095Y-54164895D01*
X167738095Y-54164895D02*
X167814286Y-54164895D01*
X167814286Y-54164895D02*
X167928571Y-54202990D01*
X167928571Y-54202990D02*
X167966667Y-54241085D01*
X168233333Y-54164895D02*
X168766667Y-54164895D01*
X168766667Y-54164895D02*
X168423809Y-54964895D01*
X176385714Y-87188704D02*
X176347618Y-87226800D01*
X176347618Y-87226800D02*
X176233333Y-87264895D01*
X176233333Y-87264895D02*
X176157142Y-87264895D01*
X176157142Y-87264895D02*
X176042856Y-87226800D01*
X176042856Y-87226800D02*
X175966666Y-87150609D01*
X175966666Y-87150609D02*
X175928571Y-87074419D01*
X175928571Y-87074419D02*
X175890475Y-86922038D01*
X175890475Y-86922038D02*
X175890475Y-86807752D01*
X175890475Y-86807752D02*
X175928571Y-86655371D01*
X175928571Y-86655371D02*
X175966666Y-86579180D01*
X175966666Y-86579180D02*
X176042856Y-86502990D01*
X176042856Y-86502990D02*
X176157142Y-86464895D01*
X176157142Y-86464895D02*
X176233333Y-86464895D01*
X176233333Y-86464895D02*
X176347618Y-86502990D01*
X176347618Y-86502990D02*
X176385714Y-86541085D01*
X177147618Y-87264895D02*
X176690475Y-87264895D01*
X176919047Y-87264895D02*
X176919047Y-86464895D01*
X176919047Y-86464895D02*
X176842856Y-86579180D01*
X176842856Y-86579180D02*
X176766666Y-86655371D01*
X176766666Y-86655371D02*
X176690475Y-86693466D01*
X177833333Y-86464895D02*
X177680952Y-86464895D01*
X177680952Y-86464895D02*
X177604761Y-86502990D01*
X177604761Y-86502990D02*
X177566666Y-86541085D01*
X177566666Y-86541085D02*
X177490476Y-86655371D01*
X177490476Y-86655371D02*
X177452380Y-86807752D01*
X177452380Y-86807752D02*
X177452380Y-87112514D01*
X177452380Y-87112514D02*
X177490476Y-87188704D01*
X177490476Y-87188704D02*
X177528571Y-87226800D01*
X177528571Y-87226800D02*
X177604761Y-87264895D01*
X177604761Y-87264895D02*
X177757142Y-87264895D01*
X177757142Y-87264895D02*
X177833333Y-87226800D01*
X177833333Y-87226800D02*
X177871428Y-87188704D01*
X177871428Y-87188704D02*
X177909523Y-87112514D01*
X177909523Y-87112514D02*
X177909523Y-86922038D01*
X177909523Y-86922038D02*
X177871428Y-86845847D01*
X177871428Y-86845847D02*
X177833333Y-86807752D01*
X177833333Y-86807752D02*
X177757142Y-86769657D01*
X177757142Y-86769657D02*
X177604761Y-86769657D01*
X177604761Y-86769657D02*
X177528571Y-86807752D01*
X177528571Y-86807752D02*
X177490476Y-86845847D01*
X177490476Y-86845847D02*
X177452380Y-86922038D01*
X181026800Y-101866667D02*
X181064895Y-101752381D01*
X181064895Y-101752381D02*
X181064895Y-101561905D01*
X181064895Y-101561905D02*
X181026800Y-101485714D01*
X181026800Y-101485714D02*
X180988704Y-101447619D01*
X180988704Y-101447619D02*
X180912514Y-101409524D01*
X180912514Y-101409524D02*
X180836323Y-101409524D01*
X180836323Y-101409524D02*
X180760133Y-101447619D01*
X180760133Y-101447619D02*
X180722038Y-101485714D01*
X180722038Y-101485714D02*
X180683942Y-101561905D01*
X180683942Y-101561905D02*
X180645847Y-101714286D01*
X180645847Y-101714286D02*
X180607752Y-101790476D01*
X180607752Y-101790476D02*
X180569657Y-101828571D01*
X180569657Y-101828571D02*
X180493466Y-101866667D01*
X180493466Y-101866667D02*
X180417276Y-101866667D01*
X180417276Y-101866667D02*
X180341085Y-101828571D01*
X180341085Y-101828571D02*
X180302990Y-101790476D01*
X180302990Y-101790476D02*
X180264895Y-101714286D01*
X180264895Y-101714286D02*
X180264895Y-101523809D01*
X180264895Y-101523809D02*
X180302990Y-101409524D01*
X180264895Y-101142857D02*
X181064895Y-100952381D01*
X181064895Y-100952381D02*
X180493466Y-100800000D01*
X180493466Y-100800000D02*
X181064895Y-100647619D01*
X181064895Y-100647619D02*
X180264895Y-100457143D01*
X180264895Y-100228571D02*
X180264895Y-99733333D01*
X180264895Y-99733333D02*
X180569657Y-99999999D01*
X180569657Y-99999999D02*
X180569657Y-99885714D01*
X180569657Y-99885714D02*
X180607752Y-99809523D01*
X180607752Y-99809523D02*
X180645847Y-99771428D01*
X180645847Y-99771428D02*
X180722038Y-99733333D01*
X180722038Y-99733333D02*
X180912514Y-99733333D01*
X180912514Y-99733333D02*
X180988704Y-99771428D01*
X180988704Y-99771428D02*
X181026800Y-99809523D01*
X181026800Y-99809523D02*
X181064895Y-99885714D01*
X181064895Y-99885714D02*
X181064895Y-100114285D01*
X181064895Y-100114285D02*
X181026800Y-100190476D01*
X181026800Y-100190476D02*
X180988704Y-100228571D01*
X156583333Y-42714895D02*
X156583333Y-43286323D01*
X156583333Y-43286323D02*
X156545238Y-43400609D01*
X156545238Y-43400609D02*
X156469047Y-43476800D01*
X156469047Y-43476800D02*
X156354762Y-43514895D01*
X156354762Y-43514895D02*
X156278571Y-43514895D01*
X157383333Y-43514895D02*
X156926190Y-43514895D01*
X157154762Y-43514895D02*
X157154762Y-42714895D01*
X157154762Y-42714895D02*
X157078571Y-42829180D01*
X157078571Y-42829180D02*
X157002381Y-42905371D01*
X157002381Y-42905371D02*
X156926190Y-42943466D01*
X176516667Y-54888704D02*
X176478571Y-54926800D01*
X176478571Y-54926800D02*
X176364286Y-54964895D01*
X176364286Y-54964895D02*
X176288095Y-54964895D01*
X176288095Y-54964895D02*
X176173809Y-54926800D01*
X176173809Y-54926800D02*
X176097619Y-54850609D01*
X176097619Y-54850609D02*
X176059524Y-54774419D01*
X176059524Y-54774419D02*
X176021428Y-54622038D01*
X176021428Y-54622038D02*
X176021428Y-54507752D01*
X176021428Y-54507752D02*
X176059524Y-54355371D01*
X176059524Y-54355371D02*
X176097619Y-54279180D01*
X176097619Y-54279180D02*
X176173809Y-54202990D01*
X176173809Y-54202990D02*
X176288095Y-54164895D01*
X176288095Y-54164895D02*
X176364286Y-54164895D01*
X176364286Y-54164895D02*
X176478571Y-54202990D01*
X176478571Y-54202990D02*
X176516667Y-54241085D01*
X176897619Y-54964895D02*
X177050000Y-54964895D01*
X177050000Y-54964895D02*
X177126190Y-54926800D01*
X177126190Y-54926800D02*
X177164286Y-54888704D01*
X177164286Y-54888704D02*
X177240476Y-54774419D01*
X177240476Y-54774419D02*
X177278571Y-54622038D01*
X177278571Y-54622038D02*
X177278571Y-54317276D01*
X177278571Y-54317276D02*
X177240476Y-54241085D01*
X177240476Y-54241085D02*
X177202381Y-54202990D01*
X177202381Y-54202990D02*
X177126190Y-54164895D01*
X177126190Y-54164895D02*
X176973809Y-54164895D01*
X176973809Y-54164895D02*
X176897619Y-54202990D01*
X176897619Y-54202990D02*
X176859524Y-54241085D01*
X176859524Y-54241085D02*
X176821428Y-54317276D01*
X176821428Y-54317276D02*
X176821428Y-54507752D01*
X176821428Y-54507752D02*
X176859524Y-54583942D01*
X176859524Y-54583942D02*
X176897619Y-54622038D01*
X176897619Y-54622038D02*
X176973809Y-54660133D01*
X176973809Y-54660133D02*
X177126190Y-54660133D01*
X177126190Y-54660133D02*
X177202381Y-54622038D01*
X177202381Y-54622038D02*
X177240476Y-54583942D01*
X177240476Y-54583942D02*
X177278571Y-54507752D01*
X164376190Y-74245847D02*
X164490476Y-74283942D01*
X164490476Y-74283942D02*
X164528571Y-74322038D01*
X164528571Y-74322038D02*
X164566667Y-74398228D01*
X164566667Y-74398228D02*
X164566667Y-74512514D01*
X164566667Y-74512514D02*
X164528571Y-74588704D01*
X164528571Y-74588704D02*
X164490476Y-74626800D01*
X164490476Y-74626800D02*
X164414286Y-74664895D01*
X164414286Y-74664895D02*
X164109524Y-74664895D01*
X164109524Y-74664895D02*
X164109524Y-73864895D01*
X164109524Y-73864895D02*
X164376190Y-73864895D01*
X164376190Y-73864895D02*
X164452381Y-73902990D01*
X164452381Y-73902990D02*
X164490476Y-73941085D01*
X164490476Y-73941085D02*
X164528571Y-74017276D01*
X164528571Y-74017276D02*
X164528571Y-74093466D01*
X164528571Y-74093466D02*
X164490476Y-74169657D01*
X164490476Y-74169657D02*
X164452381Y-74207752D01*
X164452381Y-74207752D02*
X164376190Y-74245847D01*
X164376190Y-74245847D02*
X164109524Y-74245847D01*
X165252381Y-74131561D02*
X165252381Y-74664895D01*
X164909524Y-74131561D02*
X164909524Y-74550609D01*
X164909524Y-74550609D02*
X164947619Y-74626800D01*
X164947619Y-74626800D02*
X165023809Y-74664895D01*
X165023809Y-74664895D02*
X165138095Y-74664895D01*
X165138095Y-74664895D02*
X165214286Y-74626800D01*
X165214286Y-74626800D02*
X165252381Y-74588704D01*
X165557143Y-74131561D02*
X165976191Y-74131561D01*
X165976191Y-74131561D02*
X165557143Y-74664895D01*
X165557143Y-74664895D02*
X165976191Y-74664895D01*
X166204762Y-74131561D02*
X166623810Y-74131561D01*
X166623810Y-74131561D02*
X166204762Y-74664895D01*
X166204762Y-74664895D02*
X166623810Y-74664895D01*
X167233334Y-74626800D02*
X167157143Y-74664895D01*
X167157143Y-74664895D02*
X167004762Y-74664895D01*
X167004762Y-74664895D02*
X166928572Y-74626800D01*
X166928572Y-74626800D02*
X166890476Y-74550609D01*
X166890476Y-74550609D02*
X166890476Y-74245847D01*
X166890476Y-74245847D02*
X166928572Y-74169657D01*
X166928572Y-74169657D02*
X167004762Y-74131561D01*
X167004762Y-74131561D02*
X167157143Y-74131561D01*
X167157143Y-74131561D02*
X167233334Y-74169657D01*
X167233334Y-74169657D02*
X167271429Y-74245847D01*
X167271429Y-74245847D02*
X167271429Y-74322038D01*
X167271429Y-74322038D02*
X166890476Y-74398228D01*
X167614286Y-74664895D02*
X167614286Y-74131561D01*
X167614286Y-74283942D02*
X167652381Y-74207752D01*
X167652381Y-74207752D02*
X167690476Y-74169657D01*
X167690476Y-74169657D02*
X167766667Y-74131561D01*
X167766667Y-74131561D02*
X167842857Y-74131561D01*
X168528571Y-74664895D02*
X168071428Y-74664895D01*
X168300000Y-74664895D02*
X168300000Y-73864895D01*
X168300000Y-73864895D02*
X168223809Y-73979180D01*
X168223809Y-73979180D02*
X168147619Y-74055371D01*
X168147619Y-74055371D02*
X168071428Y-74093466D01*
D12*
X153433866Y-71490951D02*
X153433866Y-70729047D01*
X153814819Y-71109999D02*
X153052914Y-71109999D01*
D10*
X178635714Y-74838704D02*
X178597618Y-74876800D01*
X178597618Y-74876800D02*
X178483333Y-74914895D01*
X178483333Y-74914895D02*
X178407142Y-74914895D01*
X178407142Y-74914895D02*
X178292856Y-74876800D01*
X178292856Y-74876800D02*
X178216666Y-74800609D01*
X178216666Y-74800609D02*
X178178571Y-74724419D01*
X178178571Y-74724419D02*
X178140475Y-74572038D01*
X178140475Y-74572038D02*
X178140475Y-74457752D01*
X178140475Y-74457752D02*
X178178571Y-74305371D01*
X178178571Y-74305371D02*
X178216666Y-74229180D01*
X178216666Y-74229180D02*
X178292856Y-74152990D01*
X178292856Y-74152990D02*
X178407142Y-74114895D01*
X178407142Y-74114895D02*
X178483333Y-74114895D01*
X178483333Y-74114895D02*
X178597618Y-74152990D01*
X178597618Y-74152990D02*
X178635714Y-74191085D01*
X179397618Y-74914895D02*
X178940475Y-74914895D01*
X179169047Y-74914895D02*
X179169047Y-74114895D01*
X179169047Y-74114895D02*
X179092856Y-74229180D01*
X179092856Y-74229180D02*
X179016666Y-74305371D01*
X179016666Y-74305371D02*
X178940475Y-74343466D01*
X180159523Y-74914895D02*
X179702380Y-74914895D01*
X179930952Y-74914895D02*
X179930952Y-74114895D01*
X179930952Y-74114895D02*
X179854761Y-74229180D01*
X179854761Y-74229180D02*
X179778571Y-74305371D01*
X179778571Y-74305371D02*
X179702380Y-74343466D01*
X187747143Y-67524895D02*
X187899524Y-67524895D01*
X187899524Y-67524895D02*
X187975714Y-67562990D01*
X187975714Y-67562990D02*
X188051905Y-67639180D01*
X188051905Y-67639180D02*
X188090000Y-67791561D01*
X188090000Y-67791561D02*
X188090000Y-68058228D01*
X188090000Y-68058228D02*
X188051905Y-68210609D01*
X188051905Y-68210609D02*
X187975714Y-68286800D01*
X187975714Y-68286800D02*
X187899524Y-68324895D01*
X187899524Y-68324895D02*
X187747143Y-68324895D01*
X187747143Y-68324895D02*
X187670952Y-68286800D01*
X187670952Y-68286800D02*
X187594762Y-68210609D01*
X187594762Y-68210609D02*
X187556666Y-68058228D01*
X187556666Y-68058228D02*
X187556666Y-67791561D01*
X187556666Y-67791561D02*
X187594762Y-67639180D01*
X187594762Y-67639180D02*
X187670952Y-67562990D01*
X187670952Y-67562990D02*
X187747143Y-67524895D01*
X188813809Y-68324895D02*
X188432857Y-68324895D01*
X188432857Y-68324895D02*
X188432857Y-67524895D01*
X189080476Y-67905847D02*
X189347142Y-67905847D01*
X189461428Y-68324895D02*
X189080476Y-68324895D01*
X189080476Y-68324895D02*
X189080476Y-67524895D01*
X189080476Y-67524895D02*
X189461428Y-67524895D01*
X189804286Y-68324895D02*
X189804286Y-67524895D01*
X189804286Y-67524895D02*
X189994762Y-67524895D01*
X189994762Y-67524895D02*
X190109048Y-67562990D01*
X190109048Y-67562990D02*
X190185238Y-67639180D01*
X190185238Y-67639180D02*
X190223333Y-67715371D01*
X190223333Y-67715371D02*
X190261429Y-67867752D01*
X190261429Y-67867752D02*
X190261429Y-67982038D01*
X190261429Y-67982038D02*
X190223333Y-68134419D01*
X190223333Y-68134419D02*
X190185238Y-68210609D01*
X190185238Y-68210609D02*
X190109048Y-68286800D01*
X190109048Y-68286800D02*
X189994762Y-68324895D01*
X189994762Y-68324895D02*
X189804286Y-68324895D01*
X191023333Y-68324895D02*
X190566190Y-68324895D01*
X190794762Y-68324895D02*
X190794762Y-67524895D01*
X190794762Y-67524895D02*
X190718571Y-67639180D01*
X190718571Y-67639180D02*
X190642381Y-67715371D01*
X190642381Y-67715371D02*
X190566190Y-67753466D01*
X189323809Y-41991085D02*
X189247619Y-41952990D01*
X189247619Y-41952990D02*
X189171428Y-41876800D01*
X189171428Y-41876800D02*
X189057142Y-41762514D01*
X189057142Y-41762514D02*
X188980952Y-41724419D01*
X188980952Y-41724419D02*
X188904761Y-41724419D01*
X188942857Y-41914895D02*
X188866666Y-41876800D01*
X188866666Y-41876800D02*
X188790476Y-41800609D01*
X188790476Y-41800609D02*
X188752380Y-41648228D01*
X188752380Y-41648228D02*
X188752380Y-41381561D01*
X188752380Y-41381561D02*
X188790476Y-41229180D01*
X188790476Y-41229180D02*
X188866666Y-41152990D01*
X188866666Y-41152990D02*
X188942857Y-41114895D01*
X188942857Y-41114895D02*
X189095238Y-41114895D01*
X189095238Y-41114895D02*
X189171428Y-41152990D01*
X189171428Y-41152990D02*
X189247619Y-41229180D01*
X189247619Y-41229180D02*
X189285714Y-41381561D01*
X189285714Y-41381561D02*
X189285714Y-41648228D01*
X189285714Y-41648228D02*
X189247619Y-41800609D01*
X189247619Y-41800609D02*
X189171428Y-41876800D01*
X189171428Y-41876800D02*
X189095238Y-41914895D01*
X189095238Y-41914895D02*
X188942857Y-41914895D01*
X190047618Y-41914895D02*
X189590475Y-41914895D01*
X189819047Y-41914895D02*
X189819047Y-41114895D01*
X189819047Y-41114895D02*
X189742856Y-41229180D01*
X189742856Y-41229180D02*
X189666666Y-41305371D01*
X189666666Y-41305371D02*
X189590475Y-41343466D01*
X160716667Y-55014895D02*
X160450000Y-54633942D01*
X160259524Y-55014895D02*
X160259524Y-54214895D01*
X160259524Y-54214895D02*
X160564286Y-54214895D01*
X160564286Y-54214895D02*
X160640476Y-54252990D01*
X160640476Y-54252990D02*
X160678571Y-54291085D01*
X160678571Y-54291085D02*
X160716667Y-54367276D01*
X160716667Y-54367276D02*
X160716667Y-54481561D01*
X160716667Y-54481561D02*
X160678571Y-54557752D01*
X160678571Y-54557752D02*
X160640476Y-54595847D01*
X160640476Y-54595847D02*
X160564286Y-54633942D01*
X160564286Y-54633942D02*
X160259524Y-54633942D01*
X160983333Y-54214895D02*
X161478571Y-54214895D01*
X161478571Y-54214895D02*
X161211905Y-54519657D01*
X161211905Y-54519657D02*
X161326190Y-54519657D01*
X161326190Y-54519657D02*
X161402381Y-54557752D01*
X161402381Y-54557752D02*
X161440476Y-54595847D01*
X161440476Y-54595847D02*
X161478571Y-54672038D01*
X161478571Y-54672038D02*
X161478571Y-54862514D01*
X161478571Y-54862514D02*
X161440476Y-54938704D01*
X161440476Y-54938704D02*
X161402381Y-54976800D01*
X161402381Y-54976800D02*
X161326190Y-55014895D01*
X161326190Y-55014895D02*
X161097619Y-55014895D01*
X161097619Y-55014895D02*
X161021428Y-54976800D01*
X161021428Y-54976800D02*
X160983333Y-54938704D01*
X196564895Y-61578571D02*
X195764895Y-61578571D01*
X196145847Y-61578571D02*
X196145847Y-61121428D01*
X196564895Y-61121428D02*
X195764895Y-61121428D01*
X196031561Y-60397619D02*
X196564895Y-60397619D01*
X196031561Y-60740476D02*
X196450609Y-60740476D01*
X196450609Y-60740476D02*
X196526800Y-60702381D01*
X196526800Y-60702381D02*
X196564895Y-60626191D01*
X196564895Y-60626191D02*
X196564895Y-60511905D01*
X196564895Y-60511905D02*
X196526800Y-60435714D01*
X196526800Y-60435714D02*
X196488704Y-60397619D01*
X196564895Y-60016666D02*
X196031561Y-60016666D01*
X196107752Y-60016666D02*
X196069657Y-59978571D01*
X196069657Y-59978571D02*
X196031561Y-59902381D01*
X196031561Y-59902381D02*
X196031561Y-59788095D01*
X196031561Y-59788095D02*
X196069657Y-59711904D01*
X196069657Y-59711904D02*
X196145847Y-59673809D01*
X196145847Y-59673809D02*
X196564895Y-59673809D01*
X196145847Y-59673809D02*
X196069657Y-59635714D01*
X196069657Y-59635714D02*
X196031561Y-59559523D01*
X196031561Y-59559523D02*
X196031561Y-59445238D01*
X196031561Y-59445238D02*
X196069657Y-59369047D01*
X196069657Y-59369047D02*
X196145847Y-59330952D01*
X196145847Y-59330952D02*
X196564895Y-59330952D01*
X196526800Y-58378571D02*
X196564895Y-58264285D01*
X196564895Y-58264285D02*
X196564895Y-58073809D01*
X196564895Y-58073809D02*
X196526800Y-57997618D01*
X196526800Y-57997618D02*
X196488704Y-57959523D01*
X196488704Y-57959523D02*
X196412514Y-57921428D01*
X196412514Y-57921428D02*
X196336323Y-57921428D01*
X196336323Y-57921428D02*
X196260133Y-57959523D01*
X196260133Y-57959523D02*
X196222038Y-57997618D01*
X196222038Y-57997618D02*
X196183942Y-58073809D01*
X196183942Y-58073809D02*
X196145847Y-58226190D01*
X196145847Y-58226190D02*
X196107752Y-58302380D01*
X196107752Y-58302380D02*
X196069657Y-58340475D01*
X196069657Y-58340475D02*
X195993466Y-58378571D01*
X195993466Y-58378571D02*
X195917276Y-58378571D01*
X195917276Y-58378571D02*
X195841085Y-58340475D01*
X195841085Y-58340475D02*
X195802990Y-58302380D01*
X195802990Y-58302380D02*
X195764895Y-58226190D01*
X195764895Y-58226190D02*
X195764895Y-58035713D01*
X195764895Y-58035713D02*
X195802990Y-57921428D01*
X196526800Y-57273808D02*
X196564895Y-57349999D01*
X196564895Y-57349999D02*
X196564895Y-57502380D01*
X196564895Y-57502380D02*
X196526800Y-57578570D01*
X196526800Y-57578570D02*
X196450609Y-57616666D01*
X196450609Y-57616666D02*
X196145847Y-57616666D01*
X196145847Y-57616666D02*
X196069657Y-57578570D01*
X196069657Y-57578570D02*
X196031561Y-57502380D01*
X196031561Y-57502380D02*
X196031561Y-57349999D01*
X196031561Y-57349999D02*
X196069657Y-57273808D01*
X196069657Y-57273808D02*
X196145847Y-57235713D01*
X196145847Y-57235713D02*
X196222038Y-57235713D01*
X196222038Y-57235713D02*
X196298228Y-57616666D01*
X196031561Y-56892856D02*
X196564895Y-56892856D01*
X196107752Y-56892856D02*
X196069657Y-56854761D01*
X196069657Y-56854761D02*
X196031561Y-56778571D01*
X196031561Y-56778571D02*
X196031561Y-56664285D01*
X196031561Y-56664285D02*
X196069657Y-56588094D01*
X196069657Y-56588094D02*
X196145847Y-56549999D01*
X196145847Y-56549999D02*
X196564895Y-56549999D01*
X196526800Y-56207142D02*
X196564895Y-56130951D01*
X196564895Y-56130951D02*
X196564895Y-55978570D01*
X196564895Y-55978570D02*
X196526800Y-55902380D01*
X196526800Y-55902380D02*
X196450609Y-55864284D01*
X196450609Y-55864284D02*
X196412514Y-55864284D01*
X196412514Y-55864284D02*
X196336323Y-55902380D01*
X196336323Y-55902380D02*
X196298228Y-55978570D01*
X196298228Y-55978570D02*
X196298228Y-56092856D01*
X196298228Y-56092856D02*
X196260133Y-56169046D01*
X196260133Y-56169046D02*
X196183942Y-56207142D01*
X196183942Y-56207142D02*
X196145847Y-56207142D01*
X196145847Y-56207142D02*
X196069657Y-56169046D01*
X196069657Y-56169046D02*
X196031561Y-56092856D01*
X196031561Y-56092856D02*
X196031561Y-55978570D01*
X196031561Y-55978570D02*
X196069657Y-55902380D01*
X196564895Y-55407142D02*
X196526800Y-55483332D01*
X196526800Y-55483332D02*
X196488704Y-55521427D01*
X196488704Y-55521427D02*
X196412514Y-55559523D01*
X196412514Y-55559523D02*
X196183942Y-55559523D01*
X196183942Y-55559523D02*
X196107752Y-55521427D01*
X196107752Y-55521427D02*
X196069657Y-55483332D01*
X196069657Y-55483332D02*
X196031561Y-55407142D01*
X196031561Y-55407142D02*
X196031561Y-55292856D01*
X196031561Y-55292856D02*
X196069657Y-55216665D01*
X196069657Y-55216665D02*
X196107752Y-55178570D01*
X196107752Y-55178570D02*
X196183942Y-55140475D01*
X196183942Y-55140475D02*
X196412514Y-55140475D01*
X196412514Y-55140475D02*
X196488704Y-55178570D01*
X196488704Y-55178570D02*
X196526800Y-55216665D01*
X196526800Y-55216665D02*
X196564895Y-55292856D01*
X196564895Y-55292856D02*
X196564895Y-55407142D01*
X196564895Y-54797617D02*
X196031561Y-54797617D01*
X196183942Y-54797617D02*
X196107752Y-54759522D01*
X196107752Y-54759522D02*
X196069657Y-54721427D01*
X196069657Y-54721427D02*
X196031561Y-54645236D01*
X196031561Y-54645236D02*
X196031561Y-54569046D01*
X196564895Y-53883332D02*
X196564895Y-54340475D01*
X196564895Y-54111903D02*
X195764895Y-54111903D01*
X195764895Y-54111903D02*
X195879180Y-54188094D01*
X195879180Y-54188094D02*
X195955371Y-54264284D01*
X195955371Y-54264284D02*
X195993466Y-54340475D01*
X192085714Y-93964895D02*
X191819047Y-93583942D01*
X191628571Y-93964895D02*
X191628571Y-93164895D01*
X191628571Y-93164895D02*
X191933333Y-93164895D01*
X191933333Y-93164895D02*
X192009523Y-93202990D01*
X192009523Y-93202990D02*
X192047618Y-93241085D01*
X192047618Y-93241085D02*
X192085714Y-93317276D01*
X192085714Y-93317276D02*
X192085714Y-93431561D01*
X192085714Y-93431561D02*
X192047618Y-93507752D01*
X192047618Y-93507752D02*
X192009523Y-93545847D01*
X192009523Y-93545847D02*
X191933333Y-93583942D01*
X191933333Y-93583942D02*
X191628571Y-93583942D01*
X192847618Y-93964895D02*
X192390475Y-93964895D01*
X192619047Y-93964895D02*
X192619047Y-93164895D01*
X192619047Y-93164895D02*
X192542856Y-93279180D01*
X192542856Y-93279180D02*
X192466666Y-93355371D01*
X192466666Y-93355371D02*
X192390475Y-93393466D01*
X193114285Y-93164895D02*
X193609523Y-93164895D01*
X193609523Y-93164895D02*
X193342857Y-93469657D01*
X193342857Y-93469657D02*
X193457142Y-93469657D01*
X193457142Y-93469657D02*
X193533333Y-93507752D01*
X193533333Y-93507752D02*
X193571428Y-93545847D01*
X193571428Y-93545847D02*
X193609523Y-93622038D01*
X193609523Y-93622038D02*
X193609523Y-93812514D01*
X193609523Y-93812514D02*
X193571428Y-93888704D01*
X193571428Y-93888704D02*
X193533333Y-93926800D01*
X193533333Y-93926800D02*
X193457142Y-93964895D01*
X193457142Y-93964895D02*
X193228571Y-93964895D01*
X193228571Y-93964895D02*
X193152380Y-93926800D01*
X193152380Y-93926800D02*
X193114285Y-93888704D01*
X154542857Y-29645847D02*
X154276191Y-29645847D01*
X154276191Y-30064895D02*
X154276191Y-29264895D01*
X154276191Y-29264895D02*
X154657143Y-29264895D01*
X154961905Y-30064895D02*
X154961905Y-29264895D01*
X155342857Y-30064895D02*
X155342857Y-29264895D01*
X155342857Y-29264895D02*
X155533333Y-29264895D01*
X155533333Y-29264895D02*
X155647619Y-29302990D01*
X155647619Y-29302990D02*
X155723809Y-29379180D01*
X155723809Y-29379180D02*
X155761904Y-29455371D01*
X155761904Y-29455371D02*
X155800000Y-29607752D01*
X155800000Y-29607752D02*
X155800000Y-29722038D01*
X155800000Y-29722038D02*
X155761904Y-29874419D01*
X155761904Y-29874419D02*
X155723809Y-29950609D01*
X155723809Y-29950609D02*
X155647619Y-30026800D01*
X155647619Y-30026800D02*
X155533333Y-30064895D01*
X155533333Y-30064895D02*
X155342857Y-30064895D01*
X156066666Y-29264895D02*
X156561904Y-29264895D01*
X156561904Y-29264895D02*
X156295238Y-29569657D01*
X156295238Y-29569657D02*
X156409523Y-29569657D01*
X156409523Y-29569657D02*
X156485714Y-29607752D01*
X156485714Y-29607752D02*
X156523809Y-29645847D01*
X156523809Y-29645847D02*
X156561904Y-29722038D01*
X156561904Y-29722038D02*
X156561904Y-29912514D01*
X156561904Y-29912514D02*
X156523809Y-29988704D01*
X156523809Y-29988704D02*
X156485714Y-30026800D01*
X156485714Y-30026800D02*
X156409523Y-30064895D01*
X156409523Y-30064895D02*
X156180952Y-30064895D01*
X156180952Y-30064895D02*
X156104761Y-30026800D01*
X156104761Y-30026800D02*
X156066666Y-29988704D01*
X182509524Y-52464895D02*
X182509524Y-51664895D01*
X182509524Y-51664895D02*
X182700000Y-51664895D01*
X182700000Y-51664895D02*
X182814286Y-51702990D01*
X182814286Y-51702990D02*
X182890476Y-51779180D01*
X182890476Y-51779180D02*
X182928571Y-51855371D01*
X182928571Y-51855371D02*
X182966667Y-52007752D01*
X182966667Y-52007752D02*
X182966667Y-52122038D01*
X182966667Y-52122038D02*
X182928571Y-52274419D01*
X182928571Y-52274419D02*
X182890476Y-52350609D01*
X182890476Y-52350609D02*
X182814286Y-52426800D01*
X182814286Y-52426800D02*
X182700000Y-52464895D01*
X182700000Y-52464895D02*
X182509524Y-52464895D01*
X183652381Y-51931561D02*
X183652381Y-52464895D01*
X183461905Y-51626800D02*
X183271428Y-52198228D01*
X183271428Y-52198228D02*
X183766667Y-52198228D01*
X164367857Y-57745847D02*
X164101191Y-57745847D01*
X164101191Y-58164895D02*
X164101191Y-57364895D01*
X164101191Y-57364895D02*
X164482143Y-57364895D01*
X164786905Y-58164895D02*
X164786905Y-57364895D01*
X165167857Y-58164895D02*
X165167857Y-57364895D01*
X165167857Y-57364895D02*
X165358333Y-57364895D01*
X165358333Y-57364895D02*
X165472619Y-57402990D01*
X165472619Y-57402990D02*
X165548809Y-57479180D01*
X165548809Y-57479180D02*
X165586904Y-57555371D01*
X165586904Y-57555371D02*
X165625000Y-57707752D01*
X165625000Y-57707752D02*
X165625000Y-57822038D01*
X165625000Y-57822038D02*
X165586904Y-57974419D01*
X165586904Y-57974419D02*
X165548809Y-58050609D01*
X165548809Y-58050609D02*
X165472619Y-58126800D01*
X165472619Y-58126800D02*
X165358333Y-58164895D01*
X165358333Y-58164895D02*
X165167857Y-58164895D01*
X166310714Y-57631561D02*
X166310714Y-58164895D01*
X166120238Y-57326800D02*
X165929761Y-57898228D01*
X165929761Y-57898228D02*
X166425000Y-57898228D01*
X168878571Y-89264895D02*
X168878571Y-88464895D01*
X168878571Y-88464895D02*
X169069047Y-88464895D01*
X169069047Y-88464895D02*
X169183333Y-88502990D01*
X169183333Y-88502990D02*
X169259523Y-88579180D01*
X169259523Y-88579180D02*
X169297618Y-88655371D01*
X169297618Y-88655371D02*
X169335714Y-88807752D01*
X169335714Y-88807752D02*
X169335714Y-88922038D01*
X169335714Y-88922038D02*
X169297618Y-89074419D01*
X169297618Y-89074419D02*
X169259523Y-89150609D01*
X169259523Y-89150609D02*
X169183333Y-89226800D01*
X169183333Y-89226800D02*
X169069047Y-89264895D01*
X169069047Y-89264895D02*
X168878571Y-89264895D01*
X170097618Y-89264895D02*
X169640475Y-89264895D01*
X169869047Y-89264895D02*
X169869047Y-88464895D01*
X169869047Y-88464895D02*
X169792856Y-88579180D01*
X169792856Y-88579180D02*
X169716666Y-88655371D01*
X169716666Y-88655371D02*
X169640475Y-88693466D01*
X170592857Y-88464895D02*
X170669047Y-88464895D01*
X170669047Y-88464895D02*
X170745238Y-88502990D01*
X170745238Y-88502990D02*
X170783333Y-88541085D01*
X170783333Y-88541085D02*
X170821428Y-88617276D01*
X170821428Y-88617276D02*
X170859523Y-88769657D01*
X170859523Y-88769657D02*
X170859523Y-88960133D01*
X170859523Y-88960133D02*
X170821428Y-89112514D01*
X170821428Y-89112514D02*
X170783333Y-89188704D01*
X170783333Y-89188704D02*
X170745238Y-89226800D01*
X170745238Y-89226800D02*
X170669047Y-89264895D01*
X170669047Y-89264895D02*
X170592857Y-89264895D01*
X170592857Y-89264895D02*
X170516666Y-89226800D01*
X170516666Y-89226800D02*
X170478571Y-89188704D01*
X170478571Y-89188704D02*
X170440476Y-89112514D01*
X170440476Y-89112514D02*
X170402380Y-88960133D01*
X170402380Y-88960133D02*
X170402380Y-88769657D01*
X170402380Y-88769657D02*
X170440476Y-88617276D01*
X170440476Y-88617276D02*
X170478571Y-88541085D01*
X170478571Y-88541085D02*
X170516666Y-88502990D01*
X170516666Y-88502990D02*
X170592857Y-88464895D01*
X155526800Y-101966667D02*
X155564895Y-101852381D01*
X155564895Y-101852381D02*
X155564895Y-101661905D01*
X155564895Y-101661905D02*
X155526800Y-101585714D01*
X155526800Y-101585714D02*
X155488704Y-101547619D01*
X155488704Y-101547619D02*
X155412514Y-101509524D01*
X155412514Y-101509524D02*
X155336323Y-101509524D01*
X155336323Y-101509524D02*
X155260133Y-101547619D01*
X155260133Y-101547619D02*
X155222038Y-101585714D01*
X155222038Y-101585714D02*
X155183942Y-101661905D01*
X155183942Y-101661905D02*
X155145847Y-101814286D01*
X155145847Y-101814286D02*
X155107752Y-101890476D01*
X155107752Y-101890476D02*
X155069657Y-101928571D01*
X155069657Y-101928571D02*
X154993466Y-101966667D01*
X154993466Y-101966667D02*
X154917276Y-101966667D01*
X154917276Y-101966667D02*
X154841085Y-101928571D01*
X154841085Y-101928571D02*
X154802990Y-101890476D01*
X154802990Y-101890476D02*
X154764895Y-101814286D01*
X154764895Y-101814286D02*
X154764895Y-101623809D01*
X154764895Y-101623809D02*
X154802990Y-101509524D01*
X154764895Y-101242857D02*
X155564895Y-101052381D01*
X155564895Y-101052381D02*
X154993466Y-100900000D01*
X154993466Y-100900000D02*
X155564895Y-100747619D01*
X155564895Y-100747619D02*
X154764895Y-100557143D01*
X155564895Y-99833333D02*
X155564895Y-100290476D01*
X155564895Y-100061904D02*
X154764895Y-100061904D01*
X154764895Y-100061904D02*
X154879180Y-100138095D01*
X154879180Y-100138095D02*
X154955371Y-100214285D01*
X154955371Y-100214285D02*
X154993466Y-100290476D01*
X160666667Y-57214895D02*
X160400000Y-56833942D01*
X160209524Y-57214895D02*
X160209524Y-56414895D01*
X160209524Y-56414895D02*
X160514286Y-56414895D01*
X160514286Y-56414895D02*
X160590476Y-56452990D01*
X160590476Y-56452990D02*
X160628571Y-56491085D01*
X160628571Y-56491085D02*
X160666667Y-56567276D01*
X160666667Y-56567276D02*
X160666667Y-56681561D01*
X160666667Y-56681561D02*
X160628571Y-56757752D01*
X160628571Y-56757752D02*
X160590476Y-56795847D01*
X160590476Y-56795847D02*
X160514286Y-56833942D01*
X160514286Y-56833942D02*
X160209524Y-56833942D01*
X160971428Y-56491085D02*
X161009524Y-56452990D01*
X161009524Y-56452990D02*
X161085714Y-56414895D01*
X161085714Y-56414895D02*
X161276190Y-56414895D01*
X161276190Y-56414895D02*
X161352381Y-56452990D01*
X161352381Y-56452990D02*
X161390476Y-56491085D01*
X161390476Y-56491085D02*
X161428571Y-56567276D01*
X161428571Y-56567276D02*
X161428571Y-56643466D01*
X161428571Y-56643466D02*
X161390476Y-56757752D01*
X161390476Y-56757752D02*
X160933333Y-57214895D01*
X160933333Y-57214895D02*
X161428571Y-57214895D01*
X184341666Y-58539895D02*
X183960714Y-58539895D01*
X183960714Y-58539895D02*
X183960714Y-57739895D01*
X185027380Y-58539895D02*
X184570237Y-58539895D01*
X184798809Y-58539895D02*
X184798809Y-57739895D01*
X184798809Y-57739895D02*
X184722618Y-57854180D01*
X184722618Y-57854180D02*
X184646428Y-57930371D01*
X184646428Y-57930371D02*
X184570237Y-57968466D01*
X166685714Y-94264895D02*
X166419047Y-93883942D01*
X166228571Y-94264895D02*
X166228571Y-93464895D01*
X166228571Y-93464895D02*
X166533333Y-93464895D01*
X166533333Y-93464895D02*
X166609523Y-93502990D01*
X166609523Y-93502990D02*
X166647618Y-93541085D01*
X166647618Y-93541085D02*
X166685714Y-93617276D01*
X166685714Y-93617276D02*
X166685714Y-93731561D01*
X166685714Y-93731561D02*
X166647618Y-93807752D01*
X166647618Y-93807752D02*
X166609523Y-93845847D01*
X166609523Y-93845847D02*
X166533333Y-93883942D01*
X166533333Y-93883942D02*
X166228571Y-93883942D01*
X167447618Y-94264895D02*
X166990475Y-94264895D01*
X167219047Y-94264895D02*
X167219047Y-93464895D01*
X167219047Y-93464895D02*
X167142856Y-93579180D01*
X167142856Y-93579180D02*
X167066666Y-93655371D01*
X167066666Y-93655371D02*
X166990475Y-93693466D01*
X168133333Y-93731561D02*
X168133333Y-94264895D01*
X167942857Y-93426800D02*
X167752380Y-93998228D01*
X167752380Y-93998228D02*
X168247619Y-93998228D01*
X193842857Y-95695847D02*
X193576191Y-95695847D01*
X193576191Y-96114895D02*
X193576191Y-95314895D01*
X193576191Y-95314895D02*
X193957143Y-95314895D01*
X194261905Y-96114895D02*
X194261905Y-95314895D01*
X194642857Y-96114895D02*
X194642857Y-95314895D01*
X194642857Y-95314895D02*
X194833333Y-95314895D01*
X194833333Y-95314895D02*
X194947619Y-95352990D01*
X194947619Y-95352990D02*
X195023809Y-95429180D01*
X195023809Y-95429180D02*
X195061904Y-95505371D01*
X195061904Y-95505371D02*
X195100000Y-95657752D01*
X195100000Y-95657752D02*
X195100000Y-95772038D01*
X195100000Y-95772038D02*
X195061904Y-95924419D01*
X195061904Y-95924419D02*
X195023809Y-96000609D01*
X195023809Y-96000609D02*
X194947619Y-96076800D01*
X194947619Y-96076800D02*
X194833333Y-96114895D01*
X194833333Y-96114895D02*
X194642857Y-96114895D01*
X195404761Y-95391085D02*
X195442857Y-95352990D01*
X195442857Y-95352990D02*
X195519047Y-95314895D01*
X195519047Y-95314895D02*
X195709523Y-95314895D01*
X195709523Y-95314895D02*
X195785714Y-95352990D01*
X195785714Y-95352990D02*
X195823809Y-95391085D01*
X195823809Y-95391085D02*
X195861904Y-95467276D01*
X195861904Y-95467276D02*
X195861904Y-95543466D01*
X195861904Y-95543466D02*
X195823809Y-95657752D01*
X195823809Y-95657752D02*
X195366666Y-96114895D01*
X195366666Y-96114895D02*
X195861904Y-96114895D01*
X182116667Y-45088704D02*
X182078571Y-45126800D01*
X182078571Y-45126800D02*
X181964286Y-45164895D01*
X181964286Y-45164895D02*
X181888095Y-45164895D01*
X181888095Y-45164895D02*
X181773809Y-45126800D01*
X181773809Y-45126800D02*
X181697619Y-45050609D01*
X181697619Y-45050609D02*
X181659524Y-44974419D01*
X181659524Y-44974419D02*
X181621428Y-44822038D01*
X181621428Y-44822038D02*
X181621428Y-44707752D01*
X181621428Y-44707752D02*
X181659524Y-44555371D01*
X181659524Y-44555371D02*
X181697619Y-44479180D01*
X181697619Y-44479180D02*
X181773809Y-44402990D01*
X181773809Y-44402990D02*
X181888095Y-44364895D01*
X181888095Y-44364895D02*
X181964286Y-44364895D01*
X181964286Y-44364895D02*
X182078571Y-44402990D01*
X182078571Y-44402990D02*
X182116667Y-44441085D01*
X182383333Y-44364895D02*
X182878571Y-44364895D01*
X182878571Y-44364895D02*
X182611905Y-44669657D01*
X182611905Y-44669657D02*
X182726190Y-44669657D01*
X182726190Y-44669657D02*
X182802381Y-44707752D01*
X182802381Y-44707752D02*
X182840476Y-44745847D01*
X182840476Y-44745847D02*
X182878571Y-44822038D01*
X182878571Y-44822038D02*
X182878571Y-45012514D01*
X182878571Y-45012514D02*
X182840476Y-45088704D01*
X182840476Y-45088704D02*
X182802381Y-45126800D01*
X182802381Y-45126800D02*
X182726190Y-45164895D01*
X182726190Y-45164895D02*
X182497619Y-45164895D01*
X182497619Y-45164895D02*
X182421428Y-45126800D01*
X182421428Y-45126800D02*
X182383333Y-45088704D01*
X167440476Y-70214895D02*
X167440476Y-70862514D01*
X167440476Y-70862514D02*
X167478571Y-70938704D01*
X167478571Y-70938704D02*
X167516666Y-70976800D01*
X167516666Y-70976800D02*
X167592857Y-71014895D01*
X167592857Y-71014895D02*
X167745238Y-71014895D01*
X167745238Y-71014895D02*
X167821428Y-70976800D01*
X167821428Y-70976800D02*
X167859523Y-70938704D01*
X167859523Y-70938704D02*
X167897619Y-70862514D01*
X167897619Y-70862514D02*
X167897619Y-70214895D01*
X168240475Y-70291085D02*
X168278571Y-70252990D01*
X168278571Y-70252990D02*
X168354761Y-70214895D01*
X168354761Y-70214895D02*
X168545237Y-70214895D01*
X168545237Y-70214895D02*
X168621428Y-70252990D01*
X168621428Y-70252990D02*
X168659523Y-70291085D01*
X168659523Y-70291085D02*
X168697618Y-70367276D01*
X168697618Y-70367276D02*
X168697618Y-70443466D01*
X168697618Y-70443466D02*
X168659523Y-70557752D01*
X168659523Y-70557752D02*
X168202380Y-71014895D01*
X168202380Y-71014895D02*
X168697618Y-71014895D01*
X150352381Y-33514895D02*
X150352381Y-32714895D01*
X150352381Y-32714895D02*
X150619047Y-33286323D01*
X150619047Y-33286323D02*
X150885714Y-32714895D01*
X150885714Y-32714895D02*
X150885714Y-33514895D01*
X151228571Y-32791085D02*
X151266667Y-32752990D01*
X151266667Y-32752990D02*
X151342857Y-32714895D01*
X151342857Y-32714895D02*
X151533333Y-32714895D01*
X151533333Y-32714895D02*
X151609524Y-32752990D01*
X151609524Y-32752990D02*
X151647619Y-32791085D01*
X151647619Y-32791085D02*
X151685714Y-32867276D01*
X151685714Y-32867276D02*
X151685714Y-32943466D01*
X151685714Y-32943466D02*
X151647619Y-33057752D01*
X151647619Y-33057752D02*
X151190476Y-33514895D01*
X151190476Y-33514895D02*
X151685714Y-33514895D01*
X190566667Y-52164895D02*
X190300000Y-51783942D01*
X190109524Y-52164895D02*
X190109524Y-51364895D01*
X190109524Y-51364895D02*
X190414286Y-51364895D01*
X190414286Y-51364895D02*
X190490476Y-51402990D01*
X190490476Y-51402990D02*
X190528571Y-51441085D01*
X190528571Y-51441085D02*
X190566667Y-51517276D01*
X190566667Y-51517276D02*
X190566667Y-51631561D01*
X190566667Y-51631561D02*
X190528571Y-51707752D01*
X190528571Y-51707752D02*
X190490476Y-51745847D01*
X190490476Y-51745847D02*
X190414286Y-51783942D01*
X190414286Y-51783942D02*
X190109524Y-51783942D01*
X190833333Y-51364895D02*
X191366667Y-51364895D01*
X191366667Y-51364895D02*
X191023809Y-52164895D01*
X195066667Y-64899895D02*
X194800000Y-64518942D01*
X194609524Y-64899895D02*
X194609524Y-64099895D01*
X194609524Y-64099895D02*
X194914286Y-64099895D01*
X194914286Y-64099895D02*
X194990476Y-64137990D01*
X194990476Y-64137990D02*
X195028571Y-64176085D01*
X195028571Y-64176085D02*
X195066667Y-64252276D01*
X195066667Y-64252276D02*
X195066667Y-64366561D01*
X195066667Y-64366561D02*
X195028571Y-64442752D01*
X195028571Y-64442752D02*
X194990476Y-64480847D01*
X194990476Y-64480847D02*
X194914286Y-64518942D01*
X194914286Y-64518942D02*
X194609524Y-64518942D01*
X195790476Y-64099895D02*
X195409524Y-64099895D01*
X195409524Y-64099895D02*
X195371428Y-64480847D01*
X195371428Y-64480847D02*
X195409524Y-64442752D01*
X195409524Y-64442752D02*
X195485714Y-64404657D01*
X195485714Y-64404657D02*
X195676190Y-64404657D01*
X195676190Y-64404657D02*
X195752381Y-64442752D01*
X195752381Y-64442752D02*
X195790476Y-64480847D01*
X195790476Y-64480847D02*
X195828571Y-64557038D01*
X195828571Y-64557038D02*
X195828571Y-64747514D01*
X195828571Y-64747514D02*
X195790476Y-64823704D01*
X195790476Y-64823704D02*
X195752381Y-64861800D01*
X195752381Y-64861800D02*
X195676190Y-64899895D01*
X195676190Y-64899895D02*
X195485714Y-64899895D01*
X195485714Y-64899895D02*
X195409524Y-64861800D01*
X195409524Y-64861800D02*
X195371428Y-64823704D01*
X179335714Y-90564895D02*
X179069047Y-90183942D01*
X178878571Y-90564895D02*
X178878571Y-89764895D01*
X178878571Y-89764895D02*
X179183333Y-89764895D01*
X179183333Y-89764895D02*
X179259523Y-89802990D01*
X179259523Y-89802990D02*
X179297618Y-89841085D01*
X179297618Y-89841085D02*
X179335714Y-89917276D01*
X179335714Y-89917276D02*
X179335714Y-90031561D01*
X179335714Y-90031561D02*
X179297618Y-90107752D01*
X179297618Y-90107752D02*
X179259523Y-90145847D01*
X179259523Y-90145847D02*
X179183333Y-90183942D01*
X179183333Y-90183942D02*
X178878571Y-90183942D01*
X180097618Y-90564895D02*
X179640475Y-90564895D01*
X179869047Y-90564895D02*
X179869047Y-89764895D01*
X179869047Y-89764895D02*
X179792856Y-89879180D01*
X179792856Y-89879180D02*
X179716666Y-89955371D01*
X179716666Y-89955371D02*
X179640475Y-89993466D01*
X180554761Y-90107752D02*
X180478571Y-90069657D01*
X180478571Y-90069657D02*
X180440476Y-90031561D01*
X180440476Y-90031561D02*
X180402380Y-89955371D01*
X180402380Y-89955371D02*
X180402380Y-89917276D01*
X180402380Y-89917276D02*
X180440476Y-89841085D01*
X180440476Y-89841085D02*
X180478571Y-89802990D01*
X180478571Y-89802990D02*
X180554761Y-89764895D01*
X180554761Y-89764895D02*
X180707142Y-89764895D01*
X180707142Y-89764895D02*
X180783333Y-89802990D01*
X180783333Y-89802990D02*
X180821428Y-89841085D01*
X180821428Y-89841085D02*
X180859523Y-89917276D01*
X180859523Y-89917276D02*
X180859523Y-89955371D01*
X180859523Y-89955371D02*
X180821428Y-90031561D01*
X180821428Y-90031561D02*
X180783333Y-90069657D01*
X180783333Y-90069657D02*
X180707142Y-90107752D01*
X180707142Y-90107752D02*
X180554761Y-90107752D01*
X180554761Y-90107752D02*
X180478571Y-90145847D01*
X180478571Y-90145847D02*
X180440476Y-90183942D01*
X180440476Y-90183942D02*
X180402380Y-90260133D01*
X180402380Y-90260133D02*
X180402380Y-90412514D01*
X180402380Y-90412514D02*
X180440476Y-90488704D01*
X180440476Y-90488704D02*
X180478571Y-90526800D01*
X180478571Y-90526800D02*
X180554761Y-90564895D01*
X180554761Y-90564895D02*
X180707142Y-90564895D01*
X180707142Y-90564895D02*
X180783333Y-90526800D01*
X180783333Y-90526800D02*
X180821428Y-90488704D01*
X180821428Y-90488704D02*
X180859523Y-90412514D01*
X180859523Y-90412514D02*
X180859523Y-90260133D01*
X180859523Y-90260133D02*
X180821428Y-90183942D01*
X180821428Y-90183942D02*
X180783333Y-90145847D01*
X180783333Y-90145847D02*
X180707142Y-90107752D01*
X163585714Y-87188704D02*
X163547618Y-87226800D01*
X163547618Y-87226800D02*
X163433333Y-87264895D01*
X163433333Y-87264895D02*
X163357142Y-87264895D01*
X163357142Y-87264895D02*
X163242856Y-87226800D01*
X163242856Y-87226800D02*
X163166666Y-87150609D01*
X163166666Y-87150609D02*
X163128571Y-87074419D01*
X163128571Y-87074419D02*
X163090475Y-86922038D01*
X163090475Y-86922038D02*
X163090475Y-86807752D01*
X163090475Y-86807752D02*
X163128571Y-86655371D01*
X163128571Y-86655371D02*
X163166666Y-86579180D01*
X163166666Y-86579180D02*
X163242856Y-86502990D01*
X163242856Y-86502990D02*
X163357142Y-86464895D01*
X163357142Y-86464895D02*
X163433333Y-86464895D01*
X163433333Y-86464895D02*
X163547618Y-86502990D01*
X163547618Y-86502990D02*
X163585714Y-86541085D01*
X164347618Y-87264895D02*
X163890475Y-87264895D01*
X164119047Y-87264895D02*
X164119047Y-86464895D01*
X164119047Y-86464895D02*
X164042856Y-86579180D01*
X164042856Y-86579180D02*
X163966666Y-86655371D01*
X163966666Y-86655371D02*
X163890475Y-86693466D01*
X165071428Y-86464895D02*
X164690476Y-86464895D01*
X164690476Y-86464895D02*
X164652380Y-86845847D01*
X164652380Y-86845847D02*
X164690476Y-86807752D01*
X164690476Y-86807752D02*
X164766666Y-86769657D01*
X164766666Y-86769657D02*
X164957142Y-86769657D01*
X164957142Y-86769657D02*
X165033333Y-86807752D01*
X165033333Y-86807752D02*
X165071428Y-86845847D01*
X165071428Y-86845847D02*
X165109523Y-86922038D01*
X165109523Y-86922038D02*
X165109523Y-87112514D01*
X165109523Y-87112514D02*
X165071428Y-87188704D01*
X165071428Y-87188704D02*
X165033333Y-87226800D01*
X165033333Y-87226800D02*
X164957142Y-87264895D01*
X164957142Y-87264895D02*
X164766666Y-87264895D01*
X164766666Y-87264895D02*
X164690476Y-87226800D01*
X164690476Y-87226800D02*
X164652380Y-87188704D01*
X160716667Y-59414895D02*
X160450000Y-59033942D01*
X160259524Y-59414895D02*
X160259524Y-58614895D01*
X160259524Y-58614895D02*
X160564286Y-58614895D01*
X160564286Y-58614895D02*
X160640476Y-58652990D01*
X160640476Y-58652990D02*
X160678571Y-58691085D01*
X160678571Y-58691085D02*
X160716667Y-58767276D01*
X160716667Y-58767276D02*
X160716667Y-58881561D01*
X160716667Y-58881561D02*
X160678571Y-58957752D01*
X160678571Y-58957752D02*
X160640476Y-58995847D01*
X160640476Y-58995847D02*
X160564286Y-59033942D01*
X160564286Y-59033942D02*
X160259524Y-59033942D01*
X161478571Y-59414895D02*
X161021428Y-59414895D01*
X161250000Y-59414895D02*
X161250000Y-58614895D01*
X161250000Y-58614895D02*
X161173809Y-58729180D01*
X161173809Y-58729180D02*
X161097619Y-58805371D01*
X161097619Y-58805371D02*
X161021428Y-58843466D01*
X156209524Y-89464895D02*
X156209524Y-88664895D01*
X156209524Y-88664895D02*
X156400000Y-88664895D01*
X156400000Y-88664895D02*
X156514286Y-88702990D01*
X156514286Y-88702990D02*
X156590476Y-88779180D01*
X156590476Y-88779180D02*
X156628571Y-88855371D01*
X156628571Y-88855371D02*
X156666667Y-89007752D01*
X156666667Y-89007752D02*
X156666667Y-89122038D01*
X156666667Y-89122038D02*
X156628571Y-89274419D01*
X156628571Y-89274419D02*
X156590476Y-89350609D01*
X156590476Y-89350609D02*
X156514286Y-89426800D01*
X156514286Y-89426800D02*
X156400000Y-89464895D01*
X156400000Y-89464895D02*
X156209524Y-89464895D01*
X157123809Y-89007752D02*
X157047619Y-88969657D01*
X157047619Y-88969657D02*
X157009524Y-88931561D01*
X157009524Y-88931561D02*
X156971428Y-88855371D01*
X156971428Y-88855371D02*
X156971428Y-88817276D01*
X156971428Y-88817276D02*
X157009524Y-88741085D01*
X157009524Y-88741085D02*
X157047619Y-88702990D01*
X157047619Y-88702990D02*
X157123809Y-88664895D01*
X157123809Y-88664895D02*
X157276190Y-88664895D01*
X157276190Y-88664895D02*
X157352381Y-88702990D01*
X157352381Y-88702990D02*
X157390476Y-88741085D01*
X157390476Y-88741085D02*
X157428571Y-88817276D01*
X157428571Y-88817276D02*
X157428571Y-88855371D01*
X157428571Y-88855371D02*
X157390476Y-88931561D01*
X157390476Y-88931561D02*
X157352381Y-88969657D01*
X157352381Y-88969657D02*
X157276190Y-89007752D01*
X157276190Y-89007752D02*
X157123809Y-89007752D01*
X157123809Y-89007752D02*
X157047619Y-89045847D01*
X157047619Y-89045847D02*
X157009524Y-89083942D01*
X157009524Y-89083942D02*
X156971428Y-89160133D01*
X156971428Y-89160133D02*
X156971428Y-89312514D01*
X156971428Y-89312514D02*
X157009524Y-89388704D01*
X157009524Y-89388704D02*
X157047619Y-89426800D01*
X157047619Y-89426800D02*
X157123809Y-89464895D01*
X157123809Y-89464895D02*
X157276190Y-89464895D01*
X157276190Y-89464895D02*
X157352381Y-89426800D01*
X157352381Y-89426800D02*
X157390476Y-89388704D01*
X157390476Y-89388704D02*
X157428571Y-89312514D01*
X157428571Y-89312514D02*
X157428571Y-89160133D01*
X157428571Y-89160133D02*
X157390476Y-89083942D01*
X157390476Y-89083942D02*
X157352381Y-89045847D01*
X157352381Y-89045847D02*
X157276190Y-89007752D01*
X150266667Y-61664895D02*
X150000000Y-61283942D01*
X149809524Y-61664895D02*
X149809524Y-60864895D01*
X149809524Y-60864895D02*
X150114286Y-60864895D01*
X150114286Y-60864895D02*
X150190476Y-60902990D01*
X150190476Y-60902990D02*
X150228571Y-60941085D01*
X150228571Y-60941085D02*
X150266667Y-61017276D01*
X150266667Y-61017276D02*
X150266667Y-61131561D01*
X150266667Y-61131561D02*
X150228571Y-61207752D01*
X150228571Y-61207752D02*
X150190476Y-61245847D01*
X150190476Y-61245847D02*
X150114286Y-61283942D01*
X150114286Y-61283942D02*
X149809524Y-61283942D01*
X151028571Y-60902990D02*
X150952381Y-60864895D01*
X150952381Y-60864895D02*
X150838095Y-60864895D01*
X150838095Y-60864895D02*
X150723809Y-60902990D01*
X150723809Y-60902990D02*
X150647619Y-60979180D01*
X150647619Y-60979180D02*
X150609524Y-61055371D01*
X150609524Y-61055371D02*
X150571428Y-61207752D01*
X150571428Y-61207752D02*
X150571428Y-61322038D01*
X150571428Y-61322038D02*
X150609524Y-61474419D01*
X150609524Y-61474419D02*
X150647619Y-61550609D01*
X150647619Y-61550609D02*
X150723809Y-61626800D01*
X150723809Y-61626800D02*
X150838095Y-61664895D01*
X150838095Y-61664895D02*
X150914286Y-61664895D01*
X150914286Y-61664895D02*
X151028571Y-61626800D01*
X151028571Y-61626800D02*
X151066667Y-61588704D01*
X151066667Y-61588704D02*
X151066667Y-61322038D01*
X151066667Y-61322038D02*
X150914286Y-61322038D01*
X151676190Y-61245847D02*
X151790476Y-61283942D01*
X151790476Y-61283942D02*
X151828571Y-61322038D01*
X151828571Y-61322038D02*
X151866667Y-61398228D01*
X151866667Y-61398228D02*
X151866667Y-61512514D01*
X151866667Y-61512514D02*
X151828571Y-61588704D01*
X151828571Y-61588704D02*
X151790476Y-61626800D01*
X151790476Y-61626800D02*
X151714286Y-61664895D01*
X151714286Y-61664895D02*
X151409524Y-61664895D01*
X151409524Y-61664895D02*
X151409524Y-60864895D01*
X151409524Y-60864895D02*
X151676190Y-60864895D01*
X151676190Y-60864895D02*
X151752381Y-60902990D01*
X151752381Y-60902990D02*
X151790476Y-60941085D01*
X151790476Y-60941085D02*
X151828571Y-61017276D01*
X151828571Y-61017276D02*
X151828571Y-61093466D01*
X151828571Y-61093466D02*
X151790476Y-61169657D01*
X151790476Y-61169657D02*
X151752381Y-61207752D01*
X151752381Y-61207752D02*
X151676190Y-61245847D01*
X151676190Y-61245847D02*
X151409524Y-61245847D01*
X152628571Y-61664895D02*
X152171428Y-61664895D01*
X152400000Y-61664895D02*
X152400000Y-60864895D01*
X152400000Y-60864895D02*
X152323809Y-60979180D01*
X152323809Y-60979180D02*
X152247619Y-61055371D01*
X152247619Y-61055371D02*
X152171428Y-61093466D01*
X197088704Y-40583332D02*
X197126800Y-40621428D01*
X197126800Y-40621428D02*
X197164895Y-40735713D01*
X197164895Y-40735713D02*
X197164895Y-40811904D01*
X197164895Y-40811904D02*
X197126800Y-40926190D01*
X197126800Y-40926190D02*
X197050609Y-41002380D01*
X197050609Y-41002380D02*
X196974419Y-41040475D01*
X196974419Y-41040475D02*
X196822038Y-41078571D01*
X196822038Y-41078571D02*
X196707752Y-41078571D01*
X196707752Y-41078571D02*
X196555371Y-41040475D01*
X196555371Y-41040475D02*
X196479180Y-41002380D01*
X196479180Y-41002380D02*
X196402990Y-40926190D01*
X196402990Y-40926190D02*
X196364895Y-40811904D01*
X196364895Y-40811904D02*
X196364895Y-40735713D01*
X196364895Y-40735713D02*
X196402990Y-40621428D01*
X196402990Y-40621428D02*
X196441085Y-40583332D01*
X196441085Y-40278571D02*
X196402990Y-40240475D01*
X196402990Y-40240475D02*
X196364895Y-40164285D01*
X196364895Y-40164285D02*
X196364895Y-39973809D01*
X196364895Y-39973809D02*
X196402990Y-39897618D01*
X196402990Y-39897618D02*
X196441085Y-39859523D01*
X196441085Y-39859523D02*
X196517276Y-39821428D01*
X196517276Y-39821428D02*
X196593466Y-39821428D01*
X196593466Y-39821428D02*
X196707752Y-39859523D01*
X196707752Y-39859523D02*
X197164895Y-40316666D01*
X197164895Y-40316666D02*
X197164895Y-39821428D01*
X192546667Y-64907395D02*
X192280000Y-64526442D01*
X192089524Y-64907395D02*
X192089524Y-64107395D01*
X192089524Y-64107395D02*
X192394286Y-64107395D01*
X192394286Y-64107395D02*
X192470476Y-64145490D01*
X192470476Y-64145490D02*
X192508571Y-64183585D01*
X192508571Y-64183585D02*
X192546667Y-64259776D01*
X192546667Y-64259776D02*
X192546667Y-64374061D01*
X192546667Y-64374061D02*
X192508571Y-64450252D01*
X192508571Y-64450252D02*
X192470476Y-64488347D01*
X192470476Y-64488347D02*
X192394286Y-64526442D01*
X192394286Y-64526442D02*
X192089524Y-64526442D01*
X193232381Y-64374061D02*
X193232381Y-64907395D01*
X193041905Y-64069300D02*
X192851428Y-64640728D01*
X192851428Y-64640728D02*
X193346667Y-64640728D01*
%TO.C,LED1*%
D13*
X149540000Y-36255000D02*
X149540000Y-39345000D01*
X149540000Y-36255170D02*
G75*
G02*
X155090000Y-37800000I2560000J-1544830D01*
G01*
X155090000Y-37800000D02*
G75*
G02*
X149540000Y-39344830I-2990000J0D01*
G01*
X154600000Y-37800000D02*
G75*
G02*
X149600000Y-37800000I-2500000J0D01*
G01*
X149600000Y-37800000D02*
G75*
G02*
X154600000Y-37800000I2500000J0D01*
G01*
%TO.C,R15*%
X176915000Y-95264564D02*
X176915000Y-94810436D01*
X178385000Y-95264564D02*
X178385000Y-94810436D01*
%TO.C,R10*%
X182135436Y-66565000D02*
X182589564Y-66565000D01*
X182135436Y-68035000D02*
X182589564Y-68035000D01*
D14*
%TO.C,G\u002A\u002A\u002A*%
G36*
X176481993Y-79556293D02*
G01*
X176558542Y-79574058D01*
X176630657Y-79601614D01*
X176696979Y-79638624D01*
X176711329Y-79648479D01*
X176745483Y-79675093D01*
X176768642Y-79698344D01*
X176780721Y-79718147D01*
X176781345Y-79720026D01*
X176781526Y-79740010D01*
X176770602Y-79760181D01*
X176749149Y-79779731D01*
X176730315Y-79791462D01*
X176620602Y-79856998D01*
X176519194Y-79929290D01*
X176423864Y-80009946D01*
X176410279Y-80022558D01*
X176379434Y-80050767D01*
X176353925Y-80072146D01*
X176331249Y-80088579D01*
X176308902Y-80101951D01*
X176295996Y-80108609D01*
X176234675Y-80132879D01*
X176171441Y-80146083D01*
X176106032Y-80148194D01*
X176038189Y-80139183D01*
X175967651Y-80119024D01*
X175894157Y-80087689D01*
X175844277Y-80061085D01*
X175822626Y-80048925D01*
X175805124Y-80039574D01*
X175793989Y-80034189D01*
X175791175Y-80033391D01*
X175788626Y-80039346D01*
X175783186Y-80053809D01*
X175775810Y-80074217D01*
X175771655Y-80085953D01*
X175751025Y-80152013D01*
X175731948Y-80227740D01*
X175714769Y-80311141D01*
X175699832Y-80400224D01*
X175687482Y-80492998D01*
X175678063Y-80587470D01*
X175673329Y-80654745D01*
X175669370Y-80723403D01*
X175971912Y-80725072D01*
X176274453Y-80726742D01*
X176290699Y-80742992D01*
X176306945Y-80759241D01*
X176306945Y-80908421D01*
X176306945Y-81057601D01*
X176290734Y-81073812D01*
X176281062Y-81082243D01*
X176270575Y-81087383D01*
X176255815Y-81090256D01*
X176233322Y-81091886D01*
X176228995Y-81092090D01*
X176183467Y-81094158D01*
X176129662Y-81557713D01*
X176119869Y-81642033D01*
X176111310Y-81715487D01*
X176103874Y-81778853D01*
X176097449Y-81832910D01*
X176091923Y-81878435D01*
X176087184Y-81916207D01*
X176083120Y-81947003D01*
X176079620Y-81971602D01*
X176076571Y-81990782D01*
X176073863Y-82005320D01*
X176071382Y-82015995D01*
X176069017Y-82023584D01*
X176066656Y-82028867D01*
X176064188Y-82032620D01*
X176061500Y-82035622D01*
X176060870Y-82036257D01*
X176045884Y-82051245D01*
X175625514Y-82052542D01*
X175543176Y-82052765D01*
X175471771Y-82052884D01*
X175410516Y-82052885D01*
X175358622Y-82052756D01*
X175315304Y-82052484D01*
X175279777Y-82052057D01*
X175251252Y-82051462D01*
X175228945Y-82050687D01*
X175212069Y-82049718D01*
X175199838Y-82048544D01*
X175191466Y-82047152D01*
X175186166Y-82045529D01*
X175186102Y-82045501D01*
X175171413Y-82036041D01*
X175161665Y-82024425D01*
X175161331Y-82023692D01*
X175159750Y-82015808D01*
X175156969Y-81997214D01*
X175153105Y-81968849D01*
X175148275Y-81931651D01*
X175142596Y-81886557D01*
X175136184Y-81834504D01*
X175129156Y-81776432D01*
X175121628Y-81713277D01*
X175113718Y-81645978D01*
X175105542Y-81575473D01*
X175105327Y-81573604D01*
X175097162Y-81502789D01*
X175089323Y-81434974D01*
X175081922Y-81371119D01*
X175075070Y-81312183D01*
X175068881Y-81259126D01*
X175063466Y-81212908D01*
X175058938Y-81174488D01*
X175055408Y-81144828D01*
X175052989Y-81124886D01*
X175051794Y-81115623D01*
X175051790Y-81115600D01*
X175049317Y-81099380D01*
X175155329Y-81099380D01*
X175155992Y-81106715D01*
X175157893Y-81124545D01*
X175160897Y-81151725D01*
X175164873Y-81187110D01*
X175169688Y-81229554D01*
X175175208Y-81277912D01*
X175181301Y-81331037D01*
X175187833Y-81387785D01*
X175194673Y-81447011D01*
X175201686Y-81507568D01*
X175208741Y-81568311D01*
X175215704Y-81628095D01*
X175222442Y-81685775D01*
X175228823Y-81740204D01*
X175234713Y-81790237D01*
X175239980Y-81834730D01*
X175244490Y-81872536D01*
X175248111Y-81902510D01*
X175250710Y-81923506D01*
X175252154Y-81934380D01*
X175252342Y-81935498D01*
X175255184Y-81948684D01*
X175617223Y-81948684D01*
X175979263Y-81948684D01*
X176027550Y-81528184D01*
X176035465Y-81459136D01*
X176042970Y-81393421D01*
X176049961Y-81331977D01*
X176056332Y-81275743D01*
X176061977Y-81225657D01*
X176066791Y-81182658D01*
X176070668Y-81147684D01*
X176073503Y-81121675D01*
X176075190Y-81105568D01*
X176075643Y-81100357D01*
X176069928Y-81099049D01*
X176053577Y-81097855D01*
X176027668Y-81096777D01*
X175993281Y-81095816D01*
X175951497Y-81094973D01*
X175903396Y-81094248D01*
X175850058Y-81093644D01*
X175792562Y-81093162D01*
X175731988Y-81092802D01*
X175669417Y-81092565D01*
X175605928Y-81092454D01*
X175542602Y-81092468D01*
X175480518Y-81092609D01*
X175420756Y-81092879D01*
X175364396Y-81093278D01*
X175312518Y-81093808D01*
X175266202Y-81094469D01*
X175226529Y-81095264D01*
X175194577Y-81096192D01*
X175171427Y-81097255D01*
X175158159Y-81098455D01*
X175155329Y-81099380D01*
X175049317Y-81099380D01*
X175048529Y-81094213D01*
X175001731Y-81092088D01*
X174977764Y-81090644D01*
X174962297Y-81088320D01*
X174952113Y-81084137D01*
X174943992Y-81077118D01*
X174940849Y-81073588D01*
X174936512Y-81068311D01*
X174933172Y-81062818D01*
X174930698Y-81055605D01*
X174928960Y-81045167D01*
X174927828Y-81029999D01*
X174927173Y-81008598D01*
X174926950Y-80987540D01*
X175026395Y-80987540D01*
X175615389Y-80987540D01*
X176204383Y-80987540D01*
X176204383Y-80908421D01*
X176204383Y-80829303D01*
X175615389Y-80829303D01*
X175026395Y-80829303D01*
X175026395Y-80908421D01*
X175026395Y-80987540D01*
X174926950Y-80987540D01*
X174926864Y-80979457D01*
X174926771Y-80941072D01*
X174926765Y-80910640D01*
X174926776Y-80908421D01*
X174927031Y-80859198D01*
X174927813Y-80817053D01*
X174929087Y-80784805D01*
X174930829Y-80763052D01*
X174933015Y-80752394D01*
X174933097Y-80752233D01*
X174936754Y-80746108D01*
X174941269Y-80740932D01*
X174947595Y-80736625D01*
X174956682Y-80733107D01*
X174969485Y-80730298D01*
X174986956Y-80728120D01*
X175010047Y-80726491D01*
X175039710Y-80725334D01*
X175076898Y-80724567D01*
X175122564Y-80724112D01*
X175177660Y-80723888D01*
X175243138Y-80723815D01*
X175272869Y-80723811D01*
X175566604Y-80723811D01*
X175563450Y-80701834D01*
X175561262Y-80684360D01*
X175558701Y-80660685D01*
X175556589Y-80638832D01*
X175552315Y-80602851D01*
X175545517Y-80559057D01*
X175536857Y-80510914D01*
X175526995Y-80461889D01*
X175516591Y-80415448D01*
X175506341Y-80375179D01*
X175499159Y-80349515D01*
X175493075Y-80328415D01*
X175488768Y-80314197D01*
X175486967Y-80309195D01*
X175481343Y-80310817D01*
X175467551Y-80316488D01*
X175447997Y-80325189D01*
X175435543Y-80330952D01*
X175374273Y-80355235D01*
X175316635Y-80368781D01*
X175261820Y-80371705D01*
X175209023Y-80364119D01*
X175205350Y-80363189D01*
X175171383Y-80352095D01*
X175139850Y-80336503D01*
X175108000Y-80314740D01*
X175073081Y-80285134D01*
X175065634Y-80278262D01*
X175016009Y-80234485D01*
X174966537Y-80196501D01*
X174912421Y-80160742D01*
X174888053Y-80146056D01*
X174861092Y-80129903D01*
X174842571Y-80117772D01*
X174830688Y-80107986D01*
X174823642Y-80098866D01*
X174819631Y-80088735D01*
X174817754Y-80080593D01*
X174819335Y-80067206D01*
X174975250Y-80067206D01*
X174979228Y-80076015D01*
X174993572Y-80088223D01*
X175017991Y-80105268D01*
X175045026Y-80124860D01*
X175075605Y-80148928D01*
X175104983Y-80173668D01*
X175118822Y-80186103D01*
X175150299Y-80214554D01*
X175175979Y-80235521D01*
X175198105Y-80250046D01*
X175218924Y-80259171D01*
X175240680Y-80263938D01*
X175265619Y-80265389D01*
X175288570Y-80264896D01*
X175311779Y-80263500D01*
X175330274Y-80260767D01*
X175347908Y-80255597D01*
X175368533Y-80246893D01*
X175392675Y-80235209D01*
X175448519Y-80207487D01*
X175430937Y-80181931D01*
X175396849Y-80142201D01*
X175353917Y-80107849D01*
X175304009Y-80079506D01*
X175248997Y-80057798D01*
X175190752Y-80043356D01*
X175131142Y-80036807D01*
X175072039Y-80038780D01*
X175028006Y-80046513D01*
X174999389Y-80053920D01*
X174981887Y-80060329D01*
X174975250Y-80067206D01*
X174819335Y-80067206D01*
X174819868Y-80062697D01*
X174831883Y-80042586D01*
X174852453Y-80021345D01*
X174880233Y-80000062D01*
X174913877Y-79979823D01*
X174952040Y-79961715D01*
X174976636Y-79952293D01*
X174995622Y-79945953D01*
X175012116Y-79941489D01*
X175028880Y-79938569D01*
X175048676Y-79936863D01*
X175074264Y-79936036D01*
X175108405Y-79935759D01*
X175114305Y-79935745D01*
X175151846Y-79935917D01*
X175180550Y-79936796D01*
X175203295Y-79938657D01*
X175222957Y-79941777D01*
X175242414Y-79946429D01*
X175250950Y-79948830D01*
X175319449Y-79972213D01*
X175378511Y-80000244D01*
X175429825Y-80033893D01*
X175475084Y-80074128D01*
X175481707Y-80081061D01*
X175503950Y-80106199D01*
X175522115Y-80130415D01*
X175537666Y-80156352D01*
X175552067Y-80186653D01*
X175566783Y-80223961D01*
X175577381Y-80253711D01*
X175604368Y-80331580D01*
X175615062Y-80274223D01*
X175632432Y-80193632D01*
X175653877Y-80115055D01*
X175678623Y-80040759D01*
X175705895Y-79973012D01*
X175724030Y-79936189D01*
X175841861Y-79936189D01*
X175854629Y-79944309D01*
X175908256Y-79976832D01*
X175955322Y-80001835D01*
X175997528Y-80020119D01*
X176036569Y-80032480D01*
X176047773Y-80035121D01*
X176083820Y-80040694D01*
X176123008Y-80043059D01*
X176160572Y-80042131D01*
X176191748Y-80037821D01*
X176191990Y-80037766D01*
X176223675Y-80028023D01*
X176254668Y-80013030D01*
X176286994Y-79991518D01*
X176322678Y-79962220D01*
X176344531Y-79942270D01*
X176401362Y-79890888D01*
X176455927Y-79846053D01*
X176512393Y-79804512D01*
X176570129Y-79766068D01*
X176598816Y-79747735D01*
X176618001Y-79734487D01*
X176627817Y-79724734D01*
X176628396Y-79716882D01*
X176619872Y-79709341D01*
X176602376Y-79700519D01*
X176576534Y-79689044D01*
X176514760Y-79667709D01*
X176447691Y-79655645D01*
X176376862Y-79652601D01*
X176303811Y-79658324D01*
X176230073Y-79672561D01*
X176157186Y-79695060D01*
X176086686Y-79725570D01*
X176020110Y-79763837D01*
X175989197Y-79785484D01*
X175960871Y-79808314D01*
X175930655Y-79835461D01*
X175901306Y-79864210D01*
X175875577Y-79891848D01*
X175856226Y-79915661D01*
X175854353Y-79918291D01*
X175841861Y-79936189D01*
X175724030Y-79936189D01*
X175734917Y-79914083D01*
X175742933Y-79900013D01*
X175765554Y-79866494D01*
X175795538Y-79829142D01*
X175830427Y-79790515D01*
X175867761Y-79753174D01*
X175905080Y-79719680D01*
X175939924Y-79692592D01*
X175946562Y-79688047D01*
X176032258Y-79637395D01*
X176120300Y-79598147D01*
X176211129Y-79570142D01*
X176305190Y-79553219D01*
X176321014Y-79551484D01*
X176402364Y-79548656D01*
X176481993Y-79556293D01*
G37*
%TO.C,R11*%
D13*
X172690000Y-73789564D02*
X172690000Y-73335436D01*
X174160000Y-73789564D02*
X174160000Y-73335436D01*
%TO.C,D3*%
X164650000Y-45590000D02*
X164650000Y-51100000D01*
X167950000Y-45590000D02*
X164650000Y-45590000D01*
X167950000Y-45590000D02*
X167950000Y-51100000D01*
%TO.C,D2*%
X159800000Y-45590000D02*
X159800000Y-51400000D01*
X164100000Y-45590000D02*
X159800000Y-45590000D01*
X164100000Y-45590000D02*
X164100000Y-51400000D01*
%TO.C,C1*%
X176780000Y-41845000D02*
X176780000Y-43755000D01*
X176780000Y-43755000D02*
X180700000Y-43755000D01*
X180700000Y-41845000D02*
X176780000Y-41845000D01*
%TO.C,D6*%
X181575000Y-89640000D02*
X181575000Y-95150000D01*
X184875000Y-89640000D02*
X181575000Y-89640000D01*
X184875000Y-89640000D02*
X184875000Y-95150000D01*
%TO.C,D9*%
X163550000Y-96760000D02*
X163550000Y-91250000D01*
X160250000Y-96760000D02*
X163550000Y-96760000D01*
X160250000Y-96760000D02*
X160250000Y-91250000D01*
%TO.C,C10*%
X176611252Y-72127500D02*
X176088748Y-72127500D01*
X176611252Y-73597500D02*
X176088748Y-73597500D01*
%TO.C,C6*%
X169627500Y-55245000D02*
X169627500Y-57155000D01*
X169627500Y-57155000D02*
X173547500Y-57155000D01*
X173547500Y-55245000D02*
X169627500Y-55245000D01*
%TO.C,D11*%
X172900000Y-96710000D02*
X172900000Y-91200000D01*
X172900000Y-96710000D02*
X176200000Y-96710000D01*
X176200000Y-96710000D02*
X176200000Y-91200000D01*
%TO.C,R17*%
X165735000Y-91689564D02*
X165735000Y-91235436D01*
X164265000Y-91689564D02*
X164265000Y-91235436D01*
%TO.C,F1*%
X157786252Y-45840000D02*
X155013748Y-45840000D01*
X157786252Y-49260000D02*
X155013748Y-49260000D01*
%TO.C,STLink1*%
X151420000Y-76320000D02*
X152800000Y-76320000D01*
X151420000Y-77700000D02*
X151420000Y-76320000D01*
X151420000Y-78970000D02*
X151420000Y-86700000D01*
X151420000Y-78970000D02*
X154180000Y-78970000D01*
X151420000Y-86700000D02*
X154180000Y-86700000D01*
X154180000Y-78970000D02*
X154180000Y-86700000D01*
%TO.C,R9*%
X192805000Y-49714564D02*
X192805000Y-49260436D01*
X194275000Y-49714564D02*
X194275000Y-49260436D01*
%TO.C,C4*%
X182138748Y-64515000D02*
X182661252Y-64515000D01*
X182138748Y-65985000D02*
X182661252Y-65985000D01*
%TO.C,C12*%
X182263748Y-61140000D02*
X183686252Y-61140000D01*
X182263748Y-63860000D02*
X183686252Y-63860000D01*
%TO.C,R6*%
X194489564Y-35215000D02*
X194035436Y-35215000D01*
X194489564Y-36685000D02*
X194035436Y-36685000D01*
%TO.C,C14*%
X189836252Y-87615000D02*
X189313748Y-87615000D01*
X189836252Y-89085000D02*
X189313748Y-89085000D01*
%TO.C,U1*%
X168690000Y-44300000D02*
X168690000Y-48060000D01*
X168690000Y-48060000D02*
X169950000Y-48060000D01*
X175510000Y-44300000D02*
X175510000Y-48060000D01*
X175510000Y-48060000D02*
X174250000Y-48060000D01*
X175740000Y-43260000D02*
X175410000Y-43020000D01*
X175740000Y-42780000D01*
X175740000Y-43260000D01*
G36*
X175740000Y-43260000D02*
G01*
X175410000Y-43020000D01*
X175740000Y-42780000D01*
X175740000Y-43260000D01*
G37*
%TO.C,D7*%
X185425000Y-96610000D02*
X185425000Y-91100000D01*
X185425000Y-96610000D02*
X188725000Y-96610000D01*
X188725000Y-96610000D02*
X188725000Y-91100000D01*
%TO.C,C13*%
X182138748Y-59065000D02*
X182661252Y-59065000D01*
X182138748Y-60535000D02*
X182661252Y-60535000D01*
%TO.C,R8*%
X194035436Y-37415000D02*
X194489564Y-37415000D01*
X194035436Y-38885000D02*
X194489564Y-38885000D01*
%TO.C,C5*%
X178238748Y-47065000D02*
X178761252Y-47065000D01*
X178238748Y-48535000D02*
X178761252Y-48535000D01*
%TO.C,R16*%
X189540000Y-91489564D02*
X189540000Y-91035436D01*
X191010000Y-91489564D02*
X191010000Y-91035436D01*
%TO.C,C8*%
X165265000Y-66836252D02*
X165265000Y-66313748D01*
X166735000Y-66836252D02*
X166735000Y-66313748D01*
%TO.C,R12*%
X153864564Y-41565000D02*
X153410436Y-41565000D01*
X153864564Y-43035000D02*
X153410436Y-43035000D01*
%TO.C,SW2*%
X170050000Y-100300000D02*
X170050000Y-101800000D01*
X171300000Y-104300000D02*
X175800000Y-104300000D01*
X175800000Y-97800000D02*
X171300000Y-97800000D01*
X177050000Y-101800000D02*
X177050000Y-100300000D01*
%TO.C,C7*%
X167665000Y-57161252D02*
X167665000Y-56638748D01*
X169135000Y-57161252D02*
X169135000Y-56638748D01*
%TO.C,C16*%
X177161252Y-87815000D02*
X176638748Y-87815000D01*
X177161252Y-89285000D02*
X176638748Y-89285000D01*
%TO.C,SW3*%
X182650000Y-100300000D02*
X182650000Y-101800000D01*
X183900000Y-104300000D02*
X188400000Y-104300000D01*
X188400000Y-97800000D02*
X183900000Y-97800000D01*
X189650000Y-101800000D02*
X189650000Y-100300000D01*
%TO.C,J1*%
X158150000Y-29400000D02*
X167350000Y-29400000D01*
X158150000Y-38200000D02*
X158150000Y-29400000D01*
X158150000Y-44100000D02*
X158150000Y-42200000D01*
X160850000Y-44100000D02*
X158150000Y-44100000D01*
X166500000Y-44300000D02*
X167550000Y-44300000D01*
X167350000Y-29400000D02*
X167350000Y-44100000D01*
X167350000Y-44100000D02*
X164750000Y-44100000D01*
X167550000Y-43250000D02*
X167550000Y-44300000D01*
%TO.C,C9*%
X177488748Y-55515000D02*
X178011252Y-55515000D01*
X177488748Y-56985000D02*
X178011252Y-56985000D01*
%TO.C,Buzzer1*%
X162000000Y-67300000D02*
G75*
G02*
X149800000Y-67300000I-6100000J0D01*
G01*
X149800000Y-67300000D02*
G75*
G02*
X162000000Y-67300000I6100000J0D01*
G01*
%TO.C,C11*%
X178277500Y-71857500D02*
X178277500Y-73767500D01*
X178277500Y-73767500D02*
X182197500Y-73767500D01*
X182197500Y-71857500D02*
X178277500Y-71857500D01*
%TO.C,OLED1*%
X186200000Y-69100000D02*
X187530000Y-69100000D01*
X186200000Y-70430000D02*
X186200000Y-69100000D01*
X188800000Y-69100000D02*
X196480000Y-69100000D01*
X188800000Y-71760000D02*
X188800000Y-69100000D01*
X188800000Y-71760000D02*
X196480000Y-71760000D01*
X196480000Y-71760000D02*
X196480000Y-69100000D01*
%TO.C,Q1*%
X184180000Y-42640000D02*
X194400000Y-42640000D01*
X184180000Y-44020000D02*
X194400000Y-44020000D01*
X184180000Y-47260000D02*
X184180000Y-42640000D01*
X187440000Y-42640000D02*
X187440000Y-44020000D01*
X191140000Y-42640000D02*
X191140000Y-44020000D01*
X194400000Y-42640000D02*
X194400000Y-47260000D01*
X194400000Y-47260000D02*
X184180000Y-47260000D01*
%TO.C,R3*%
X157985436Y-54375000D02*
X158439564Y-54375000D01*
X157985436Y-55845000D02*
X158439564Y-55845000D01*
%TO.C,Hum Sensor1*%
X192020000Y-54570000D02*
X193400000Y-54570000D01*
X192020000Y-55950000D02*
X192020000Y-54570000D01*
X192020000Y-57220000D02*
X192020000Y-62410000D01*
X192020000Y-57220000D02*
X194780000Y-57220000D01*
X192020000Y-62410000D02*
X194780000Y-62410000D01*
X194780000Y-57220000D02*
X194780000Y-62410000D01*
%TO.C,R13*%
X189555000Y-95057064D02*
X189555000Y-94602936D01*
X191025000Y-95057064D02*
X191025000Y-94602936D01*
%TO.C,D4*%
X182480000Y-47950000D02*
X182480000Y-51250000D01*
X182480000Y-47950000D02*
X187990000Y-47950000D01*
X182480000Y-51250000D02*
X187990000Y-51250000D01*
%TO.C,D10*%
X168900000Y-89740000D02*
X168900000Y-95250000D01*
X172200000Y-89740000D02*
X168900000Y-89740000D01*
X172200000Y-89740000D02*
X172200000Y-95250000D01*
%TO.C,SW1*%
X157350000Y-100300000D02*
X157350000Y-101800000D01*
X158600000Y-104300000D02*
X163100000Y-104300000D01*
X163100000Y-97800000D02*
X158600000Y-97800000D01*
X164350000Y-101800000D02*
X164350000Y-100300000D01*
%TO.C,R2*%
X157985436Y-56575000D02*
X158439564Y-56575000D01*
X157985436Y-58045000D02*
X158439564Y-58045000D01*
%TO.C,L1*%
X182312779Y-57440000D02*
X181987221Y-57440000D01*
X182312779Y-58460000D02*
X181987221Y-58460000D01*
%TO.C,R14*%
X165735000Y-95314564D02*
X165735000Y-94860436D01*
X164265000Y-95314564D02*
X164265000Y-94860436D01*
%TO.C,C3*%
X176732500Y-44445000D02*
X176732500Y-46355000D01*
X176732500Y-46355000D02*
X180652500Y-46355000D01*
X180652500Y-44445000D02*
X176732500Y-44445000D01*
%TO.C,U2*%
X168692500Y-58990000D02*
X169642500Y-58990000D01*
X168692500Y-59940000D02*
X168692500Y-58990000D01*
X168692500Y-69210000D02*
X168692500Y-68260000D01*
X169642500Y-69210000D02*
X168692500Y-69210000D01*
X177962500Y-58990000D02*
X178912500Y-58990000D01*
X178912500Y-58990000D02*
X178912500Y-59940000D01*
X178912500Y-68260000D02*
X178912500Y-69210000D01*
X178912500Y-69210000D02*
X177962500Y-69210000D01*
X179892500Y-68730000D02*
X179212500Y-68730000D01*
X179552500Y-68260000D01*
X179892500Y-68730000D01*
G36*
X179892500Y-68730000D02*
G01*
X179212500Y-68730000D01*
X179552500Y-68260000D01*
X179892500Y-68730000D01*
G37*
%TO.C,R7*%
X190305000Y-49689564D02*
X190305000Y-49235436D01*
X191775000Y-49689564D02*
X191775000Y-49235436D01*
%TO.C,R5*%
X194465000Y-66595436D02*
X194465000Y-67049564D01*
X195935000Y-66595436D02*
X195935000Y-67049564D01*
%TO.C,J6*%
X168755000Y-29607500D02*
X176195000Y-29607500D01*
X168755000Y-39647500D02*
X168755000Y-29607500D01*
X176795000Y-29607500D02*
X179155000Y-29607500D01*
X179155000Y-29607500D02*
X179155000Y-39647500D01*
X179155000Y-30227500D02*
X168755000Y-30227500D01*
X179155000Y-31727500D02*
X168755000Y-31727500D01*
X179155000Y-36627500D02*
X168755000Y-36627500D01*
X179155000Y-39647500D02*
X168755000Y-39647500D01*
X176495000Y-29607500D02*
X176055000Y-28997500D01*
X176935000Y-28997500D01*
X176495000Y-29607500D01*
G36*
X176495000Y-29607500D02*
G01*
X176055000Y-28997500D01*
X176935000Y-28997500D01*
X176495000Y-29607500D01*
G37*
%TO.C,R18*%
X176915000Y-91627064D02*
X176915000Y-91172936D01*
X178385000Y-91627064D02*
X178385000Y-91172936D01*
%TO.C,J5*%
X180940000Y-29530000D02*
X188380000Y-29530000D01*
X180940000Y-39570000D02*
X180940000Y-29530000D01*
X188980000Y-29530000D02*
X191340000Y-29530000D01*
X191340000Y-29530000D02*
X191340000Y-39570000D01*
X191340000Y-30150000D02*
X180940000Y-30150000D01*
X191340000Y-31650000D02*
X180940000Y-31650000D01*
X191340000Y-36550000D02*
X180940000Y-36550000D01*
X191340000Y-39570000D02*
X180940000Y-39570000D01*
X188680000Y-29530000D02*
X188240000Y-28920000D01*
X189120000Y-28920000D01*
X188680000Y-29530000D01*
G36*
X188680000Y-29530000D02*
G01*
X188240000Y-28920000D01*
X189120000Y-28920000D01*
X188680000Y-29530000D01*
G37*
%TO.C,C15*%
X164511252Y-89335000D02*
X163988748Y-89335000D01*
X164511252Y-87865000D02*
X163988748Y-87865000D01*
%TO.C,R1*%
X157985436Y-58725000D02*
X158439564Y-58725000D01*
X157985436Y-60195000D02*
X158439564Y-60195000D01*
%TO.C,D8*%
X159600000Y-89790000D02*
X159600000Y-95300000D01*
X159600000Y-89790000D02*
X156300000Y-89790000D01*
X156300000Y-89790000D02*
X156300000Y-95300000D01*
%TO.C,RGB1*%
X151920000Y-54835000D02*
X151455000Y-54835000D01*
X154545000Y-54835000D02*
X154080000Y-54835000D01*
X151920000Y-59649684D02*
G75*
G02*
X151920000Y-55140316I1080000J2254684D01*
G01*
X151920000Y-60183136D02*
G75*
G02*
X151455170Y-54835000I1080000J2788136D01*
G01*
X154080000Y-55140316D02*
G75*
G02*
X154080000Y-59649684I-1080000J-2254684D01*
G01*
X154544830Y-54835000D02*
G75*
G02*
X154080000Y-60183136I-1544830J-2560000D01*
G01*
%TO.C,C2*%
X194561252Y-39615000D02*
X194038748Y-39615000D01*
X194561252Y-41085000D02*
X194038748Y-41085000D01*
%TO.C,R4*%
X191945000Y-66602936D02*
X191945000Y-67057064D01*
X193415000Y-66602936D02*
X193415000Y-67057064D01*
%TD*%
M02*
