M48
; DRILL file KiCad 10.0.0 date 2026-09-10T08:46:21
; FORMAT={-:-/ absolute / metric / decimal}
; #@! TF.CreationDate,2026-09-10T08:46:21+02:00
; #@! TF.GenerationSoftware,Kicad,Pcbnew,10.0.0
; #@! TF.FileFunction,MixedPlating,1,2
FMAT,2
METRIC
; #@! TA.AperFunction,Plated,PTH,ViaDrill
T1C0.300
; #@! TA.AperFunction,Plated,PTH,ComponentDrill
T2C0.700
; #@! TA.AperFunction,Plated,PTH,ComponentDrill
T3C0.900
; #@! TA.AperFunction,Plated,PTH,ComponentDrill
T4C1.000
; #@! TA.AperFunction,Plated,PTH,ComponentDrill
T5C1.100
; #@! TA.AperFunction,Plated,PTH,ComponentDrill
T6C1.300
; #@! TA.AperFunction,NonPlated,NPTH,ComponentDrill
T7C2.200
%
G90
G05
T1
X156.6Y-78.4
X158.0Y-35.1
X158.0Y-35.9
X158.0Y-36.7
X158.0Y-37.5
X158.0Y-77.0
X158.8Y-35.1
X158.8Y-35.9
X158.8Y-36.7
X158.8Y-37.5
X159.5Y-42.5
X159.5Y-44.0
X159.5Y-44.8
X159.6Y-35.1
X159.6Y-35.9
X159.6Y-36.7
X159.6Y-37.5
X160.3Y-42.5
X160.3Y-44.0
X160.3Y-44.8
X161.1Y-40.8
X161.4Y-32.9
X161.4Y-33.7
X161.4Y-34.5
X161.6Y-60.9
X161.9Y-40.8
X162.2Y-32.9
X162.2Y-33.7
X162.2Y-34.5
X162.5Y-70.4
X162.5Y-84.85
X162.7Y-40.8
X163.0Y-32.9
X163.0Y-33.7
X163.0Y-34.5
X163.2Y-57.25
X163.5Y-40.8
X163.8Y-32.9
X163.8Y-33.7
X163.8Y-34.5
X164.0Y-63.3
X164.3Y-40.8
X165.2Y-73.1
X165.4Y-41.1
X165.4Y-41.9
X165.4Y-42.7
X165.4Y-43.5
X165.4Y-44.3
X165.4Y-45.0
X165.5Y-35.9
X165.5Y-36.7
X165.5Y-37.5
X165.5Y-38.3
X166.2Y-41.1
X166.2Y-41.9
X166.2Y-42.7
X166.2Y-43.5
X166.2Y-44.3
X166.2Y-45.0
X166.3Y-35.9
X166.3Y-36.7
X166.3Y-37.5
X166.3Y-38.3
X166.3Y-68.7
X166.9Y-85.6
X167.0Y-41.1
X167.0Y-41.9
X167.0Y-42.7
X167.0Y-43.5
X167.0Y-44.3
X167.1Y-35.9
X167.1Y-36.7
X167.1Y-37.5
X167.1Y-38.3
X168.9Y-50.9
X168.9Y-51.7
X169.5Y-44.6
X169.5Y-45.4
X169.5Y-64.95
X169.6Y-46.9
X169.6Y-47.7
X169.7Y-50.9
X169.7Y-51.7
X170.3Y-44.6
X170.3Y-45.4
X170.4Y-46.9
X170.4Y-47.7
X170.5Y-50.9
X170.5Y-51.7
X171.1Y-44.6
X171.1Y-45.4
X171.2Y-46.9
X171.2Y-47.7
X171.3Y-63.7
X171.4Y-50.9
X171.4Y-51.7
X171.7Y-65.6
X172.2Y-50.9
X172.2Y-51.7
X172.9Y-45.0
X172.9Y-45.8
X172.9Y-46.5
X172.9Y-47.3
X173.0Y-50.9
X173.0Y-51.7
X173.7Y-45.0
X173.7Y-45.8
X173.85Y-60.15
X174.5Y-45.0
X174.5Y-45.8
X174.8Y-47.9
X174.8Y-48.7
X174.8Y-49.5
X175.3Y-53.5
X175.3Y-56.6
X175.3Y-60.6
X175.6Y-47.9
X175.6Y-48.7
X175.6Y-49.5
X175.6Y-71.4
X175.7Y-67.4
X175.95Y-85.4
X176.2Y-68.3
X176.7Y-71.3
X177.0Y-38.5
X177.0Y-51.3
X177.202Y-64.0
X177.45Y-65.75
X177.5Y-60.1
X177.915Y-67.39
X178.5Y-54.1
X179.325Y-68.8
X179.4Y-52.1
X179.45Y-85.15
X179.9Y-36.6
X181.03Y-55.99
X181.55Y-53.0
X182.1Y-54.93
X183.6Y-55.5
X184.9Y-43.0
X184.9Y-43.8
X185.0Y-45.0
X185.0Y-45.8
X185.0Y-46.6
X185.0Y-47.6
X185.7Y-43.0
X185.7Y-43.8
X185.9Y-47.6
X185.95Y-55.4
X186.5Y-43.0
X186.5Y-43.8
X186.7Y-47.6
X187.1Y-61.05
X187.5Y-47.6
X187.8Y-43.0
X188.3Y-44.5
X188.375Y-66.55
X188.5Y-79.25
X188.6Y-43.0
X189.35Y-62.9
X189.4Y-43.0
X190.3Y-44.5
X190.6Y-43.0
X191.2Y-74.24
X191.28Y-72.77
X191.4Y-43.0
X192.2Y-43.0
X192.65Y-77.85
X193.7Y-45.0
X193.7Y-45.8
X193.7Y-46.6
T2
X153.0Y-55.49
X153.0Y-56.76
X153.0Y-58.03
X153.0Y-59.3
T3
X150.83Y-37.8
X153.37Y-37.8
T4
X152.8Y-77.7
X152.8Y-80.24
X152.8Y-82.78
X152.8Y-85.32
X155.9Y-63.5
X155.9Y-71.1
X187.53Y-70.43
X190.07Y-70.43
X192.61Y-70.43
X193.4Y-55.95
X193.4Y-58.49
X193.4Y-61.03
X195.15Y-70.43
T5
X157.6Y-98.8
X157.6Y-103.3
X164.1Y-98.8
X164.1Y-103.3
X170.3Y-98.8
X170.3Y-103.3
X176.8Y-98.8
X176.8Y-103.3
X182.9Y-98.8
X182.9Y-103.3
X186.75Y-45.9
X189.29Y-45.9
X189.4Y-98.8
X189.4Y-103.3
X191.83Y-45.9
T6
X171.415Y-34.328
X176.495Y-34.328
X183.6Y-34.25
X188.68Y-34.25
T7
X151.0Y-30.0
X151.0Y-104.0
X195.0Y-30.0
X195.0Y-104.0
T4
X158.05Y-39.2G85X158.05Y-41.2
G05
X163.75Y-37.2G85X161.75Y-37.2
G05
X163.75Y-43.2G85X161.75Y-43.2
G05
M30
