%TF.GenerationSoftware,KiCad,Pcbnew,10.0.0*%
%TF.CreationDate,2026-09-10T08:44:43+02:00*%
%TF.ProjectId,Self_Watering_POT,53656c66-5f57-4617-9465-72696e675f50,rev?*%
%TF.SameCoordinates,Original*%
%TF.FileFunction,Paste,Top*%
%TF.FilePolarity,Positive*%
%FSLAX46Y46*%
G04 Gerber Fmt 4.6, Leading zero omitted, Abs format (unit mm)*
G04 Created by KiCad (PCBNEW 10.0.0) date 2026-09-10 08:44:43*
%MOMM*%
%LPD*%
G01*
G04 APERTURE LIST*
G04 Aperture macros list*
%AMRoundRect*
0 Rectangle with rounded corners*
0 $1 Rounding radius*
0 $2 $3 $4 $5 $6 $7 $8 $9 X,Y pos of 4 corners*
0 Add a 4 corners polygon primitive as box body*
4,1,4,$2,$3,$4,$5,$6,$7,$8,$9,$2,$3,0*
0 Add four circle primitives for the rounded corners*
1,1,$1+$1,$2,$3*
1,1,$1+$1,$4,$5*
1,1,$1+$1,$6,$7*
1,1,$1+$1,$8,$9*
0 Add four rect primitives between the rounded corners*
20,1,$1+$1,$2,$3,$4,$5,0*
20,1,$1+$1,$4,$5,$6,$7,0*
20,1,$1+$1,$6,$7,$8,$9,0*
20,1,$1+$1,$8,$9,$2,$3,0*%
G04 Aperture macros list end*
%ADD10RoundRect,0.250000X0.450000X-0.262500X0.450000X0.262500X-0.450000X0.262500X-0.450000X-0.262500X0*%
%ADD11RoundRect,0.250000X-0.262500X-0.450000X0.262500X-0.450000X0.262500X0.450000X-0.262500X0.450000X0*%
%ADD12RoundRect,0.250000X-0.650000X1.000000X-0.650000X-1.000000X0.650000X-1.000000X0.650000X1.000000X0*%
%ADD13RoundRect,0.250000X-0.900000X1.000000X-0.900000X-1.000000X0.900000X-1.000000X0.900000X1.000000X0*%
%ADD14RoundRect,0.250000X-0.457500X-0.445000X0.457500X-0.445000X0.457500X0.445000X-0.457500X0.445000X0*%
%ADD15RoundRect,0.250000X0.650000X-1.000000X0.650000X1.000000X-0.650000X1.000000X-0.650000X-1.000000X0*%
%ADD16RoundRect,0.250000X0.250000X0.475000X-0.250000X0.475000X-0.250000X-0.475000X0.250000X-0.475000X0*%
%ADD17RoundRect,0.250000X0.312500X1.450000X-0.312500X1.450000X-0.312500X-1.450000X0.312500X-1.450000X0*%
%ADD18RoundRect,0.250000X-0.250000X-0.475000X0.250000X-0.475000X0.250000X0.475000X-0.250000X0.475000X0*%
%ADD19RoundRect,0.250000X-0.325000X-1.100000X0.325000X-1.100000X0.325000X1.100000X-0.325000X1.100000X0*%
%ADD20RoundRect,0.250000X0.262500X0.450000X-0.262500X0.450000X-0.262500X-0.450000X0.262500X-0.450000X0*%
%ADD21RoundRect,0.375000X-0.375000X0.625000X-0.375000X-0.625000X0.375000X-0.625000X0.375000X0.625000X0*%
%ADD22RoundRect,0.500000X-1.400000X0.500000X-1.400000X-0.500000X1.400000X-0.500000X1.400000X0.500000X0*%
%ADD23RoundRect,0.250000X0.475000X-0.250000X0.475000X0.250000X-0.475000X0.250000X-0.475000X-0.250000X0*%
%ADD24RoundRect,0.250000X-1.000000X-0.650000X1.000000X-0.650000X1.000000X0.650000X-1.000000X0.650000X0*%
%ADD25RoundRect,0.218750X0.218750X0.256250X-0.218750X0.256250X-0.218750X-0.256250X0.218750X-0.256250X0*%
%ADD26RoundRect,0.075000X0.700000X0.075000X-0.700000X0.075000X-0.700000X-0.075000X0.700000X-0.075000X0*%
%ADD27RoundRect,0.075000X0.075000X0.700000X-0.075000X0.700000X-0.075000X-0.700000X0.075000X-0.700000X0*%
%ADD28RoundRect,0.250000X-0.450000X0.262500X-0.450000X-0.262500X0.450000X-0.262500X0.450000X0.262500X0*%
G04 APERTURE END LIST*
D10*
%TO.C,R15*%
X177650000Y-95950000D03*
X177650000Y-94125000D03*
%TD*%
D11*
%TO.C,R10*%
X181450000Y-67300000D03*
X183275000Y-67300000D03*
%TD*%
D10*
%TO.C,R11*%
X173425000Y-74475000D03*
X173425000Y-72650000D03*
%TD*%
D12*
%TO.C,D3*%
X166300000Y-47100000D03*
X166300000Y-51100000D03*
%TD*%
D13*
%TO.C,D2*%
X161950000Y-47100000D03*
X161950000Y-51400000D03*
%TD*%
D14*
%TO.C,C1*%
X177747500Y-42800000D03*
X180452500Y-42800000D03*
%TD*%
D12*
%TO.C,D6*%
X183225000Y-91150000D03*
X183225000Y-95150000D03*
%TD*%
D15*
%TO.C,D9*%
X161900000Y-91250000D03*
X161900000Y-95250000D03*
%TD*%
D16*
%TO.C,C10*%
X177300000Y-72862500D03*
X175400000Y-72862500D03*
%TD*%
D14*
%TO.C,C6*%
X170595000Y-56200000D03*
X173300000Y-56200000D03*
%TD*%
D15*
%TO.C,D11*%
X174550000Y-95200000D03*
X174550000Y-91200000D03*
%TD*%
D10*
%TO.C,R17*%
X165000000Y-90550000D03*
X165000000Y-92375000D03*
%TD*%
D17*
%TO.C,F1*%
X158537500Y-47550000D03*
X154262500Y-47550000D03*
%TD*%
D10*
%TO.C,R9*%
X193540000Y-50400000D03*
X193540000Y-48575000D03*
%TD*%
D18*
%TO.C,C4*%
X181450000Y-65250000D03*
X183350000Y-65250000D03*
%TD*%
D19*
%TO.C,C12*%
X181500000Y-62500000D03*
X184450000Y-62500000D03*
%TD*%
D20*
%TO.C,R6*%
X195175000Y-35950000D03*
X193350000Y-35950000D03*
%TD*%
D16*
%TO.C,C14*%
X190525000Y-88350000D03*
X188625000Y-88350000D03*
%TD*%
D21*
%TO.C,U1*%
X174400000Y-43000000D03*
X172100000Y-43000000D03*
D22*
X172100000Y-49300000D03*
D21*
X169800000Y-43000000D03*
%TD*%
D15*
%TO.C,D7*%
X187075000Y-95100000D03*
X187075000Y-91100000D03*
%TD*%
D18*
%TO.C,C13*%
X181450000Y-59800000D03*
X183350000Y-59800000D03*
%TD*%
D11*
%TO.C,R8*%
X193350000Y-38150000D03*
X195175000Y-38150000D03*
%TD*%
D18*
%TO.C,C5*%
X177550000Y-47800000D03*
X179450000Y-47800000D03*
%TD*%
D10*
%TO.C,R16*%
X190275000Y-92175000D03*
X190275000Y-90350000D03*
%TD*%
D23*
%TO.C,C8*%
X166000000Y-67525000D03*
X166000000Y-65625000D03*
%TD*%
D20*
%TO.C,R12*%
X154550000Y-42300000D03*
X152725000Y-42300000D03*
%TD*%
D23*
%TO.C,C7*%
X168400000Y-57850000D03*
X168400000Y-55950000D03*
%TD*%
D16*
%TO.C,C16*%
X177850000Y-88550000D03*
X175950000Y-88550000D03*
%TD*%
D18*
%TO.C,C9*%
X176800000Y-56250000D03*
X178700000Y-56250000D03*
%TD*%
D14*
%TO.C,C11*%
X179245000Y-72812500D03*
X181950000Y-72812500D03*
%TD*%
D11*
%TO.C,R3*%
X157300000Y-55110000D03*
X159125000Y-55110000D03*
%TD*%
D10*
%TO.C,R13*%
X190290000Y-95742500D03*
X190290000Y-93917500D03*
%TD*%
D24*
%TO.C,D4*%
X183990000Y-49600000D03*
X187990000Y-49600000D03*
%TD*%
D12*
%TO.C,D10*%
X170550000Y-91250000D03*
X170550000Y-95250000D03*
%TD*%
D11*
%TO.C,R2*%
X157300000Y-57310000D03*
X159125000Y-57310000D03*
%TD*%
D25*
%TO.C,L1*%
X182937500Y-57950000D03*
X181362500Y-57950000D03*
%TD*%
D10*
%TO.C,R14*%
X165000000Y-94175000D03*
X165000000Y-96000000D03*
%TD*%
D14*
%TO.C,C3*%
X177700000Y-45400000D03*
X180405000Y-45400000D03*
%TD*%
D26*
%TO.C,U2*%
X179477500Y-67850000D03*
X179477500Y-67350000D03*
X179477500Y-66850000D03*
X179477500Y-66350000D03*
X179477500Y-65850000D03*
X179477500Y-65350000D03*
X179477500Y-64850000D03*
X179477500Y-64350000D03*
X179477500Y-63850000D03*
X179477500Y-63350000D03*
X179477500Y-62850000D03*
X179477500Y-62350000D03*
X179477500Y-61850000D03*
X179477500Y-61350000D03*
X179477500Y-60850000D03*
X179477500Y-60350000D03*
D27*
X177552500Y-58425000D03*
X177052500Y-58425000D03*
X176552500Y-58425000D03*
X176052500Y-58425000D03*
X175552500Y-58425000D03*
X175052500Y-58425000D03*
X174552500Y-58425000D03*
X174052500Y-58425000D03*
X173552500Y-58425000D03*
X173052500Y-58425000D03*
X172552500Y-58425000D03*
X172052500Y-58425000D03*
X171552500Y-58425000D03*
X171052500Y-58425000D03*
X170552500Y-58425000D03*
X170052500Y-58425000D03*
D26*
X168127500Y-60350000D03*
X168127500Y-60850000D03*
X168127500Y-61350000D03*
X168127500Y-61850000D03*
X168127500Y-62350000D03*
X168127500Y-62850000D03*
X168127500Y-63350000D03*
X168127500Y-63850000D03*
X168127500Y-64350000D03*
X168127500Y-64850000D03*
X168127500Y-65350000D03*
X168127500Y-65850000D03*
X168127500Y-66350000D03*
X168127500Y-66850000D03*
X168127500Y-67350000D03*
X168127500Y-67850000D03*
D27*
X170052500Y-69775000D03*
X170552500Y-69775000D03*
X171052500Y-69775000D03*
X171552500Y-69775000D03*
X172052500Y-69775000D03*
X172552500Y-69775000D03*
X173052500Y-69775000D03*
X173552500Y-69775000D03*
X174052500Y-69775000D03*
X174552500Y-69775000D03*
X175052500Y-69775000D03*
X175552500Y-69775000D03*
X176052500Y-69775000D03*
X176552500Y-69775000D03*
X177052500Y-69775000D03*
X177552500Y-69775000D03*
%TD*%
D10*
%TO.C,R7*%
X191040000Y-50375000D03*
X191040000Y-48550000D03*
%TD*%
D28*
%TO.C,R5*%
X195200000Y-65910000D03*
X195200000Y-67735000D03*
%TD*%
D10*
%TO.C,R18*%
X177650000Y-92312500D03*
X177650000Y-90487500D03*
%TD*%
D16*
%TO.C,C15*%
X163300000Y-88600000D03*
X165200000Y-88600000D03*
%TD*%
D11*
%TO.C,R1*%
X157300000Y-59460000D03*
X159125000Y-59460000D03*
%TD*%
D12*
%TO.C,D8*%
X157950000Y-95300000D03*
X157950000Y-91300000D03*
%TD*%
D16*
%TO.C,C2*%
X195250000Y-40350000D03*
X193350000Y-40350000D03*
%TD*%
D28*
%TO.C,R4*%
X192680000Y-65917500D03*
X192680000Y-67742500D03*
%TD*%
M02*
